<?xml version="1.0" encoding="UTF-8" standalone="no"?>
<svg
   xmlns:dc="http://purl.org/dc/elements/1.1/"
   xmlns:cc="http://creativecommons.org/ns#"
   xmlns:rdf="http://www.w3.org/1999/02/22-rdf-syntax-ns#"
   xmlns:svg="http://www.w3.org/2000/svg"
   xmlns="http://www.w3.org/2000/svg"
   xmlns:sodipodi="http://sodipodi.sourceforge.net/DTD/sodipodi-0.dtd"
   xmlns:inkscape="http://www.inkscape.org/namespaces/inkscape"
   width="16"
   height="16"
   version="1.1"
   id="svg6"
   sodipodi:docname="accessories-character-map-symbolic.svg"
   inkscape:version="1.0.1 (3bc2e813f5, 2020-09-07)">
  <metadata
     id="metadata12">
    <rdf:RDF>
      <cc:Work
         rdf:about="">
        <dc:format>image/svg+xml</dc:format>
        <dc:type
           rdf:resource="http://purl.org/dc/dcmitype/StillImage" />
      </cc:Work>
    </rdf:RDF>
  </metadata>
  <defs
     id="defs10" />
  <sodipodi:namedview
     pagecolor="#ffffff"
     bordercolor="#666666"
     borderopacity="1"
     objecttolerance="10"
     gridtolerance="10"
     guidetolerance="10"
     inkscape:pageopacity="0"
     inkscape:pageshadow="2"
     inkscape:window-width="1360"
     inkscape:window-height="745"
     id="namedview8"
     showgrid="false"
     inkscape:zoom="12.330175"
     inkscape:cx="12.460627"
     inkscape:cy="11.700493"
     inkscape:window-x="0"
     inkscape:window-y="23"
     inkscape:window-maximized="1"
     inkscape:current-layer="svg6"
     inkscape:document-rotation="0" />
  <path
     d="M 7,0 C 5.892,0 5,0.892 5,2 v 2 h 5 a 1.99,1.99 0 0 1 1.725,1 H 13.75 C 14.443,5 15,5.56 15,6.25 v 0.5 C 15,7.44 14.443,8.01 13.75,8 L 12,7.98 V 9 h 2.5 v 1 H 12 v 1 h 2 c 1.108,0 2,-0.892 2,-2 V 2 C 16,0.892 15.108,0 14,0 Z m 4,3 h 1 v 1 h -1 z m 2,0 h 1 v 1 h -1 z m -1,3 v 1 h 1.6 A 0.4,0.4 0 0 0 14,6.6 V 6.4 A 0.4,0.4 0 0 0 13.6,6 Z"
     opacity="1"
     id="path2"
     inkscape:highlight-color="4278190335"
     style="fill:#b3b3b3;stroke:none" />
  <path
     d="M 2,5 C 0.892,5 0,5.892 0,7 v 7 c 0,1.108 0.892,2 2,2 h 7 c 1.108,0 2,-0.892 2,-2 V 7 C 11,5.892 10.108,5 9,5 Z M 9.123,7.129 9.381,8.094 6,9 5.742,8.033 Z M 5.5,10 H 8.75 C 9.443,10 10,10.557 10,11.25 v 2.5 C 10,14.443 9.443,15 8.75,15 H 6.25 C 5.558,15 5,14.443 5,13.75 v -0.5 C 5,12.557 5.558,11.993 6.25,12 L 9.008,12.027 9,11.4 A 0.4,0.4 0 0 0 8.6,11 H 5.5 Z m 0.9,3 A 0.4,0.4 0 0 0 6,13.4 v 0.2 A 0.4,0.4 0 0 0 6.4,14 H 9 v -1 z"
     id="path4"
     inkscape:highlight-color="4278190335"
     style="fill:#ffffff;stroke:none" />
</svg>
