<?xml version="1.0" encoding="UTF-8" standalone="no"?>
<svg
   xmlns:dc="http://purl.org/dc/elements/1.1/"
   xmlns:cc="http://creativecommons.org/ns#"
   xmlns:rdf="http://www.w3.org/1999/02/22-rdf-syntax-ns#"
   xmlns:svg="http://www.w3.org/2000/svg"
   xmlns="http://www.w3.org/2000/svg"
   xmlns:sodipodi="http://sodipodi.sourceforge.net/DTD/sodipodi-0.dtd"
   xmlns:inkscape="http://www.inkscape.org/namespaces/inkscape"
   enable-background="new 0 0 24 24"
   height="512"
   viewBox="0 0 24 24"
   width="512"
   version="1.1"
   id="svg8"
   sodipodi:docname="body.svg"
   inkscape:version="1.0.1 (3bc2e813f5, 2020-09-07)">
  <metadata
     id="metadata14">
    <rdf:RDF>
      <cc:Work
         rdf:about="">
        <dc:format>image/svg+xml</dc:format>
        <dc:type
           rdf:resource="http://purl.org/dc/dcmitype/StillImage" />
      </cc:Work>
    </rdf:RDF>
  </metadata>
  <defs
     id="defs12" />
  <sodipodi:namedview
     pagecolor="#ffffff"
     bordercolor="#666666"
     borderopacity="1"
     objecttolerance="10"
     gridtolerance="10"
     guidetolerance="10"
     inkscape:pageopacity="0"
     inkscape:pageshadow="2"
     inkscape:window-width="1302"
     inkscape:window-height="926"
     id="namedview10"
     showgrid="false"
     inkscape:zoom="1.6875"
     inkscape:cx="256"
     inkscape:cy="256"
     inkscape:window-x="0"
     inkscape:window-y="22"
     inkscape:window-maximized="0"
     inkscape:current-layer="svg8"
     inkscape:document-rotation="0" />
  <path
     d="m24 5v-4c0-.552-.448-1-1-1h-9c-.552 0-1 .448-1 1v4c0 .552.448 1 1 1h9c.552 0 1-.448 1-1z"
     id="path2"
     style="fill:#ffffff" />
  <path
     d="m11 5v-4c0-.552-.448-1-1-1h-9c-.552 0-1 .448-1 1v4c0 .552.448 1 1 1h9c.552 0 1-.448 1-1z"
     id="path4"
     style="fill:#ffffff" />
  <path
     d="m24 23v-14c0-.552-.448-1-1-1h-22c-.552 0-1 .448-1 1v14c0 .552.448 1 1 1h22c.552 0 1-.448 1-1z"
     id="path6"
     style="fill:#ffffff" />
</svg>
