<?xml version="1.0" encoding="UTF-8" standalone="no"?>
<svg
   xmlns:dc="http://purl.org/dc/elements/1.1/"
   xmlns:cc="http://creativecommons.org/ns#"
   xmlns:rdf="http://www.w3.org/1999/02/22-rdf-syntax-ns#"
   xmlns:svg="http://www.w3.org/2000/svg"
   xmlns="http://www.w3.org/2000/svg"
   xmlns:sodipodi="http://sodipodi.sourceforge.net/DTD/sodipodi-0.dtd"
   xmlns:inkscape="http://www.inkscape.org/namespaces/inkscape"
   viewBox="0 0 50 50"
   version="1.1"
   id="svg5"
   sodipodi:docname="discord.svg"
   inkscape:version="1.0.1 (3bc2e813f5, 2020-09-07)">
  <defs
     id="defs9" />
  <sodipodi:namedview
     pagecolor="#ffffff"
     bordercolor="#666666"
     borderopacity="1"
     objecttolerance="10"
     gridtolerance="10"
     guidetolerance="10"
     inkscape:pageopacity="0"
     inkscape:pageshadow="2"
     inkscape:window-width="820"
     inkscape:window-height="480"
     id="namedview7"
     showgrid="false"
     inkscape:zoom="17.28"
     inkscape:cx="25"
     inkscape:cy="25"
     inkscape:window-x="0"
     inkscape:window-y="22"
     inkscape:window-maximized="0"
     inkscape:current-layer="svg5" />
  <path
     d="M41.625 10.77c-3.98-3.204-10.277-3.747-10.547-3.766a.992.992 0 0 0-.988.586 6.63 6.63 0 0 0-.305.832c2.633.445 5.867 1.34 8.793 3.156a1 1 0 1 1-1.055 1.7C32.493 10.155 26.211 10 25 10c-1.21 0-7.496.156-12.523 3.277a1 1 0 0 1-1.055-1.7c2.926-1.811 6.16-2.71 8.793-3.151-.152-.496-.29-.809-.3-.836a.987.987 0 0 0-.993-.586c-.27.02-6.567.562-10.602 3.809C6.215 12.761 2 24.152 2 34c0 .176.047.344.133.496 2.906 5.11 10.84 6.445 12.648 6.504h.031a1 1 0 0 0 .81-.41l1.827-2.516c-4.933-1.273-7.453-3.437-7.597-3.566a1 1 0 1 1 1.324-1.5C11.234 33.063 15.875 37 25 37c9.14 0 13.781-3.953 13.828-3.992a1 1 0 0 1 1.41.094.996.996 0 0 1-.09 1.406c-.144.129-2.664 2.293-7.597 3.566l1.828 2.516a1 1 0 0 0 .809.41h.03c1.81-.059 9.743-1.395 12.65-6.504.085-.152.132-.32.132-.496 0-9.848-4.215-21.238-6.375-23.23zM18.5 30c-1.934 0-3.5-1.79-3.5-4s1.566-4 3.5-4 3.5 1.79 3.5 4-1.566 4-3.5 4zm13 0c-1.934 0-3.5-1.79-3.5-4s1.566-4 3.5-4 3.5 1.79 3.5 4-1.566 4-3.5 4z"
     id="surface1"
     style="fill:#ffffff" />
  <metadata
     id="metadata3">
    <rdf:RDF>
      <rdf:Description
         about="https://iconscout.com/legal#licenses"
         dc:title="discord,filled"
         dc:description="discord,filled"
         dc:publisher="Iconscout"
         dc:date="2017-12-09"
         dc:format="image/svg+xml"
         dc:language="en">
        <dc:creator>
          <rdf:Bag>
            <rdf:li>Icons8</rdf:li>
          </rdf:Bag>
        </dc:creator>
      </rdf:Description>
      <cc:Work
         rdf:about="">
        <dc:format>image/svg+xml</dc:format>
        <dc:type
           rdf:resource="http://purl.org/dc/dcmitype/StillImage" />
      </cc:Work>
    </rdf:RDF>
  </metadata>
</svg>
