<?xml version="1.0" encoding="UTF-8" standalone="no"?>
<svg
   xmlns:dc="http://purl.org/dc/elements/1.1/"
   xmlns:cc="http://creativecommons.org/ns#"
   xmlns:rdf="http://www.w3.org/1999/02/22-rdf-syntax-ns#"
   xmlns:svg="http://www.w3.org/2000/svg"
   xmlns="http://www.w3.org/2000/svg"
   xmlns:sodipodi="http://sodipodi.sourceforge.net/DTD/sodipodi-0.dtd"
   xmlns:inkscape="http://www.inkscape.org/namespaces/inkscape"
   version="1.1"
   id="Capa_1"
   x="0px"
   y="0px"
   width="64.583px"
   height="64.583px"
   viewBox="0 0 64.583 64.583"
   style="enable-background:new 0 0 64.583 64.583;"
   xml:space="preserve"
   sodipodi:docname="electrocardiography.svg"
   inkscape:version="1.0.1 (3bc2e813f5, 2020-09-07)"><metadata
   id="metadata43"><rdf:RDF><cc:Work
       rdf:about=""><dc:format>image/svg+xml</dc:format><dc:type
         rdf:resource="http://purl.org/dc/dcmitype/StillImage" /></cc:Work></rdf:RDF></metadata><defs
   id="defs41" /><sodipodi:namedview
   pagecolor="#ffffff"
   bordercolor="#666666"
   borderopacity="1"
   objecttolerance="10"
   gridtolerance="10"
   guidetolerance="10"
   inkscape:pageopacity="0"
   inkscape:pageshadow="2"
   inkscape:window-width="1920"
   inkscape:window-height="1056"
   id="namedview39"
   showgrid="false"
   inkscape:zoom="13.393617"
   inkscape:cx="38.264494"
   inkscape:cy="32.2915"
   inkscape:window-x="0"
   inkscape:window-y="24"
   inkscape:window-maximized="1"
   inkscape:current-layer="Capa_1" />
<g
   id="g6"
   style="fill:#ffffff">
	<g
   id="g4"
   style="fill:#ffffff">
		<path
   d="M0,64.583h64.583V0H0V64.583z M61.458,61.458H3.125V34.122h3.007c0.366,0,0.705-0.192,0.893-0.506l1.768-2.946l3.594,9.88    c0.15,0.413,0.543,0.686,0.979,0.686c0.011,0,0.022,0,0.035-0.001c0.451-0.016,0.841-0.318,0.966-0.752l1.833-6.36h4.642    c0.496,0,0.923-0.351,1.021-0.836l1.433-7.104l2.902,21.22c0.07,0.517,0.513,0.899,1.032,0.899c0.004,0,0.009,0,0.013,0    c0.527-0.007,0.965-0.405,1.022-0.927l1.465-13.254h0.755c0.456,0,0.859-0.298,0.995-0.732l0.886-2.854l0.47,2.721    c0.086,0.5,0.52,0.865,1.025,0.865h6.391c0.484,0,0.904-0.332,1.016-0.804l0.431-1.842l2.138,7.205    c0.136,0.458,0.536,0.787,1.044,0.746c0.478-0.021,0.88-0.365,0.976-0.833l4.472-21.88l4.328,29.899    c0.071,0.497,0.487,0.871,0.987,0.892c0.501,0.045,0.946-0.319,1.059-0.808l2.83-12.328h1.929V61.458z M3.125,3.125h58.333v29.16    H58.7c-0.484,0-0.905,0.336-1.016,0.809l-1.766,7.702l-4.387-30.291c-0.073-0.5-0.495-0.877-1.001-0.892    c-0.496,0.021-0.95,0.336-1.051,0.833l-4.833,23.65l-2.069-6.978c-0.135-0.455-0.566-0.741-1.029-0.746    c-0.472,0.015-0.876,0.344-0.982,0.804l-1.14,4.862h-4.686l-1.058-6.128c-0.081-0.474-0.479-0.832-0.958-0.863    c-0.479-0.02-0.92,0.271-1.064,0.73l-1.943,6.26h-0.92c-0.531,0-0.977,0.4-1.036,0.926l-0.642,5.809l-2.595-18.977    c-0.069-0.503-0.491-0.884-1-0.899c-0.489-0.031-0.952,0.335-1.054,0.834l-2.484,12.306h-4.574c-0.463,0-0.873,0.307-1.001,0.753    l-1.163,4.039l-3.247-8.928c-0.137-0.377-0.479-0.643-0.879-0.681c-0.408-0.037-0.786,0.157-0.992,0.5l-2.59,4.315H3.125V3.125z"
   id="path2"
   style="fill:#ffffff" />
	</g>
</g>
<g
   id="g8">
</g>
<g
   id="g10">
</g>
<g
   id="g12">
</g>
<g
   id="g14">
</g>
<g
   id="g16">
</g>
<g
   id="g18">
</g>
<g
   id="g20">
</g>
<g
   id="g22">
</g>
<g
   id="g24">
</g>
<g
   id="g26">
</g>
<g
   id="g28">
</g>
<g
   id="g30">
</g>
<g
   id="g32">
</g>
<g
   id="g34">
</g>
<g
   id="g36">
</g>
</svg>
