<?xml version="1.0" encoding="UTF-8" standalone="no"?>
<svg
   xmlns:dc="http://purl.org/dc/elements/1.1/"
   xmlns:cc="http://creativecommons.org/ns#"
   xmlns:rdf="http://www.w3.org/1999/02/22-rdf-syntax-ns#"
   xmlns:svg="http://www.w3.org/2000/svg"
   xmlns="http://www.w3.org/2000/svg"
   xmlns:sodipodi="http://sodipodi.sourceforge.net/DTD/sodipodi-0.dtd"
   xmlns:inkscape="http://www.inkscape.org/namespaces/inkscape"
   version="1.1"
   id="Capa_1"
   x="0px"
   y="0px"
   width="62.057px"
   height="62.057px"
   viewBox="0 0 62.057 62.057"
   style="enable-background:new 0 0 62.057 62.057;"
   xml:space="preserve"
   sodipodi:docname="equalizer.svg"
   inkscape:version="1.0.1 (3bc2e813f5, 2020-09-07)"><metadata
   id="metadata57"><rdf:RDF><cc:Work
       rdf:about=""><dc:format>image/svg+xml</dc:format><dc:type
         rdf:resource="http://purl.org/dc/dcmitype/StillImage" /></cc:Work></rdf:RDF></metadata><defs
   id="defs55" /><sodipodi:namedview
   pagecolor="#ffffff"
   bordercolor="#666666"
   borderopacity="1"
   objecttolerance="10"
   gridtolerance="10"
   guidetolerance="10"
   inkscape:pageopacity="0"
   inkscape:pageshadow="2"
   inkscape:window-width="722"
   inkscape:window-height="480"
   id="namedview53"
   showgrid="false"
   inkscape:zoom="2.4640547"
   inkscape:cx="-1.943778"
   inkscape:cy="24.801153"
   inkscape:window-x="0"
   inkscape:window-y="24"
   inkscape:window-maximized="0"
   inkscape:current-layer="Capa_1" />
<g
   id="g20"
   style="fill:#ffffff">
	<g
   id="g18"
   style="fill:#ffffff">
		<path
   d="M6.934,20.62V0.169H0V20.62v41.268h6.934V20.62z M2.083,2.252H4.85V20.62H2.083V2.252z"
   id="path2"
   style="fill:#ffffff" />
		<path
   d="M14.688,6.635V0.169H7.755v6.465v55.253h6.933L14.688,6.635L14.688,6.635z M9.839,2.252h2.767v4.382H9.839V2.252z"
   id="path4"
   style="fill:#ffffff" />
		<path
   d="M22.676,12.308V0.169h-6.933v12.139v49.58h6.933V12.308z M17.826,2.252h2.767v10.056h-2.767V2.252z"
   id="path6"
   style="fill:#ffffff" />
		<path
   d="M30.665,27.348V0.169h-6.933v27.179v34.54h6.933V27.348z M25.815,2.252h2.766v25.096h-2.766V2.252z"
   id="path8"
   style="fill:#ffffff" />
		<path
   d="M38.651,33.22V0.169h-6.933v33.05v28.668h6.933V33.22z M33.804,2.252h2.767V33.22h-2.767V2.252z"
   id="path10"
   style="fill:#ffffff" />
		<path
   d="M47.428,30.251v31.636h6.933V30.251V0.169h-6.933V30.251z M49.511,2.252h2.766v27.999h-2.766V2.252z"
   id="path12"
   style="fill:#ffffff" />
		<path
   d="M55.123,13.363v48.524h6.934V13.363V0.169h-6.934V13.363z M57.206,2.252h2.767v11.111h-2.767V2.252z"
   id="path14"
   style="fill:#ffffff" />
		<path
   d="M46.496,40.213V0.169h-6.934v40.043v21.675h6.934V40.213z M41.646,2.252h2.767v37.96h-2.767V2.252z"
   id="path16"
   style="fill:#ffffff" />
	</g>
</g>
<g
   id="g22">
</g>
<g
   id="g24">
</g>
<g
   id="g26">
</g>
<g
   id="g28">
</g>
<g
   id="g30">
</g>
<g
   id="g32">
</g>
<g
   id="g34">
</g>
<g
   id="g36">
</g>
<g
   id="g38">
</g>
<g
   id="g40">
</g>
<g
   id="g42">
</g>
<g
   id="g44">
</g>
<g
   id="g46">
</g>
<g
   id="g48">
</g>
<g
   id="g50">
</g>
<g
   id="g900"
   style="fill:#ffffff">
	<g
   id="g898"
   style="fill:#ffffff">
		<path
   d="M6.934,20.62V0.169H0V20.62v41.268h6.934V20.62z M2.083,2.252H4.85V20.62H2.083V2.252z"
   id="path882"
   style="fill:#ffffff" />
		<path
   d="M14.688,6.635V0.169H7.755v6.465v55.253h6.933L14.688,6.635L14.688,6.635z M9.839,2.252h2.767v4.382H9.839V2.252z"
   id="path884"
   style="fill:#ffffff" />
		<path
   d="M22.676,12.308V0.169h-6.933v12.139v49.58h6.933V12.308z M17.826,2.252h2.767v10.056h-2.767V2.252z"
   id="path886"
   style="fill:#ffffff" />
		<path
   d="M30.665,27.348V0.169h-6.933v27.179v34.54h6.933V27.348z M25.815,2.252h2.766v25.096h-2.766V2.252z"
   id="path888"
   style="fill:#ffffff" />
		<path
   d="M38.651,33.22V0.169h-6.933v33.05v28.668h6.933V33.22z M33.804,2.252h2.767V33.22h-2.767V2.252z"
   id="path890"
   style="fill:#ffffff" />
		<path
   d="M47.428,30.251v31.636h6.933V30.251V0.169h-6.933V30.251z M49.511,2.252h2.766v27.999h-2.766V2.252z"
   id="path892"
   style="fill:#ffffff" />
		<path
   d="M55.123,13.363v48.524h6.934V13.363V0.169h-6.934V13.363z M57.206,2.252h2.767v11.111h-2.767V2.252z"
   id="path894"
   style="fill:#ffffff" />
		<path
   d="M46.496,40.213V0.169h-6.934v40.043v21.675h6.934V40.213z M41.646,2.252h2.767v37.96h-2.767V2.252z"
   id="path896"
   style="fill:#ffffff" />
	</g>
</g></svg>
