<?xml version="1.0" encoding="UTF-8" standalone="no"?>
<svg
   xmlns:dc="http://purl.org/dc/elements/1.1/"
   xmlns:cc="http://creativecommons.org/ns#"
   xmlns:rdf="http://www.w3.org/1999/02/22-rdf-syntax-ns#"
   xmlns:svg="http://www.w3.org/2000/svg"
   xmlns="http://www.w3.org/2000/svg"
   xmlns:sodipodi="http://sodipodi.sourceforge.net/DTD/sodipodi-0.dtd"
   xmlns:inkscape="http://www.inkscape.org/namespaces/inkscape"
   id="Layer_1"
   enable-background="new 0 0 512 512"
   height="512"
   viewBox="0 0 512 512"
   width="512"
   version="1.1"
   sodipodi:docname="faxe.svg"
   inkscape:version="1.0.1 (3bc2e813f5, 2020-09-07)">
  <metadata
     id="metadata9">
    <rdf:RDF>
      <cc:Work
         rdf:about="">
        <dc:format>image/svg+xml</dc:format>
        <dc:type
           rdf:resource="http://purl.org/dc/dcmitype/StillImage" />
        <dc:title />
      </cc:Work>
    </rdf:RDF>
  </metadata>
  <defs
     id="defs7" />
  <sodipodi:namedview
     pagecolor="#ffffff"
     bordercolor="#666666"
     borderopacity="1"
     objecttolerance="10"
     gridtolerance="10"
     guidetolerance="10"
     inkscape:pageopacity="0"
     inkscape:pageshadow="2"
     inkscape:window-width="1920"
     inkscape:window-height="1056"
     id="namedview5"
     showgrid="false"
     inkscape:zoom="0.84472656"
     inkscape:cx="586.81203"
     inkscape:cy="235.74591"
     inkscape:window-x="0"
     inkscape:window-y="24"
     inkscape:window-maximized="1"
     inkscape:current-layer="Layer_1"
     inkscape:document-rotation="0" />
  <path
     d="M 282.931,468 C 259.8,468 149.78651,193.42637 146.48251,170.42637 L 338.58956,85.074097 C 698.57629,429.9089 188.798,84.002 184.87,84 h -0.007 c -3.923,0 -4.303,2.624 -4.486,3.885 L 82.913981,62.469183 C 79.755981,84.212183 339.133,344.157 317.235,345.126 295.334,346.093 114.22573,224.33869 57.314,335.374 c 130.61355,-134.59882 -0.036,-0.153 -0.053,-0.23 l 77.65601,-56.97077 c -3.047,-12.662 -12.64638,114.67113 -24.46538,114.67113 -11.046004,0 51.30829,19.01067 51.30829,7.96467 0,-11.046 -6.20657,-126.68352 4.83943,-126.68352 30.372,0 -88.89435,-28.80451 -81.60635,1.94849 0.019,0.077 0.036,0.153 0.053,0.23 l 313.62135,-82.2028 c 0.282,1.172 83.36115,243.44292 -297.34535,135.8918 4.133,-0.183 87.47798,59.31218 87.64098,58.19218 L 140.785,82.185 C 844.12657,1014.7961 162.176,44 184.863,44 h 0.039 c 22.707,0.018 247.46104,126.75643 250.69004,149.23243 L 277.722,423.429 c 0.181,1.259 0.708,4.666 5.369,4.57 4.702,-0.071 -54.28828,37.49949 -54.14328,36.22149 L 146.48251,170.42637 C 45.695832,139.56932 41.511601,292.29853 317.235,345.126 c 10.977,1.234 39.09481,-35.54406 37.85981,-24.56706 l 52.27202,143.7001 c -2.642,23.354 -100.18783,3.38296 -123.67483,3.73596 -0.254,0.003 -0.508,0.005 -0.761,0.005 z M 452.184,320.367 c 0.02,-0.079 0.039,-0.158 0.058,-0.237 l 7.062,-29.967 C 463.205,274.67 68.156981,62.469183 82.913981,62.469183 93.959981,62.469183 512,254.046 512,243 512,231.954 394.59127,83.823157 383.54527,83.823157 350.39127,83.823157 428.758,247.231 420.458,280.617 420.438,280.696 146.50151,170.34737 146.48251,170.42637 L 413.337,310.829 c -0.238,0.942 -0.662,2.253 -3.008,2.167 -2.445,-0.096 -2.687,-1.549 -2.839,-2.458 L 254.81936,75.07966 C 251.41136,54.63566 371.544,180.438 350.816,180.993 c -20.719,0.544 93.7955,231.45912 91.4655,252.05412 l 7.40101,29.13025 C 448.44051,473.15337 306.259,343.884 317.235,345.126 c 10.979,1.243 24.47,-37.902 25.712,-48.878 L 482.0285,437.54412 C 482.0465,437.39212 351.454,221.119 351.474,221.024 c 0.237,-0.053 0.552,-0.062 0.79,-0.021 0.022,0.083 0.046,0.187 0.067,0.312 l 15.696,95.746 c 3.388,20.331 20.139,35.095 40.734,35.904 C 409.352,352.988 82.913981,62.469183 82.913981,62.469183 102.75698,62.469183 447.354,339.796 452.184,320.367 Z"
     id="path2"
     sodipodi:nodetypes="sccssccccccsssccccccsscccccccccscccssscccccccccccccccccsc"
     style="fill:#ffffff" />
</svg>
