<?xml version="1.0" encoding="UTF-8" standalone="no"?>
<svg
   xmlns:dc="http://purl.org/dc/elements/1.1/"
   xmlns:cc="http://creativecommons.org/ns#"
   xmlns:rdf="http://www.w3.org/1999/02/22-rdf-syntax-ns#"
   xmlns:svg="http://www.w3.org/2000/svg"
   xmlns="http://www.w3.org/2000/svg"
   xmlns:sodipodi="http://sodipodi.sourceforge.net/DTD/sodipodi-0.dtd"
   xmlns:inkscape="http://www.inkscape.org/namespaces/inkscape"
   height="22"
   width="22"
   version="1.1"
   id="svg8"
   sodipodi:docname="firewall-applet-error.svg"
   inkscape:version="1.0.1 (3bc2e813f5, 2020-09-07)">
  <metadata
     id="metadata12">
    <rdf:RDF>
      <cc:Work
         rdf:about="">
        <dc:format>image/svg+xml</dc:format>
        <dc:type
           rdf:resource="http://purl.org/dc/dcmitype/StillImage" />
      </cc:Work>
    </rdf:RDF>
  </metadata>
  <sodipodi:namedview
     pagecolor="#ffffff"
     bordercolor="#666666"
     borderopacity="1"
     objecttolerance="10"
     gridtolerance="10"
     guidetolerance="10"
     inkscape:pageopacity="0"
     inkscape:pageshadow="2"
     inkscape:window-width="1920"
     inkscape:window-height="1058"
     id="namedview10"
     showgrid="false"
     inkscape:zoom="13.885006"
     inkscape:cx="7.6927847"
     inkscape:cy="22.530883"
     inkscape:window-x="0"
     inkscape:window-y="22"
     inkscape:window-maximized="1"
     inkscape:current-layer="svg8" />
  <defs
     id="defs3051">
    <style
       type="text/css"
       id="current-color-scheme">
            .ColorScheme-NegativeText {
                color:#da4453;
            }
        </style>
  </defs>
  <path
     style="fill:#b3b3b3;fill-opacity:1;stroke:none"
     class="ColorScheme-NegativeText"
     d="m 13,3 -1,1 v 2 h 7 V 3 Z M 9,7 7,9 v 1 h 8 V 7 Z m 7,0 v 3 h 3 V 7 Z M 5,11 3,13 v 1 h 8 v -3 z m -2,4 v 3 h 3 v -3 z m 4,0 v 3 h 4 v -3 z"
     id="path4"
     sodipodi:nodetypes="ccccccccccccccccccccccccccccccccc" />
  <path
     style="fill:#28a928;fill-opacity:1;stroke:none"
     class="ColorScheme-NegativeText"
     d="m 13,11 c -0.554,0 -1,0.446 -1,1 v 6 c 0,0.554 0.446,1 1,1 h 6 c 0.554,0 1,-0.446 1,-1 v -6 c 0,-0.554 -0.446,-1 -1,-1 z"
     id="path886"
     sodipodi:nodetypes="sssssssss" />
  <g
     id="g883"
     transform="matrix(0,-1.2454932,1.2454932,0,-225.2649,252.25716)"
     style="fill:#e6e6e6">
    <g
       id="g866"
       transform="matrix(2.841651,0,0,2.7050188,-953.53905,238.21773)"
       style="fill:#e6e6e6">
      <g
         id="g843"
         style="fill:#e6e6e6">
        <g
           id="g848"
           transform="matrix(0.85199139,0,0,0.85199139,47.838071,10.716313)"
           style="fill:#e6e6e6">
          <g
             id="g841"
             style="fill:#e6e6e6">
            <g
               id="g844"
               style="fill:#e6e6e6">
              <g
                 id="g847"
                 style="fill:#e6e6e6" />
            </g>
          </g>
          <g
             id="g852"
             style="fill:#e6e6e6">
            <g
               id="g859"
               style="fill:#e6e6e6">
              <g
                 id="g855"
                 style="fill:#e6e6e6">
                <g
                   id="g862"
                   style="fill:#e6e6e6">
                  <g
                     id="g865"
                     style="fill:#e6e6e6">
                    <g
                       id="g868"
                       style="fill:#e6e6e6">
                      <g
                         id="g872"
                         style="fill:#e6e6e6" />
                    </g>
                  </g>
                </g>
              </g>
            </g>
          </g>
        </g>
      </g>
    </g>
    <path
       style="display:inline;overflow:visible;visibility:visible;fill:#ffffff;fill-opacity:1;fill-rule:nonzero;stroke:none;stroke-width:0.258529;marker:none;enable-background:accumulate"
       d="m 190.21028,191.38761 c -0.0447,0 -0.0727,0.0761 -0.0727,0.16934 v 0.58872 c -0.17963,0.0409 -0.34878,0.11419 -0.5,0.20969 l -0.41937,-0.41936 c -0.0659,-0.0659 -0.13781,-0.0961 -0.16936,-0.0645 l -0.39515,0.39515 c -0.0315,0.0315 -9.5e-4,0.10336 0.0645,0.16936 l 0.41936,0.41937 c -0.0955,0.15122 -0.16877,0.32037 -0.20966,0.49999 h -0.58875 c -0.0933,0 -0.16934,0.028 -0.16934,0.0727 v 0.56453 c 0,0.0447 0.0761,0.0727 0.16934,0.0727 h 0.58875 c 0.0409,0.17962 0.11419,0.34878 0.20966,0.5 l -0.41936,0.41937 c -0.0659,0.0659 -0.0961,0.13781 -0.0645,0.16934 l 0.39515,0.39517 c 0.0315,0.0315 0.10336,9.5e-4 0.16936,-0.0645 l 0.41937,-0.41936 c 0.15122,0.0955 0.32038,0.16879 0.5,0.20969 v 0.58872 c 0,0.0933 0.028,0.16934 0.0727,0.16934 h 0.56452 c 0.0447,0 0.0727,-0.0761 0.0727,-0.16934 v -0.58872 c 0.17963,-0.0409 0.3488,-0.11419 0.50002,-0.20969 l 0.41935,0.41936 c 0.0659,0.0659 0.13781,0.0961 0.16936,0.0645 l 0.39517,-0.39515 c 0.0314,-0.0315 9.3e-4,-0.10336 -0.0645,-0.16935 l -0.41938,-0.41936 c 0.0955,-0.15122 0.16879,-0.32039 0.20968,-0.50002 h 0.58873 c 0.0933,0 0.16934,-0.028 0.16934,-0.0727 v -0.56452 c 0,-0.0447 -0.0761,-0.0727 -0.16934,-0.0727 h -0.58873 c -0.0409,-0.17962 -0.11419,-0.34878 -0.20968,-0.5 l 0.41936,-0.41937 c 0.0659,-0.0659 0.0961,-0.13781 0.0645,-0.16934 l -0.39515,-0.39517 c -0.0315,-0.0315 -0.10336,-9.5e-4 -0.16936,0.0645 l -0.41937,0.41935 c -0.15122,-0.0955 -0.32038,-0.16878 -0.50002,-0.20968 v -0.58872 c 0,-0.0933 -0.028,-0.16934 -0.0727,-0.16934 z m 0.28226,1.60485 c 0.39449,0 0.71775,0.32327 0.71775,0.71775 0,0.39448 -0.32327,0.71775 -0.71775,0.71775 -0.39448,0 -0.71775,-0.32327 -0.71775,-0.71775 0,-0.39448 0.32327,-0.71775 0.71775,-0.71775 z"
       id="path33" />
  </g>
</svg>
