<?xml version="1.0" encoding="UTF-8" standalone="no"?>
<svg
   xmlns:dc="http://purl.org/dc/elements/1.1/"
   xmlns:cc="http://creativecommons.org/ns#"
   xmlns:rdf="http://www.w3.org/1999/02/22-rdf-syntax-ns#"
   xmlns:svg="http://www.w3.org/2000/svg"
   xmlns="http://www.w3.org/2000/svg"
   xmlns:xlink="http://www.w3.org/1999/xlink"
   xmlns:sodipodi="http://sodipodi.sourceforge.net/DTD/sodipodi-0.dtd"
   xmlns:inkscape="http://www.inkscape.org/namespaces/inkscape"
   height="81.96698"
   width="87.418564"
   id="svg1008"
   version="1.1"
   viewBox="0 0 87.418564 81.96698"
   sodipodi:docname="firefox-2019.svg"
   inkscape:version="1.0.1 (3bc2e813f5, 2020-09-07)">
  <sodipodi:namedview
     pagecolor="#ffffff"
     bordercolor="#666666"
     borderopacity="1"
     objecttolerance="10"
     gridtolerance="10"
     guidetolerance="10"
     inkscape:pageopacity="0"
     inkscape:pageshadow="2"
     inkscape:window-width="1920"
     inkscape:window-height="1058"
     id="namedview95"
     showgrid="false"
     inkscape:zoom="7.4621191"
     inkscape:cx="95.220608"
     inkscape:cy="50.732506"
     inkscape:window-x="0"
     inkscape:window-y="22"
     inkscape:window-maximized="1"
     inkscape:current-layer="svg1008"
     inkscape:document-rotation="0" />
  <metadata
     id="metadata1012">
    <rdf:RDF>
      <cc:Work
         rdf:about="">
        <dc:format>image/svg+xml</dc:format>
        <dc:type
           rdf:resource="http://purl.org/dc/dcmitype/StillImage" />
        <dc:title />
      </cc:Work>
    </rdf:RDF>
  </metadata>
  <defs
     id="defs978">
    <linearGradient
       inkscape:collect="always"
       id="linearGradient939">
      <stop
         style="stop-color:#ffffff;stop-opacity:1;"
         offset="0"
         id="stop935" />
      <stop
         style="stop-color:#ffffff;stop-opacity:0;"
         offset="1"
         id="stop937" />
    </linearGradient>
    <linearGradient
       gradientTransform="translate(3.7,-0.0040855)"
       gradientUnits="userSpaceOnUse"
       y2="74.468002"
       x2="6.447"
       y1="12.393"
       x1="70.786003"
       id="a">
      <stop
         id="stop834"
         stop-color="#fff44f"
         offset=".048" />
      <stop
         id="stop836"
         stop-color="#ffe847"
         offset=".111" />
      <stop
         id="stop838"
         stop-color="#ffc830"
         offset=".225" />
      <stop
         id="stop840"
         stop-color="#ff980e"
         offset=".368" />
      <stop
         id="stop842"
         stop-color="#ff8b16"
         offset=".401" />
      <stop
         id="stop844"
         stop-color="#ff672a"
         offset=".462" />
      <stop
         id="stop846"
         stop-color="#ff3647"
         offset=".534" />
      <stop
         id="stop848"
         stop-color="#e31587"
         offset=".705" />
    </linearGradient>
    <radialGradient
       gradientUnits="userSpaceOnUse"
       gradientTransform="translate(7978.7,8523.9959)"
       r="80.796997"
       cy="-8515.1211"
       cx="-7907.187"
       id="b">
      <stop
         id="stop851"
         stop-color="#ffbd4f"
         offset=".129" />
      <stop
         id="stop853"
         stop-color="#ffac31"
         offset=".186" />
      <stop
         id="stop855"
         stop-color="#ff9d17"
         offset=".247" />
      <stop
         id="stop857"
         stop-color="#ff980e"
         offset=".283" />
      <stop
         id="stop859"
         stop-color="#ff563b"
         offset=".403" />
      <stop
         id="stop861"
         stop-color="#ff3750"
         offset=".467" />
      <stop
         id="stop863"
         stop-color="#f5156c"
         offset=".71" />
      <stop
         id="stop865"
         stop-color="#eb0878"
         offset=".782" />
      <stop
         id="stop867"
         stop-color="#e50080"
         offset=".86" />
    </radialGradient>
    <radialGradient
       gradientUnits="userSpaceOnUse"
       gradientTransform="translate(7978.7,8523.9959)"
       r="80.796997"
       cy="-8482.0889"
       cx="-7936.7109"
       id="c">
      <stop
         id="stop870"
         stop-color="#960e18"
         offset=".3" />
      <stop
         id="stop872"
         stop-opacity=".74"
         stop-color="#b11927"
         offset=".351" />
      <stop
         id="stop874"
         stop-opacity=".343"
         stop-color="#db293d"
         offset=".435" />
      <stop
         id="stop876"
         stop-opacity=".094"
         stop-color="#f5334b"
         offset=".497" />
      <stop
         id="stop878"
         stop-opacity="0"
         stop-color="#ff3750"
         offset=".53" />
    </radialGradient>
    <radialGradient
       gradientUnits="userSpaceOnUse"
       gradientTransform="translate(7978.7,8523.9959)"
       r="58.534"
       cy="-8533.457"
       cx="-7926.9702"
       id="d">
      <stop
         id="stop881"
         stop-color="#fff44f"
         offset=".132" />
      <stop
         id="stop883"
         stop-color="#ffdc3e"
         offset=".252" />
      <stop
         id="stop885"
         stop-color="#ff9d12"
         offset=".506" />
      <stop
         id="stop887"
         stop-color="#ff980e"
         offset=".526" />
    </radialGradient>
    <radialGradient
       gradientUnits="userSpaceOnUse"
       gradientTransform="translate(7978.7,8523.9959)"
       r="38.471001"
       cy="-8460.9844"
       cx="-7945.6479"
       id="e">
      <stop
         id="stop890"
         stop-color="#3a8ee6"
         offset=".353" />
      <stop
         id="stop892"
         stop-color="#5c79f0"
         offset=".472" />
      <stop
         id="stop894"
         stop-color="#9059ff"
         offset=".669" />
      <stop
         id="stop896"
         stop-color="#c139e6"
         offset="1" />
    </radialGradient>
    <radialGradient
       gradientUnits="userSpaceOnUse"
       gradientTransform="matrix(0.972,-0.235,0.275,1.138,10095.002,7833.7939)"
       r="20.396999"
       cy="-8491.5459"
       cx="-7935.6201"
       id="f">
      <stop
         id="stop899"
         stop-opacity="0"
         stop-color="#9059ff"
         offset=".206" />
      <stop
         id="stop901"
         stop-opacity=".064"
         stop-color="#8c4ff3"
         offset=".278" />
      <stop
         id="stop903"
         stop-opacity=".45"
         stop-color="#7716a8"
         offset=".747" />
      <stop
         id="stop905"
         stop-opacity=".6"
         stop-color="#6e008b"
         offset=".975" />
    </radialGradient>
    <radialGradient
       gradientUnits="userSpaceOnUse"
       gradientTransform="translate(7978.7,8523.9959)"
       r="27.676001"
       cy="-8518.4268"
       cx="-7937.731"
       id="g">
      <stop
         id="stop908"
         stop-color="#ffe226"
         offset="0" />
      <stop
         id="stop910"
         stop-color="#ffdb27"
         offset=".121" />
      <stop
         id="stop912"
         stop-color="#ffc82a"
         offset=".295" />
      <stop
         id="stop914"
         stop-color="#ffa930"
         offset=".502" />
      <stop
         id="stop916"
         stop-color="#ff7e37"
         offset=".732" />
      <stop
         id="stop918"
         stop-color="#ff7139"
         offset=".792" />
    </radialGradient>
    <radialGradient
       gradientUnits="userSpaceOnUse"
       gradientTransform="translate(7978.7,8523.9959)"
       r="118.081"
       cy="-8535.9814"
       cx="-7915.9771"
       id="h">
      <stop
         id="stop921"
         stop-color="#fff44f"
         offset=".113" />
      <stop
         id="stop923"
         stop-color="#ff980e"
         offset=".456" />
      <stop
         id="stop925"
         stop-color="#ff5634"
         offset=".622" />
      <stop
         id="stop927"
         stop-color="#ff3647"
         offset=".716" />
      <stop
         id="stop929"
         stop-color="#e31587"
         offset=".904" />
    </radialGradient>
    <radialGradient
       gradientUnits="userSpaceOnUse"
       gradientTransform="matrix(0.105,0.995,-0.653,0.069,-4680.304,8470.1869)"
       r="86.499001"
       cy="-8522.8594"
       cx="-7927.165"
       id="i"
       fx="-7927.165"
       fy="-8522.8594"
       fr="0"
       spreadMethod="pad">
      <stop
         id="stop932"
         stop-color="#fff44f"
         offset="0" />
      <stop
         id="stop934"
         stop-color="#ffe847"
         offset=".06" />
      <stop
         id="stop936"
         stop-color="#ffc830"
         offset=".168" />
      <stop
         id="stop938"
         stop-color="#ff980e"
         offset=".304" />
      <stop
         id="stop940"
         stop-color="#ff8b16"
         offset=".356" />
      <stop
         id="stop942"
         stop-color="#ff672a"
         offset=".455" />
      <stop
         id="stop944"
         stop-color="#ff3647"
         offset=".57" />
      <stop
         id="stop946"
         stop-color="#e31587"
         offset=".737" />
    </radialGradient>
    <radialGradient
       gradientUnits="userSpaceOnUse"
       gradientTransform="translate(7978.7,8523.9959)"
       r="73.720001"
       cy="-8508.1758"
       cx="-7938.3828"
       id="j">
      <stop
         id="stop949"
         stop-color="#fff44f"
         offset=".137" />
      <stop
         id="stop951"
         stop-color="#ff980e"
         offset=".48" />
      <stop
         id="stop953"
         stop-color="#ff5634"
         offset=".592" />
      <stop
         id="stop955"
         stop-color="#ff3647"
         offset=".655" />
      <stop
         id="stop957"
         stop-color="#e31587"
         offset=".904" />
    </radialGradient>
    <radialGradient
       gradientUnits="userSpaceOnUse"
       gradientTransform="translate(7978.7,8523.9959)"
       r="80.685997"
       cy="-8503.8613"
       cx="-7918.9229"
       id="k">
      <stop
         id="stop960"
         stop-color="#fff44f"
         offset=".094" />
      <stop
         id="stop962"
         stop-color="#ffe141"
         offset=".231" />
      <stop
         id="stop964"
         stop-color="#ffaf1e"
         offset=".509" />
      <stop
         id="stop966"
         stop-color="#ff980e"
         offset=".626" />
    </radialGradient>
    <linearGradient
       gradientTransform="matrix(0.97773767,0,0,0.97773767,4.5907,0.88613124)"
       gradientUnits="userSpaceOnUse"
       y2="66.806"
       x2="15.267"
       y1="12.061"
       x1="70.013"
       id="l">
      <stop
         id="stop969"
         stop-opacity=".8"
         stop-color="#fff44f"
         offset=".167" />
      <stop
         id="stop971"
         stop-opacity=".634"
         stop-color="#fff44f"
         offset=".266" />
      <stop
         id="stop973"
         stop-opacity=".217"
         stop-color="#fff44f"
         offset=".489" />
      <stop
         id="stop975"
         stop-opacity="0"
         stop-color="#fff44f"
         offset=".6" />
    </linearGradient>
    <radialGradient
       inkscape:collect="always"
       xlink:href="#linearGradient939"
       id="radialGradient941"
       cx="55.829746"
       cy="25.971127"
       fx="55.829746"
       fy="25.971127"
       r="18.80261"
       gradientTransform="matrix(-0.55896909,0.14977532,-0.14823502,-0.55322063,86.321894,35.361746)"
       gradientUnits="userSpaceOnUse" />
    <radialGradient
       inkscape:collect="always"
       xlink:href="#linearGradient939"
       id="radialGradient1189"
       gradientUnits="userSpaceOnUse"
       gradientTransform="matrix(-1.1723236,0.31412316,-0.3108927,-1.1602674,124.78972,41.951936)"
       cx="55.829746"
       cy="25.971127"
       fx="55.829746"
       fy="25.971127"
       r="18.80261" />
    <filter
       inkscape:collect="always"
       style="color-interpolation-filters:sRGB"
       id="filter1551"
       x="-0.053929152"
       width="1.1078583"
       y="-0.05448952"
       height="1.108979">
      <feGaussianBlur
         inkscape:collect="always"
         stdDeviation="0.84500736"
         id="feGaussianBlur1553" />
    </filter>
  </defs>
  <path
     style="fill:#ffffff;stroke-width:0.977738"
     id="path984"
     d="m 78.816633,27.119811 c -1.646511,-3.961793 -4.986462,-8.239395 -7.601911,-9.591606 a 39.369585,39.369585 0 0 1 3.837621,11.502105 v 0.03618 l 0.0068,0.04009 A 34.318592,34.318592 0 0 1 73.880035,54.682236 C 69.536924,64.001054 59.024289,73.552573 42.568964,73.088147 24.788805,72.584612 9.130336,59.39102 6.2029894,42.110485 c -0.532867,-2.724955 0,-4.106498 0.2679001,-6.321074 A 28.233153,28.233153 0 0 0 5.861759,41.018352 v 0.195547 a 37.896134,37.896134 0 0 0 75.240824,6.408093 c 0.06355,-0.488869 0.115373,-0.972849 0.172082,-1.466606 A 38.96969,38.96969 0 0 0 78.816633,27.119811 Z" />
  <path
     style="fill:#ececec;stroke-width:0.977738"
     id="path982"
     d="m 78.816633,27.119811 c -1.646511,-3.961793 -4.986462,-8.239395 -7.601911,-9.591606 a 39.369585,39.369585 0 0 1 3.837621,11.502105 v 0.03618 l 0.0068,0.04009 A 34.318592,34.318592 0 0 1 73.880035,54.682236 C 69.536924,64.001054 59.024289,73.552573 42.568964,73.088147 24.788805,72.584612 9.130336,59.39102 6.2029894,42.110485 c -0.532867,-2.724955 0,-4.106498 0.2679001,-6.321074 A 28.233153,28.233153 0 0 0 5.861759,41.018352 v 0.195547 a 37.896134,37.896134 0 0 0 75.240824,6.408093 c 0.06355,-0.488869 0.115373,-0.972849 0.172082,-1.466606 A 38.96969,38.96969 0 0 0 78.816633,27.119811 Z" />
  <path
     style="fill:url(#l);stroke-width:0.977738"
     id="path1002"
     d="m 78.816633,27.119811 c -1.646511,-3.961793 -4.986462,-8.239395 -7.601911,-9.591606 a 39.369585,39.369585 0 0 1 3.837621,11.502105 l 0.0068,0.06355 C 70.77474,18.412079 63.509172,14.105145 57.575282,4.7266848 57.275116,4.252482 56.974951,3.7773015 56.682607,3.2757221 56.515414,2.989245 56.381464,2.7311222 56.265113,2.493532 a 6.8959838,6.8959838 0 0 1 -0.565132,-1.50082735 0.09777377,0.09777377 0 0 0 -0.08604,-0.0977738 0.1349278,0.1349278 0 0 0 -0.07137,0 c -0.0049,0 -0.01271,0.0088 -0.01858,0.0107551 -0.0059,0.001955 -0.01858,0.0107551 -0.02738,0.0146661 l 0.01467,-0.0254212 C 45.993001,6.4680356 42.763534,16.785124 42.466302,21.945623 c 0.441937,-0.03031 0.879964,-0.06746 1.331678,-0.06746 a 19.124549,19.124549 0 0 1 16.603941,9.696225 13.08213,13.08213 0 0 0 -9.136958,-2.218487 c 13.629663,6.814832 9.972924,30.282491 -8.91599,29.396661 a 16.851309,16.851309 0 0 1 -4.930731,-0.951339 q -0.556333,-0.208258 -1.112665,-0.455626 c -0.214125,-0.09777 -0.428249,-0.195547 -0.639441,-0.305054 l 0.0264,0.01662 q -0.275722,-0.131995 -0.551444,-0.274745 c 0.176971,0.08506 0.343186,0.176971 0.525045,0.258123 -4.627632,-2.391546 -8.448631,-6.912605 -8.925767,-12.401624 0,0 1.749173,-6.518577 12.52482,-6.518577 1.164485,0 4.497593,-3.250978 4.557235,-4.193517 -0.01467,-0.307988 -6.609507,-2.933213 -9.180957,-5.465554 -1.373721,-1.354167 -2.025872,-2.006318 -2.603715,-2.496164 a 11.329046,11.329046 0 0 0 -0.977738,-0.741125 17.56799,17.56799 0 0 1 -0.106573,-9.262109 28.06596,28.06596 0 0 0 -9.121315,7.049488 h -0.0176 c -1.501805,-1.903655 -1.39621,-8.180731 -1.310169,-9.491877 a 6.7737665,6.7737665 0 0 0 -1.265192,0.671706 27.596646,27.596646 0 0 0 -3.703671,3.172759 33.091531,33.091531 0 0 0 -3.542343,4.250225 v 0.0059 -0.0068 A 32.004287,32.004287 0 0 0 6.908916,33.094766 l -0.050842,0.250301 c -0.071375,0.333408 -0.391095,2.02685 -0.4370487,2.390568 0,0.02738 0,-0.02835 0,0 A 44.090102,44.090102 0 0 0 5.861759,41.018352 v 0.195547 a 37.896134,37.896134 0 0 0 75.240824,6.408093 c 0.06355,-0.488869 0.115373,-0.972849 0.172082,-1.466606 A 38.96969,38.96969 0 0 0 78.816633,27.119811 Z m -3.759402,1.946676 0.0068,0.04009 z" />
  <path
     style="fill:#ffffff;stroke-width:0.977738"
     id="path980"
     d="m 78.816633,27.119811 c -1.646511,-3.961793 -4.986462,-8.239395 -7.601911,-9.591606 a 39.369585,39.369585 0 0 1 3.837621,11.502105 l 0.0068,0.06355 C 70.77474,18.412079 63.509172,14.105145 57.575282,4.7266848 57.275116,4.252482 56.974951,3.7773015 56.682607,3.2757221 56.515414,2.989245 56.381464,2.7311222 56.265113,2.493532 a 6.8959838,6.8959838 0 0 1 -0.565132,-1.50082735 0.09777377,0.09777377 0 0 0 -0.08604,-0.0977738 0.1349278,0.1349278 0 0 0 -0.07137,0 c -0.0049,0 -0.01271,0.0088 -0.01858,0.0107551 -0.0059,0.001955 -0.01858,0.0107551 -0.02738,0.0146661 l 0.01467,-0.0254212 C 45.993001,6.4680356 42.763534,16.785124 42.466302,21.945623 a 18.9554,18.9554 0 0 0 -10.42855,4.01948 11.329046,11.329046 0 0 0 -0.977738,-0.741125 17.56799,17.56799 0 0 1 -0.106573,-9.262109 28.06596,28.06596 0 0 0 -9.121315,7.049488 h -0.0176 c -1.501805,-1.903655 -1.39621,-8.180731 -1.310169,-9.491877 a 6.7737665,6.7737665 0 0 0 -1.265192,0.671706 27.596646,27.596646 0 0 0 -3.703671,3.172759 33.091531,33.091531 0 0 0 -3.542343,4.250225 v 0.0059 -0.0068 A 32.004287,32.004287 0 0 0 6.908916,33.094766 l -0.050842,0.250301 c -0.071375,0.333408 -0.3285198,2.003384 -0.372518,2.366125 0,0.02835 -0.00587,0.05475 -0.0088,0.08311 a 36.114696,36.114696 0 0 0 -0.614997,5.224052 v 0.195547 a 37.896134,37.896134 0 0 0 75.240824,6.408093 c 0.06355,-0.488869 0.115373,-0.972849 0.172082,-1.466606 A 38.96969,38.96969 0 0 0 78.816633,27.119811 Z M 35.141091,56.782416 c 0.176971,0.08506 0.343186,0.176971 0.525045,0.258123 l 0.0264,0.01662 Q 35.416813,56.925166 35.141091,56.782416 Z M 43.821446,33.926821 Z M 75.06212,29.102663 v -0.03618 l 0.0068,0.04009 z" />
  <ellipse
     style="opacity:1;fill:#1a1a1a;fill-opacity:1;stroke-width:0.911716"
     id="path4768"
     cy="40.484623"
     cx="44.089363"
     ry="18.609245"
     rx="18.80261" />
  <ellipse
     style="opacity:1;fill:url(#radialGradient941);fill-opacity:1;stroke-width:0.911716;filter:url(#filter1551)"
     id="ellipse923"
     cy="40.484623"
     cx="44.089363"
     ry="18.609245"
     rx="18.80261" />
  <ellipse
     style="opacity:1;fill:url(#radialGradient1189);fill-opacity:1;stroke-width:0.911716"
     id="ellipse1183"
     cy="40.484623"
     cx="44.089363"
     ry="18.609245"
     rx="18.80261" />
  <path
     style="fill:#dadada;fill-opacity:1;stroke-width:0.977738"
     id="path986"
     d="m 60.401921,31.574384 c 0.08213,0.05769 0.158394,0.115373 0.235635,0.173059 A 20.630265,20.630265 0 0 0 57.117701,27.156965 C 45.339873,15.377182 54.030983,1.6155235 55.496612,0.91644111 l 0.01467,-0.0215102 C 45.993001,6.4680356 42.763534,16.785124 42.466302,21.945623 c 0.441937,-0.03031 0.879964,-0.06746 1.331678,-0.06746 a 19.124549,19.124549 0 0 1 16.603941,9.696225 z" />
  <path
     style="fill:#b3b3b3;stroke-width:0.977738"
     id="path992"
     d="m 30.27098,24.704799 c 0.307009,0.195548 0.560243,0.365674 0.78219,0.519179 a 17.56799,17.56799 0 0 1 -0.106573,-9.262109 28.06596,28.06596 0 0 0 -9.121315,7.049488 c 0.184792,-0.0049 5.681633,-0.10364 8.445698,1.693442 z" />
  <path
     style="fill:#ffffff;stroke-width:0.977738"
     id="path994"
     d="M 6.2078781,42.110485 C 9.1322915,59.39102 24.793693,72.584612 42.573853,73.088147 59.029178,73.553551 69.541813,64.001054 73.884924,54.682236 a 34.318592,34.318592 0 0 0 1.179151,-25.575662 v -0.03618 c 0,-0.02836 -0.0059,-0.04498 0,-0.03618 l 0.0068,0.06355 C 76.415264,37.874915 71.950914,46.3783 64.971822,52.128375 l -0.02151,0.04889 C 51.351982,63.252106 38.338293,58.859131 35.704268,57.06596 Q 35.428546,56.933966 35.152824,56.791216 C 27.224349,53.001505 23.948928,45.777979 24.650944,39.583033 a 9.731423,9.731423 0 0 1 -8.97661,-5.646435 14.292569,14.292569 0 0 1 13.931784,-0.559266 18.870337,18.870337 0 0 0 14.228039,0.559266 C 43.819491,33.628611 37.22465,31.003385 34.6532,28.471044 33.279479,27.116878 32.627328,26.464727 32.049485,25.97488 a 11.329046,11.329046 0 0 0 -0.977738,-0.741125 c -0.22488,-0.153505 -0.478114,-0.31972 -0.78219,-0.519179 -2.764065,-1.797081 -8.260906,-1.69833 -8.442765,-1.693441 h -0.0176 c -1.501805,-1.903655 -1.39621,-8.180731 -1.310169,-9.491878 a 6.7737665,6.7737665 0 0 0 -1.265192,0.671706 27.596646,27.596646 0 0 0 -3.703671,3.172759 33.091531,33.091531 0 0 0 -3.557009,4.240448 v 0.0059 -0.0068 A 32.004287,32.004287 0 0 0 6.908916,33.094766 c -0.018577,0.07724 -1.3649218,5.963222 -0.7010379,9.015719 z" />
  <path
     style="fill:#f9f9f9;fill-opacity:1;stroke-width:0.977738"
     id="path996"
     d="m 57.119656,27.156965 a 20.630265,20.630265 0 0 1 3.519856,4.595367 c 0.208258,0.157416 0.402828,0.313854 0.568065,0.465403 8.591381,7.919675 4.089877,19.114772 3.754513,19.911628 C 71.941181,46.379288 76.401621,37.875903 75.061142,29.098752 70.77474,18.412079 63.509172,14.105145 57.575282,4.7266848 57.275116,4.252482 56.974951,3.7773015 56.682607,3.2757221 56.515414,2.989245 56.381464,2.7311222 56.265113,2.493532 a 6.8959838,6.8959838 0 0 1 -0.565132,-1.50082735 0.09777377,0.09777377 0 0 0 -0.08604,-0.0977738 0.1349278,0.1349278 0 0 0 -0.07137,0 c -0.0049,0 -0.01271,0.0088 -0.01858,0.0107551 -0.0059,0.001955 -0.01858,0.0107551 -0.02738,0.0146661 C 54.030983,1.6155235 45.339873,15.377182 57.119656,27.156965 Z" />
  <path
     style="fill:#d4d4d4;stroke-width:0.977738;fill-opacity:1"
     id="path998"
     d="m 61.201711,32.212847 c -0.165238,-0.15155 -0.359808,-0.307988 -0.568066,-0.465404 -0.07724,-0.05769 -0.153505,-0.115373 -0.235635,-0.173059 a 13.08213,13.08213 0 0 0 -9.136958,-2.218487 c 13.629663,6.814832 9.972924,30.282491 -8.91599,29.396661 a 16.851309,16.851309 0 0 1 -4.930731,-0.951339 q -0.556333,-0.208258 -1.112665,-0.455626 c -0.214125,-0.09777 -0.428249,-0.195547 -0.639441,-0.305054 l 0.0264,0.01662 c 2.634025,1.798059 15.643803,6.191035 29.246089,-4.888689 l 0.02151,-0.04889 c 0.339275,-0.791967 4.84078,-11.989997 -3.754512,-19.906738 z" />
  <path
     style="fill:#b3b3b3;stroke-width:0.977738"
     id="path1000"
     d="m 26.740369,44.638915 c 0,0 1.749173,-6.518577 12.52482,-6.518577 1.164485,0 4.497593,-3.250978 4.557235,-4.193517 a 18.870337,18.870337 0 0 1 -14.228039,-0.559266 14.292569,14.292569 0 0 0 -13.931784,0.559266 9.731423,9.731423 0 0 0 8.97661,5.646435 c -0.702016,6.195923 2.573405,13.419449 10.50188,17.208183 0.176971,0.08506 0.343186,0.17697 0.525045,0.258122 -4.627632,-2.390568 -8.448631,-6.911627 -8.925767,-12.400646 z" />
  <path
     style="fill:#f9f9f9;fill-opacity:1;stroke-width:0.977738"
     id="path927"
     d="m 57.119656,27.156965 a 20.630265,20.630265 0 0 1 3.519856,4.595367 c 0.208258,0.157416 0.402828,0.313854 0.568065,0.465403 8.591381,7.919675 4.089877,19.114772 3.754513,19.911628 C 71.941181,46.379288 76.401621,37.875903 75.061142,29.098752 70.77474,18.412079 63.509172,14.105145 57.575282,4.7266848 57.275116,4.252482 56.974951,3.7773015 56.682607,3.2757221 56.515414,2.989245 56.381464,2.7311222 56.265113,2.493532 a 6.8959838,6.8959838 0 0 1 -0.565132,-1.50082735 0.09777377,0.09777377 0 0 0 -0.08604,-0.0977738 0.1349278,0.1349278 0 0 0 -0.07137,0 c -0.0049,0 -0.01271,0.0088 -0.01858,0.0107551 -0.0059,0.001955 -0.01858,0.0107551 -0.02738,0.0146661 C 54.030983,1.6155235 45.339873,15.377182 57.119656,27.156965 Z" />
</svg>
