<?xml version="1.0" encoding="UTF-8" standalone="no"?>
<svg
   xmlns:dc="http://purl.org/dc/elements/1.1/"
   xmlns:cc="http://creativecommons.org/ns#"
   xmlns:rdf="http://www.w3.org/1999/02/22-rdf-syntax-ns#"
   xmlns:svg="http://www.w3.org/2000/svg"
   xmlns="http://www.w3.org/2000/svg"
   xmlns:xlink="http://www.w3.org/1999/xlink"
   xmlns:sodipodi="http://sodipodi.sourceforge.net/DTD/sodipodi-0.dtd"
   xmlns:inkscape="http://www.inkscape.org/namespaces/inkscape"
   height="48"
   width="48"
   version="1.1"
   id="svg43"
   sodipodi:docname="firewall-config.svg"
   inkscape:version="1.0.1 (3bc2e813f5, 2020-09-07)">
  <metadata
     id="metadata49">
    <rdf:RDF>
      <cc:Work
         rdf:about="">
        <dc:format>image/svg+xml</dc:format>
        <dc:type
           rdf:resource="http://purl.org/dc/dcmitype/StillImage" />
      </cc:Work>
    </rdf:RDF>
  </metadata>
  <defs
     id="defs47" />
  <sodipodi:namedview
     pagecolor="#ffffff"
     bordercolor="#666666"
     borderopacity="1"
     objecttolerance="10"
     gridtolerance="10"
     guidetolerance="10"
     inkscape:pageopacity="0"
     inkscape:pageshadow="2"
     inkscape:window-width="1920"
     inkscape:window-height="480"
     id="namedview45"
     showgrid="false"
     inkscape:zoom="3.1819805"
     inkscape:cx="7.2236858"
     inkscape:cy="35.604368"
     inkscape:window-x="0"
     inkscape:window-y="22"
     inkscape:window-maximized="0"
     inkscape:current-layer="svg43" />
  <linearGradient
     id="a">
    <stop
       offset="0"
       stop-color="#4d4d4d"
       id="stop2" />
    <stop
       offset="1"
       stop-color="#536161"
       id="stop4" />
  </linearGradient>
  <linearGradient
     id="b"
     gradientUnits="userSpaceOnUse"
     x1="24"
     x2="24"
     y1="44"
     y2="4">
    <stop
       offset="0"
       stop-color="#afb0b3"
       id="stop7" />
    <stop
       offset="1"
       stop-color="#bdc3c7"
       id="stop9" />
  </linearGradient>
  <linearGradient
     id="d"
     gradientUnits="userSpaceOnUse"
     x1="24"
     x2="24"
     y1="32.602"
     y2="15.721"
     gradientTransform="matrix(1.9428091,0,0,1.9428091,-22.627417,-22.627417)">
    <stop
       offset="0"
       stop-color="#eff1f1"
       id="stop12" />
    <stop
       offset="1"
       stop-color="#fcfcfc"
       id="stop14" />
  </linearGradient>
  <linearGradient
     id="g"
     gradientUnits="userSpaceOnUse"
     x1="24"
     x2="24"
     xlink:href="#a"
     y1="31.214"
     y2="17.22"
     gradientTransform="matrix(1.9428091,0,0,1.9428091,-22.627417,-22.627417)" />
  <linearGradient
     id="e"
     gradientUnits="userSpaceOnUse"
     x1="24"
     x2="24"
     xlink:href="#a"
     y1="34"
     y2="14" />
  <linearGradient
     id="f"
     gradientUnits="userSpaceOnUse"
     x1="24"
     x2="42"
     y1="26"
     y2="44">
    <stop
       offset="0"
       stop-color="#232629"
       id="stop19" />
    <stop
       offset="1"
       stop-opacity="0"
       id="stop21" />
  </linearGradient>
  <linearGradient
     id="c"
     gradientUnits="userSpaceOnUse"
     x1="24"
     x2="24"
     y1="43"
     y2="5">
    <stop
       offset="0"
       stop-color="#c0392b"
       id="stop24" />
    <stop
       offset="1"
       stop-color="#e74c3c"
       id="stop26" />
  </linearGradient>
  <g
     id="g877"
     transform="translate(0,-4.5719096)">
    <path
       d="M 7.0004208,14.285955 24,7.0004208 40.999579,14.285955 V 24 l -7.285534,9.714045 -7.285533,7.285534 H 21.571488 L 14.285955,33.714045 7.0004208,24 Z"
       fill="url(#d)"
       id="path33"
       style="fill:url(#d);stroke-width:1.9428" />
    <path
       d="m 24,4.5719096 c 0,0 -4.857023,6.4559544 -19.4280904,8.0743144 0,0 0,22.666753 19.4280904,30.781866 C 43.42809,35.312977 43.42809,12.646224 43.42809,12.646224 28.857023,11.027864 24,4.5719096 24,4.5719096 Z m 0,3.3416315 c 3.854534,3.2678049 9.414852,5.4456929 16.624617,6.5433809 -0.392447,3.508713 -0.767409,6.150934 -1.674701,8.703785 -1.905896,5.366038 -4.130412,8.626071 -6.123734,10.974927 C 29.737115,37.772573 26.931698,39.245222 24,40.712043 21.068302,39.247165 18.262885,37.772573 15.173818,34.135634 13.180496,31.788722 10.957923,28.526745 9.0500844,23.160707 8.1427926,20.607856 7.7678305,17.965635 7.3753831,14.456922 14.585148,13.359234 20.145466,11.181346 24,7.915484 Z"
       fill="url(#e)"
       id="path37"
       style="fill:#ffffff;stroke-width:1.9428" />
    <path
       d="M 24,10.827755 C 19.764676,13.767225 15.00868,15.257359 10.235198,16.26762 12.496628,29.095988 17.365308,34.580538 24,38.015425 30.634692,34.580538 35.503372,29.095988 37.764802,16.269562 32.99132,15.255416 28.233381,13.767225 24,10.829698 Z"
       fill="url(#g)"
       id="path41"
       style="fill:url(#g);stroke-width:1.9428" />
  </g>
</svg>
