<?xml version="1.0" encoding="UTF-8" standalone="no"?>
<svg
   xmlns:dc="http://purl.org/dc/elements/1.1/"
   xmlns:cc="http://creativecommons.org/ns#"
   xmlns:rdf="http://www.w3.org/1999/02/22-rdf-syntax-ns#"
   xmlns:svg="http://www.w3.org/2000/svg"
   xmlns="http://www.w3.org/2000/svg"
   xmlns:sodipodi="http://sodipodi.sourceforge.net/DTD/sodipodi-0.dtd"
   xmlns:inkscape="http://www.inkscape.org/namespaces/inkscape"
   height="16"
   width="16"
   version="1.1"
   id="svg6"
   sodipodi:docname="icons.svg"
   inkscape:version="1.0.1 (3bc2e813f5, 2020-09-07)">
  <metadata
     id="metadata10">
    <rdf:RDF>
      <cc:Work
         rdf:about="">
        <dc:format>image/svg+xml</dc:format>
        <dc:type
           rdf:resource="http://purl.org/dc/dcmitype/StillImage" />
        <dc:title></dc:title>
      </cc:Work>
    </rdf:RDF>
  </metadata>
  <sodipodi:namedview
     pagecolor="#ffffff"
     bordercolor="#666666"
     borderopacity="1"
     objecttolerance="10"
     gridtolerance="10"
     guidetolerance="10"
     inkscape:pageopacity="0"
     inkscape:pageshadow="2"
     inkscape:window-width="1366"
     inkscape:window-height="743"
     id="namedview8"
     showgrid="false"
     inkscape:zoom="23.305838"
     inkscape:cx="0.88375237"
     inkscape:cy="11.847759"
     inkscape:window-x="0"
     inkscape:window-y="25"
     inkscape:window-maximized="1"
     inkscape:current-layer="svg6"
     inkscape:document-rotation="0" />
  <defs
     id="defs1">
    <style
       type="text/css"
       id="current-color-scheme">
            .ColorScheme-Text {
                color:#eff0f1;
            }
        </style>
  </defs>
  <path
     style="color:#565656;fill:#ffffff"
     class="ColorScheme-Text"
     d="M 6.5,0.99999995 C 5.6977,0.99999995 5,1.6468188 5,2.4492188 V 4 H 1.9648438 C 1.4299438,4 1,4.3264281 1,4.8613281 V 8 h 1.4492188 c 0.8022999,0 1.5507813,0.6977 1.5507813,1.5 0,0.802 -0.7484812,1.5 -1.5507812,1.5 H 1 v 3.033203 C 1,14.568203 1.4299437,15 1.9648439,15 H 5 V 14.033203 C 5,13.231203 5.0175,12.041 6.5,12 7.9825,11.959 8,13.291203 8,14.033203 V 15 h 3.138672 C 11.673672,15 12,14.568203 12,14.033203 V 11 h 1.552734 C 14.354734,11 15,10.302 15,9.5 15,8.6977 14.345734,8.1233 13.552734,8 H 12 V 4.8613281 C 12,4.3264281 11.673672,4 11.138672,4 H 8 V 2.4492188 C 8,1.6468187 7.3023,0.99999995 6.5,0.99999995 Z"
     id="path5" />
</svg>
