<?xml version="1.0" encoding="UTF-8" standalone="no"?>
<svg
   xmlns:dc="http://purl.org/dc/elements/1.1/"
   xmlns:cc="http://creativecommons.org/ns#"
   xmlns:rdf="http://www.w3.org/1999/02/22-rdf-syntax-ns#"
   xmlns:svg="http://www.w3.org/2000/svg"
   xmlns="http://www.w3.org/2000/svg"
   xmlns:sodipodi="http://sodipodi.sourceforge.net/DTD/sodipodi-0.dtd"
   xmlns:inkscape="http://www.inkscape.org/namespaces/inkscape"
   width="24"
   height="24"
   viewBox="0 0 24 24"
   version="1.1"
   id="svg7"
   sodipodi:docname="kmenuedit.svg"
   inkscape:version="1.0.1 (3bc2e813f5, 2020-09-07)">
  <metadata
     id="metadata11">
    <rdf:RDF>
      <cc:Work
         rdf:about="">
        <dc:format>image/svg+xml</dc:format>
        <dc:type
           rdf:resource="http://purl.org/dc/dcmitype/StillImage" />
        <dc:title></dc:title>
      </cc:Work>
    </rdf:RDF>
  </metadata>
  <sodipodi:namedview
     pagecolor="#ffffff"
     bordercolor="#666666"
     borderopacity="1"
     objecttolerance="10"
     gridtolerance="10"
     guidetolerance="10"
     inkscape:pageopacity="0"
     inkscape:pageshadow="2"
     inkscape:window-width="1366"
     inkscape:window-height="743"
     id="namedview9"
     showgrid="false"
     inkscape:zoom="23.166667"
     inkscape:cx="12"
     inkscape:cy="12"
     inkscape:window-x="0"
     inkscape:window-y="25"
     inkscape:window-maximized="1"
     inkscape:current-layer="svg7" />
  <defs
     id="defs3">
    <style
       id="current-color-scheme"
       type="text/css">
   .ColorScheme-Text { color:#565656; } .ColorScheme-Highlight { color:#5294e2; }
  </style>
  </defs>
  <path
     style="fill:#ffffff;stroke:none;stroke-width:1.26997"
     class="ColorScheme-Text"
     d="m 6.9848547,6.220368 c -1.0188994,0 -1.9049601,0.821443 -1.9049601,1.84047 v 1.969451 H 1.2253262 C 0.5460173,10.030289 0,10.444844 0,11.124153 v 3.986031 h 1.8404697 c 1.0188997,0 1.9694513,0.886061 1.9694513,1.904961 0,1.018518 -0.9505514,1.90496 -1.9694513,1.90496 H 0 v 3.852088 C 0,23.451629 0.5460172,24 1.2253262,24 h 3.8545684 v -1.227807 c 0,-1.018519 0.022225,-2.530046 1.9049601,-2.582114 1.882736,-0.05207 1.904961,1.639794 1.904961,2.582114 V 24 h 3.9860313 c 0.679436,0 1.093864,-0.548371 1.093864,-1.227807 v -3.852088 h 1.971931 c 1.018519,0 1.83799,-0.886442 1.83799,-1.90496 0,-1.0189 -0.830901,-1.748374 -1.83799,-1.904961 h -1.971931 v -3.986031 c 0,-0.679309 -0.414428,-1.093864 -1.093864,-1.093864 H 8.8898157 V 8.060838 c 0,-1.019027 -0.886061,-1.84047 -1.904961,-1.84047 z"
     id="path5" />
  <path
     style="color:#565656;fill:#ffffff;stroke-width:0.830675"
     class="ColorScheme-Text"
     d="m 14.870314,1.2636504 -1.078905,0.6230066 0.280678,0.5954256 a 1.9579852,1.9579852 0 0 0 -0.32935,0.5727118 l -0.657077,0.055162 v 1.2460133 l 0.657077,0.055162 a 1.9579852,1.9579852 0 0 0 0.139528,0.3017693 1.9579852,1.9579852 0 0 0 0.189822,0.2725654 l -0.280678,0.5938032 1.078905,0.6246293 0.3764,-0.5418863 a 1.9579852,1.9579852 0 0 0 0.660322,-0.00162 l 0.3764,0.5435086 1.078905,-0.6230068 -0.280677,-0.597048 A 1.9579852,1.9579852 0 0 0 17.412635,4.4111318 L 18.069713,4.35597 V 3.1099567 l -0.657078,-0.05354 A 1.9579852,1.9579852 0 0 0 17.273109,2.754648 1.9579852,1.9579852 0 0 0 17.081664,2.4820826 L 17.362341,1.886657 16.283436,1.2636504 15.908658,1.803914 a 1.9579852,1.9579852 0 0 0 -0.661944,0.00162 z m 0.689526,1.7586958 a 0.71200519,0.71200519 0 0 1 0.634363,0.3553084 0.71200519,0.71200519 0 0 1 -0.261208,0.9718255 0.71200519,0.71200519 0 0 1 -0.971826,-0.2595861 0.71200519,0.71200519 0 0 1 0.259586,-0.9734479 0.71200519,0.71200519 0 0 1 0.339085,-0.0941 z m 2.276246,2.33303 -0.09086,1.095129 a 3.2633917,3.2633917 0 0 0 -0.953978,0.5516201 l -0.99454,-0.4688773 -1.038344,1.7992564 0.902061,0.6262512 a 3.2633917,3.2633917 0 0 0 -0.04867,0.5499984 3.2633917,3.2633917 0 0 0 0.04705,0.553243 l -0.900439,0.624628 1.038344,1.799257 0.991294,-0.467255 a 3.2633917,3.2633917 0 0 0 0.957224,0.548375 l 0.09086,1.09513 h 2.07669 l 0.09086,-1.093507 a 3.2633917,3.2633917 0 0 0 0.953978,-0.55162 l 0.99454,0.468877 1.038344,-1.799257 -0.902062,-0.626251 a 3.2633917,3.2633917 0 0 0 0.0503,-0.55162 3.2633917,3.2633917 0 0 0 -0.04867,-0.5516207 L 22.990501,8.3325044 21.952157,6.533248 20.960862,7.000503 A 3.2633917,3.2633917 0 0 0 20.005252,6.4521276 L 19.912774,5.3553762 Z M 18.87443,8.3227697 A 1.186703,1.186703 0 0 1 20.062036,9.508754 1.186703,1.186703 0 0 1 18.87443,10.69636 1.186703,1.186703 0 0 1 17.688446,9.508754 1.186703,1.186703 0 0 1 18.87443,8.3227697 Z"
     id="path5-3" />
</svg>
