<?xml version="1.0" encoding="UTF-8" standalone="no"?>
<svg
   xmlns:dc="http://purl.org/dc/elements/1.1/"
   xmlns:cc="http://creativecommons.org/ns#"
   xmlns:rdf="http://www.w3.org/1999/02/22-rdf-syntax-ns#"
   xmlns:svg="http://www.w3.org/2000/svg"
   xmlns="http://www.w3.org/2000/svg"
   xmlns:sodipodi="http://sodipodi.sourceforge.net/DTD/sodipodi-0.dtd"
   xmlns:inkscape="http://www.inkscape.org/namespaces/inkscape"
   viewBox="0 0 24 24"
   version="1.1"
   id="svg9"
   sodipodi:docname="mail.svg"
   inkscape:version="1.0.1 (3bc2e813f5, 2020-09-07)">
  <metadata
     id="metadata13">
    <rdf:RDF>
      <cc:Work
         rdf:about="">
        <dc:format>image/svg+xml</dc:format>
        <dc:type
           rdf:resource="http://purl.org/dc/dcmitype/StillImage" />
      </cc:Work>
    </rdf:RDF>
  </metadata>
  <sodipodi:namedview
     pagecolor="#ffffff"
     bordercolor="#666666"
     borderopacity="1"
     objecttolerance="10"
     gridtolerance="10"
     guidetolerance="10"
     inkscape:pageopacity="0"
     inkscape:pageshadow="2"
     inkscape:window-width="1920"
     inkscape:window-height="1058"
     id="namedview11"
     showgrid="false"
     inkscape:zoom="36"
     inkscape:cx="12"
     inkscape:cy="10.888889"
     inkscape:window-x="0"
     inkscape:window-y="22"
     inkscape:window-maximized="1"
     inkscape:current-layer="svg9" />
  <defs
     id="defs3051">
    <style
       type="text/css"
       id="current-color-scheme">
      .ColorScheme-Text {
        color:#eff0f1;
      }
      </style>
  </defs>
  <g
     transform="matrix(0.95138889,0,0,0.95138889,1.5347222,-2.8541667)"
     id="g7"
     style="fill:#ffffff">
    <g
       transform="translate(-421.71429,-525.79074)"
       id="g5"
       style="fill:#ffffff">
      <path
         style="opacity:1;fill:#ffffff;fill-opacity:1;stroke:none"
         d="m 422.71429,528.79074 v 1 14 0.41406 0.58594 h 1 19 v -0.58594 -0.41406 -1 -14 h -0.0488 -0.95117 -17.53711 -0.46289 -1 z m 1,1 h 0.0488 l 5.97461,5.97656 -6.02344,6.02344 v -12 z m 1.46289,0 h 15.07422 l -7.53711,7.53711 z m 16.48828,0 h 0.0488 v 12 l -6.02344,-6.02344 5.97461,-5.97656 z m -11.2207,6.68359 2.26953,2.26758 2.26953,-2.26758 6.26758,6.26758 0.46289,0.46289 v 0.58594 h -18 v -0.58594 l 0.46289,-0.46289 z"
         id="rect4144"
         class="ColorScheme-Text" />
    </g>
  </g>
</svg>
