<?xml version="1.0" encoding="UTF-8" standalone="no"?>
<svg
   xmlns:dc="http://purl.org/dc/elements/1.1/"
   xmlns:cc="http://creativecommons.org/ns#"
   xmlns:rdf="http://www.w3.org/1999/02/22-rdf-syntax-ns#"
   xmlns:svg="http://www.w3.org/2000/svg"
   xmlns="http://www.w3.org/2000/svg"
   xmlns:sodipodi="http://sodipodi.sourceforge.net/DTD/sodipodi-0.dtd"
   xmlns:inkscape="http://www.inkscape.org/namespaces/inkscape"
   height="24"
   width="24"
   version="1.1"
   id="svg7"
   sodipodi:docname="mouse.svg"
   inkscape:version="1.0.1 (3bc2e813f5, 2020-09-07)">
  <metadata
     id="metadata13">
    <rdf:RDF>
      <cc:Work
         rdf:about="">
        <dc:format>image/svg+xml</dc:format>
        <dc:type
           rdf:resource="http://purl.org/dc/dcmitype/StillImage" />
      </cc:Work>
    </rdf:RDF>
  </metadata>
  <defs
     id="defs11" />
  <sodipodi:namedview
     pagecolor="#ffffff"
     bordercolor="#666666"
     borderopacity="1"
     objecttolerance="10"
     gridtolerance="10"
     guidetolerance="10"
     inkscape:pageopacity="0"
     inkscape:pageshadow="2"
     inkscape:window-width="1920"
     inkscape:window-height="1058"
     id="namedview9"
     showgrid="false"
     inkscape:zoom="22.627417"
     inkscape:cx="13.275258"
     inkscape:cy="6.0891652"
     inkscape:window-x="0"
     inkscape:window-y="22"
     inkscape:window-maximized="1"
     inkscape:current-layer="svg7"
     inkscape:document-rotation="0" />
  <style
     type="text/css"
     id="current-color-scheme">
        .ColorScheme-Text {
            color:#eff0f1;
        }
    </style>
  <g
     id="g850"
     style="fill:#ffffff"
     transform="matrix(1.097119,0,0,1.0430703,-4.8892975,-0.51684342)">
    <g
       transform="matrix(0.85600137,0,0,0.96059891,2.5839849,1.433412)"
       id="g5"
       style="fill:#ffffff">
      <path
         d="M 9.53125,-0.75 C 5.4754089,-0.75 2.1875,2.5379089 2.1875,6.59375 v 8.8125 c 0,4.055841 3.2879089,7.34375 7.34375,7.34375 h 2.9375 c 4.055841,0 7.34375,-3.287909 7.34375,-7.34375 V 6.59375 C 19.8125,2.5379089 16.524591,-0.75 12.46875,-0.75 Z m 0,1.46875 h 2.9375 c 3.244673,0 5.875,2.6303271 5.875,5.875 v 8.8125 c 0,3.244673 -2.630327,5.875 -5.875,5.875 h -2.9375 c -3.2446729,0 -5.875,-2.630327 -5.875,-5.875 v -8.8125 c 0,-3.2446729 2.6303271,-5.875 5.875,-5.875 z"
         fill="currentColor"
         class="ColorScheme-Text"
         id="path3"
         style="fill:#ffffff;stroke-width:1.46875"
         sodipodi:nodetypes="ssssssssssssssssss" />
    </g>
    <g
       transform="matrix(0.53761617,0,0,0.96059891,15.140971,2.50074)"
       id="g844"
       style="fill:#ffffff">
      <path
         d="m -7.3111548,2.7191352 v 7.3437498 h 2.9375 V 2.7191352 Z"
         fill="currentColor"
         class="ColorScheme-Text"
         id="path842"
         style="fill:#ffffff;stroke-width:1.46875"
         sodipodi:nodetypes="ccccc" />
    </g>
  </g>
  <g
     transform="matrix(-1.8544207,0,0,-1.8544207,42.544207,32.398628)"
     id="g6"
     style="fill:#ffffff">
    <path
       style="fill:#ffffff;fill-opacity:1;stroke:none"
       d="m 10,5 v 2 h 2 V 5 h -2 m 0,5 v 2 h 2 v -2 h -2 m 0,5 v 2 h 2 v -2 h -2"
       class="ColorScheme-Text"
       id="path4" />
  </g>
</svg>
