<?xml version="1.0" encoding="UTF-8" standalone="no"?>
<svg
   xmlns:dc="http://purl.org/dc/elements/1.1/"
   xmlns:cc="http://creativecommons.org/ns#"
   xmlns:rdf="http://www.w3.org/1999/02/22-rdf-syntax-ns#"
   xmlns:svg="http://www.w3.org/2000/svg"
   xmlns="http://www.w3.org/2000/svg"
   xmlns:sodipodi="http://sodipodi.sourceforge.net/DTD/sodipodi-0.dtd"
   xmlns:inkscape="http://www.inkscape.org/namespaces/inkscape"
   version="1.1"
   id="Capa_1"
   x="0px"
   y="0px"
   viewBox="0 0 384 384"
   style="enable-background:new 0 0 384 384;"
   xml:space="preserve"
   sodipodi:docname="palette.svg"
   inkscape:version="1.0.1 (3bc2e813f5, 2020-09-07)"><metadata
   id="metadata43"><rdf:RDF><cc:Work
       rdf:about=""><dc:format>image/svg+xml</dc:format><dc:type
         rdf:resource="http://purl.org/dc/dcmitype/StillImage" /></cc:Work></rdf:RDF></metadata><defs
   id="defs41" /><sodipodi:namedview
   pagecolor="#ffffff"
   bordercolor="#666666"
   borderopacity="1"
   objecttolerance="10"
   gridtolerance="10"
   guidetolerance="10"
   inkscape:pageopacity="0"
   inkscape:pageshadow="2"
   inkscape:window-width="1920"
   inkscape:window-height="1058"
   id="namedview39"
   showgrid="false"
   inkscape:zoom="0.79549513"
   inkscape:cx="220.60112"
   inkscape:cy="192.78653"
   inkscape:window-x="0"
   inkscape:window-y="22"
   inkscape:window-maximized="1"
   inkscape:current-layer="Capa_1"
   inkscape:document-rotation="0" />
<g
   id="g6"
   style="fill:#ffffff"
   transform="matrix(0.82050822,0,0,0.82050822,34.462421,-29.450026)">
	<g
   id="g4"
   style="fill:#ffffff">
		<path
   d="M 192,35.892421 C 105.79365,35.892421 35.892421,105.79365 35.892421,192 c 0,86.20635 69.901229,156.10758 156.107579,156.10758 14.39686,0 26.01793,-11.62107 26.01793,-26.01793 0,-6.76466 -2.5148,-12.83578 -6.76466,-17.43201 -4.07587,-4.59623 -6.50448,-10.58036 -6.50448,-17.25883 0,-14.39686 11.62107,-26.01793 26.01793,-26.01793 h 30.61416 c 47.87299,0 86.7267,-38.85372 86.7267,-86.72671 C 348.10758,97.988276 278.20635,35.892421 192,35.892421 Z M 96.601195,192 c -14.396859,0 -26.01793,-11.62107 -26.01793,-26.01793 0,-14.39686 11.621071,-26.01793 26.01793,-26.01793 14.396855,0 26.017925,11.62107 26.017925,26.01793 0,14.39686 -11.62188,26.01793 -26.017925,26.01793 z m 52.035855,-69.38088 c -14.39685,0 -26.01793,-11.62107 -26.01793,-26.017925 0,-14.396859 11.62108,-26.01793 26.01793,-26.01793 14.39686,0 26.01793,11.621071 26.01793,26.01793 0,14.396855 -11.62188,26.017925 -26.01793,26.017925 z m 86.7259,0 c -14.39686,0 -26.01793,-11.62107 -26.01793,-26.017925 0,-14.396859 11.62107,-26.01793 26.01793,-26.01793 14.39685,0 26.01793,11.621071 26.01793,26.01793 0,14.396855 -11.62108,26.017925 -26.01793,26.017925 z M 287.39881,192 c -14.39686,0 -26.01793,-11.62107 -26.01793,-26.01793 0,-14.39686 11.62107,-26.01793 26.01793,-26.01793 14.39685,0 26.01792,11.62107 26.01792,26.01793 0,14.39686 -11.62107,26.01793 -26.01792,26.01793 z"
   id="path2"
   style="fill:#ffffff;stroke-width:0.81306" />
	</g>
</g>
<g
   id="g8">
</g>
<g
   id="g10">
</g>
<g
   id="g12">
</g>
<g
   id="g14">
</g>
<g
   id="g16">
</g>
<g
   id="g18">
</g>
<g
   id="g20">
</g>
<g
   id="g22">
</g>
<g
   id="g24">
</g>
<g
   id="g26">
</g>
<g
   id="g28">
</g>
<g
   id="g30">
</g>
<g
   id="g32">
</g>
<g
   id="g34">
</g>
<g
   id="g36">
</g>
</svg>
