<?xml version="1.0" encoding="UTF-8"?>
<!-- Generator: Adobe Illustrator 18.1.0, SVG Export Plug-In . SVG Version: 6.00 Build 0)  -->
<!DOCTYPE svg PUBLIC "-//W3C//DTD SVG 1.1//EN" "http://www.w3.org/Graphics/SVG/1.1/DTD/svg11.dtd">
<svg version="1.1" xmlns="http://www.w3.org/2000/svg" xmlns:xlink="http://www.w3.org/1999/xlink" x="0px" y="0px" viewBox="0 0 512 340" enable-background="new 0 0 512 340" xml:space="preserve">
<g id="Layer_2" display="none">
	<rect y="0.7" display="inline" width="512" height="512"/>
</g>
<g id="Layer_1">
	<polygon fill="#3B483B" points="230.6,75 230.6,74.4 218.3,62.1 122.8,62.1 122.8,77.7 227.9,77.7  "/>
	<polygon fill="#3B483B" points="196,39.8 122.8,39.8 122.8,55.4 211.5,55.4  "/>
	<polygon fill="#3B483B" points="301.2,55.4 389.2,55.4 389.2,39.8 316.7,39.8  "/>
	<g>
		<polygon fill="#CC2E2E" points="247.9,60 247.9,64.3 252.1,64.3 264.8,51.6 264.8,47.3 260.6,47.3   "/>
		<path fill="#CC2E2E" d="M273.3,70.8l59.3-59.3h-44.5L277.6,22v10.6l-2.1,2.1h-10.6v-8.5l4.2-4.2l2.1-2.1H267l-4.2,4.2h-2.1V22    l6.4-6.4h2.1l-4.2-4.2h-2.8l-5.7,6.4H250l-2.1,2.1v14.8h-10.6l-2.1-2.1V22l-10.6-10.6h-44.5l59.3,59.3v8.5h-4.2v6.4l2.1-2.1h4.2    v4.2l-2.1,2.1h6.4l2.1,4.2l8.6,6.2l8.3-6.2l2.1-4.2h6.4l-2.1-2.1v-4.2h4.2l2.1,2.1v-6.4h-4.2V70.8z M271.2,62.2l-2.1,4.2l-6.4,6.4    l-4.2,2.1l-2.1,2.1l-2.1-2.1l-4.2-2.1l-6.4-6.4l-2.1-4.2V38.8l4.2,4.2h6.4l4.2-4.2l4.2,4.2h6.4l4.2-4.2V62.2z"/>
	</g>
	<g>
		<g>
			<g>
				<g>
					<path fill="#3B483B" d="M119.9,209h26.5l12.5-35.5h-36.8L98.5,222h15.7L119.9,209z M129.3,187.5H140l-2.1,5.4H127L129.3,187.5z        M164.4,222l1.8-6.4H178l-1.6,6.4h15.7l9.7-48.5h-36.8L148.8,222H164.4z M174.2,187.5h10.7l-2.7,10.9h-11.1L174.2,187.5z        M214.7,222l1.7-13h26.5l1.6-35.5h-36.8L199,222H214.7z M219.2,187.5h10.7l-0.5,5.4h-10.9L219.2,187.5z M290.6,204.6h-23.9       l7.7-8.8l-8.2-8.3h22.6l-1.5-14h-36.8l-0.4,17.9l4.1,4.4l-4.3,4.6l-0.5,21.6h43.3L290.6,204.6z M315.1,222l-2.3-13h8.4l3.8,3.5       l2,9.5h15.7l-4.4-16.6l-5.5-4.7l3-4.6l-5.9-22.6h-36.8l6.3,48.5H315.1z M319.6,187.5l0.5,2.3l-2.3,3.1h-8l-1-5.4H319.6z        M363.2,204.6h-18.6l5,17.4h43.3l-7.3-17.4L361,187.5h17.5l-5.8-14h-36.8l4,14L363.2,204.6z M75.9,232.8l-49.7,92.4h24.6       l12.7-26.3H104l25.1-66H75.9z M94.5,267.9H78.3L83,258h15.8L94.5,267.9z M157,232.8h-19.3l-32.8,92.4h67.9l6.9-34.9h-39.8       L157,232.8z M194,265.2l4.9,8.2l-7.8,8.7l-7.4,43h67.9l0.4-34.9h-36.3l13.7-16.8L219.1,258h33.4l0.3-25.2h-53.3L194,265.2z        M261.3,232.8l1.2,92.4h24.6l-0.9-13.2h18.2l1.5,13.2h24.6l-15.8-92.4H261.3z M283.8,278.4l-1.4-20.4h15.8l2.3,20.4H283.8z        M359.4,258h25.9l-8.9-25.2h-53.3L328,258l34.6,32.3h-28.3l6.9,34.9h67.9l-12.4-34.9L359.4,258z M469.2,290.3h-36.3l4.4-16.8       L418.4,258h33.4l-13.6-25.2h-32.6l9.9-10.8l-8.5-17.4h-14.8l12.4,28.2H385l12.3,32.4l9.4,8.2l-3,8.7l16.4,43H488L469.2,290.3z"/>
				</g>
				<g>
					<path fill="#3B483B" d="M119.9,208h26.5l12.5-35.5h-36.8L98.5,221h15.7L119.9,208z M129.3,186.5H140l-2.1,5.4H127L129.3,186.5z        M164.4,221l1.8-6.4H178l-1.6,6.4h15.7l9.7-48.5h-36.8L148.8,221H164.4z M174.2,186.5h10.7l-2.7,10.9h-11.1L174.2,186.5z        M214.7,221l1.7-13h26.5l1.6-35.5h-36.8L199,221H214.7z M219.2,186.5h10.7l-0.5,5.4h-10.9L219.2,186.5z M290.6,203.6h-23.9       l7.7-8.8l-8.2-8.3h22.6l-1.5-14h-36.8l-0.4,17.9l4.1,4.4l-4.3,4.6l-0.5,21.6h43.3L290.6,203.6z M315.1,221l-2.3-13h8.4l3.8,3.5       l2,9.5h15.7l-4.4-16.6l-5.5-4.7l3-4.6l-5.9-22.6h-36.8l6.3,48.5H315.1z M319.6,186.5l0.5,2.3l-2.3,3.1h-8l-1-5.4H319.6z        M363.2,203.6h-18.6l5,17.4h43.3l-7.3-17.4L361,186.5h17.5l-5.8-14h-36.8l4,14L363.2,203.6z M75.9,231.8l-49.7,92.4h24.6       l12.7-26.3H104l25.1-66H75.9z M94.5,266.9H78.3L83,257h15.8L94.5,266.9z M157,231.8h-19.3l-32.8,92.4h67.9l6.9-34.9h-39.8       L157,231.8z M194,264.2l4.9,8.2l-7.8,8.7l-7.4,43h67.9l0.4-34.9h-36.3l13.7-16.8L219.1,257h33.4l0.3-25.2h-53.3L194,264.2z        M261.3,231.8l1.2,92.4h24.6l-0.9-13.2h18.2l1.5,13.2h24.6l-15.8-92.4H261.3z M283.8,277.4l-1.4-20.4h15.8l2.3,20.4H283.8z        M359.4,257h25.9l-8.9-25.2h-53.3L328,257l34.6,32.3h-28.3l6.9,34.9h67.9l-12.4-34.9L359.4,257z M469.2,289.3h-36.3l4.4-16.8       L418.4,257h33.4l-13.6-25.2h-32.6l9.9-10.8l-8.5-17.4h-14.8l12.4,28.2H385l12.3,32.4l9.4,8.2l-3,8.7l16.4,43H488L469.2,289.3z"/>
				</g>
				<g>
					<path fill="#3B483B" d="M119.9,207h26.5l12.5-35.5h-36.8L98.5,220h15.7L119.9,207z M129.3,185.5H140l-2.1,5.4H127L129.3,185.5z        M164.4,220l1.8-6.4H178l-1.6,6.4h15.7l9.7-48.5h-36.8L148.8,220H164.4z M174.2,185.5h10.7l-2.7,10.9h-11.1L174.2,185.5z        M214.7,220l1.7-13h26.5l1.6-35.5h-36.8L199,220H214.7z M219.2,185.5h10.7l-0.5,5.4h-10.9L219.2,185.5z M290.6,202.6h-23.9       l7.7-8.8l-8.2-8.3h22.6l-1.5-14h-36.8l-0.4,17.9l4.1,4.4l-4.3,4.6l-0.5,21.6h43.3L290.6,202.6z M315.1,220l-2.3-13h8.4l3.8,3.5       l2,9.5h15.7l-4.4-16.6l-5.5-4.7l3-4.6l-5.9-22.6h-36.8l6.3,48.5H315.1z M319.6,185.5l0.5,2.3l-2.3,3.1h-8l-1-5.4H319.6z        M363.2,202.6h-18.6l5,17.4h43.3l-7.3-17.4L361,185.5h17.5l-5.8-14h-36.8l4,14L363.2,202.6z M75.9,230.8l-49.7,92.4h24.6       l12.7-26.3H104l25.1-66H75.9z M94.5,265.9H78.3L83,256h15.8L94.5,265.9z M157,230.8h-19.3l-32.8,92.4h67.9l6.9-34.9h-39.8       L157,230.8z M194,263.2l4.9,8.2l-7.8,8.7l-7.4,43h67.9l0.4-34.9h-36.3l13.7-16.8L219.1,256h33.4l0.3-25.2h-53.3L194,263.2z        M261.3,230.8l1.2,92.4h24.6l-0.9-13.2h18.2l1.5,13.2h24.6l-15.8-92.4H261.3z M283.8,276.4l-1.4-20.4h15.8l2.3,20.4H283.8z        M359.4,256h25.9l-8.9-25.2h-53.3L328,256l34.6,32.3h-28.3l6.9,34.9h67.9l-12.4-34.9L359.4,256z M469.2,288.3h-36.3l4.4-16.8       L418.4,256h33.4l-13.6-25.2h-32.6l9.9-10.8l-8.5-17.4h-14.8l12.4,28.2H385l12.3,32.4l9.4,8.2l-3,8.7l16.4,43H488L469.2,288.3z"/>
				</g>
				<g>
					<path fill="#3B483B" d="M119.9,206h26.5l12.5-35.5h-36.8L98.5,219h15.7L119.9,206z M129.3,184.5H140l-2.1,5.4H127L129.3,184.5z        M164.4,219l1.8-6.4H178l-1.6,6.4h15.7l9.7-48.5h-36.8L148.8,219H164.4z M174.2,184.5h10.7l-2.7,10.9h-11.1L174.2,184.5z        M214.7,219l1.7-13h26.5l1.6-35.5h-36.8L199,219H214.7z M219.2,184.5h10.7l-0.5,5.4h-10.9L219.2,184.5z M290.6,201.6h-23.9       l7.7-8.8l-8.2-8.3h22.6l-1.5-14h-36.8l-0.4,17.9l4.1,4.4l-4.3,4.6l-0.5,21.6h43.3L290.6,201.6z M315.1,219l-2.3-13h8.4l3.8,3.5       l2,9.5h15.7l-4.4-16.6l-5.5-4.7l3-4.6l-5.9-22.6h-36.8l6.3,48.5H315.1z M319.6,184.5l0.5,2.3l-2.3,3.1h-8l-1-5.4H319.6z        M363.2,201.6h-18.6l5,17.4h43.3l-7.3-17.4L361,184.5h17.5l-5.8-14h-36.8l4,14L363.2,201.6z M75.9,229.8l-49.7,92.4h24.6       l12.7-26.3H104l25.1-66H75.9z M94.5,264.9H78.3L83,255h15.8L94.5,264.9z M157,229.8h-19.3l-32.8,92.4h67.9l6.9-34.9h-39.8       L157,229.8z M194,262.2l4.9,8.2l-7.8,8.7l-7.4,43h67.9l0.4-34.9h-36.3l13.7-16.8L219.1,255h33.4l0.3-25.2h-53.3L194,262.2z        M261.3,229.8l1.2,92.4h24.6l-0.9-13.2h18.2l1.5,13.2h24.6l-15.8-92.4H261.3z M283.8,275.4l-1.4-20.4h15.8l2.3,20.4H283.8z        M359.4,255h25.9l-8.9-25.2h-53.3L328,255l34.6,32.3h-28.3l6.9,34.9h67.9l-12.4-34.9L359.4,255z M469.2,287.3h-36.3l4.4-16.8       L418.4,255h33.4l-13.6-25.2h-32.6l9.9-10.8l-8.5-17.4h-14.8l12.4,28.2H385l12.3,32.4l9.4,8.2l-3,8.7l16.4,43H488L469.2,287.3z"/>
				</g>
				<g>
					<path fill="#3B483B" d="M119.9,205h26.5l12.5-35.5h-36.8L98.5,218h15.7L119.9,205z M129.3,183.5H140l-2.1,5.4H127L129.3,183.5z        M164.4,218l1.8-6.4H178l-1.6,6.4h15.7l9.7-48.5h-36.8L148.8,218H164.4z M174.2,183.5h10.7l-2.7,10.9h-11.1L174.2,183.5z        M214.7,218l1.7-13h26.5l1.6-35.5h-36.8L199,218H214.7z M219.2,183.5h10.7l-0.5,5.4h-10.9L219.2,183.5z M290.6,200.6h-23.9       l7.7-8.8l-8.2-8.3h22.6l-1.5-14h-36.8l-0.4,17.9l4.1,4.4l-4.3,4.6l-0.5,21.6h43.3L290.6,200.6z M315.1,218l-2.3-13h8.4l3.8,3.5       l2,9.5h15.7l-4.4-16.6l-5.5-4.7l3-4.6l-5.9-22.6h-36.8l6.3,48.5H315.1z M319.6,183.5l0.5,2.3l-2.3,3.1h-8l-1-5.4H319.6z        M363.2,200.6h-18.6l5,17.4h43.3l-7.3-17.4L361,183.5h17.5l-5.8-14h-36.8l4,14L363.2,200.6z M75.9,228.8l-49.7,92.4h24.6       l12.7-26.3H104l25.1-66H75.9z M94.5,263.9H78.3L83,254h15.8L94.5,263.9z M157,228.8h-19.3l-32.8,92.4h67.9l6.9-34.9h-39.8       L157,228.8z M194,261.2l4.9,8.2l-7.8,8.7l-7.4,43h67.9l0.4-34.9h-36.3l13.7-16.8L219.1,254h33.4l0.3-25.2h-53.3L194,261.2z        M261.3,228.8l1.2,92.4h24.6l-0.9-13.2h18.2l1.5,13.2h24.6l-15.8-92.4H261.3z M283.8,274.4l-1.4-20.4h15.8l2.3,20.4H283.8z        M359.4,254h25.9l-8.9-25.2h-53.3L328,254l34.6,32.3h-28.3l6.9,34.9h67.9l-12.4-34.9L359.4,254z M469.2,286.3h-36.3l4.4-16.8       L418.4,254h33.4l-13.6-25.2h-32.6l9.9-10.8l-8.5-17.4h-14.8l12.4,28.2H385l12.3,32.4l9.4,8.2l-3,8.7l16.4,43H488L469.2,286.3z"/>
				</g>
				<g>
					<path fill="#3B483B" d="M119.9,204h26.5l12.5-35.5h-36.8L98.5,217h15.7L119.9,204z M129.3,182.5H140l-2.1,5.4H127L129.3,182.5z        M164.4,217l1.8-6.4H178l-1.6,6.4h15.7l9.7-48.5h-36.8L148.8,217H164.4z M174.2,182.5h10.7l-2.7,10.9h-11.1L174.2,182.5z        M214.7,217l1.7-13h26.5l1.6-35.5h-36.8L199,217H214.7z M219.2,182.5h10.7l-0.5,5.4h-10.9L219.2,182.5z M290.6,199.6h-23.9       l7.7-8.8l-8.2-8.3h22.6l-1.5-14h-36.8l-0.4,17.9l4.1,4.4l-4.3,4.6l-0.5,21.6h43.3L290.6,199.6z M315.1,217l-2.3-13h8.4l3.8,3.5       l2,9.5h15.7l-4.4-16.6l-5.5-4.7l3-4.6l-5.9-22.6h-36.8l6.3,48.5H315.1z M319.6,182.5l0.5,2.3l-2.3,3.1h-8l-1-5.4H319.6z        M363.2,199.6h-18.6l5,17.4h43.3l-7.3-17.4L361,182.5h17.5l-5.8-14h-36.8l4,14L363.2,199.6z M75.9,227.8l-49.7,92.4h24.6       l12.7-26.3H104l25.1-66H75.9z M94.5,262.9H78.3L83,253h15.8L94.5,262.9z M157,227.8h-19.3l-32.8,92.4h67.9l6.9-34.9h-39.8       L157,227.8z M194,260.2l4.9,8.2l-7.8,8.7l-7.4,43h67.9l0.4-34.9h-36.3l13.7-16.8L219.1,253h33.4l0.3-25.2h-53.3L194,260.2z        M261.3,227.8l1.2,92.4h24.6l-0.9-13.2h18.2l1.5,13.2h24.6l-15.8-92.4H261.3z M283.8,273.4l-1.4-20.4h15.8l2.3,20.4H283.8z        M359.4,253h25.9l-8.9-25.2h-53.3L328,253l34.6,32.3h-28.3l6.9,34.9h67.9l-12.4-34.9L359.4,253z M469.2,285.3h-36.3l4.4-16.8       L418.4,253h33.4l-13.6-25.2h-32.6l9.9-10.8l-8.5-17.4h-14.8l12.4,28.2H385l12.3,32.4l9.4,8.2l-3,8.7l16.4,43H488L469.2,285.3z"/>
				</g>
				<g>
					<path fill="#3B483B" d="M119.9,203h26.5l12.5-35.5h-36.8L98.5,216h15.7L119.9,203z M129.3,181.5H140l-2.1,5.4H127L129.3,181.5z        M164.4,216l1.8-6.4H178l-1.6,6.4h15.7l9.7-48.5h-36.8L148.8,216H164.4z M174.2,181.5h10.7l-2.7,10.9h-11.1L174.2,181.5z        M214.7,216l1.7-13h26.5l1.6-35.5h-36.8L199,216H214.7z M219.2,181.5h10.7l-0.5,5.4h-10.9L219.2,181.5z M290.6,198.6h-23.9       l7.7-8.8l-8.2-8.3h22.6l-1.5-14h-36.8l-0.4,17.9l4.1,4.4l-4.3,4.6l-0.5,21.6h43.3L290.6,198.6z M315.1,216l-2.3-13h8.4l3.8,3.5       l2,9.5h15.7l-4.4-16.6l-5.5-4.7l3-4.6l-5.9-22.6h-36.8l6.3,48.5H315.1z M319.6,181.5l0.5,2.3l-2.3,3.1h-8l-1-5.4H319.6z        M363.2,198.6h-18.6l5,17.4h43.3l-7.3-17.4L361,181.5h17.5l-5.8-14h-36.8l4,14L363.2,198.6z M75.9,226.8l-49.7,92.4h24.6       l12.7-26.3H104l25.1-66H75.9z M94.5,261.9H78.3L83,252h15.8L94.5,261.9z M157,226.8h-19.3l-32.8,92.4h67.9l6.9-34.9h-39.8       L157,226.8z M194,259.2l4.9,8.2l-7.8,8.7l-7.4,43h67.9l0.4-34.9h-36.3l13.7-16.8L219.1,252h33.4l0.3-25.2h-53.3L194,259.2z        M261.3,226.8l1.2,92.4h24.6l-0.9-13.2h18.2l1.5,13.2h24.6l-15.8-92.4H261.3z M283.8,272.4l-1.4-20.4h15.8l2.3,20.4H283.8z        M359.4,252h25.9l-8.9-25.2h-53.3L328,252l34.6,32.3h-28.3l6.9,34.9h67.9l-12.4-34.9L359.4,252z M469.2,284.3h-36.3l4.4-16.8       L418.4,252h33.4l-13.6-25.2h-32.6l9.9-10.8l-8.5-17.4h-14.8l12.4,28.2H385l12.3,32.4l9.4,8.2l-3,8.7l16.4,43H488L469.2,284.3z"/>
				</g>
				<g>
					<path fill="#3B483B" d="M119.9,202h26.5l12.5-35.5h-36.8L98.5,215h15.7L119.9,202z M129.3,180.5H140l-2.1,5.4H127L129.3,180.5z        M164.4,215l1.8-6.4H178l-1.6,6.4h15.7l9.7-48.5h-36.8L148.8,215H164.4z M174.2,180.5h10.7l-2.7,10.9h-11.1L174.2,180.5z        M214.7,215l1.7-13h26.5l1.6-35.5h-36.8L199,215H214.7z M219.2,180.5h10.7l-0.5,5.4h-10.9L219.2,180.5z M290.6,197.6h-23.9       l7.7-8.8l-8.2-8.3h22.6l-1.5-14h-36.8l-0.4,17.9l4.1,4.4l-4.3,4.6l-0.5,21.6h43.3L290.6,197.6z M315.1,215l-2.3-13h8.4l3.8,3.5       l2,9.5h15.7l-4.4-16.6l-5.5-4.7l3-4.6l-5.9-22.6h-36.8l6.3,48.5H315.1z M319.6,180.5l0.5,2.3l-2.3,3.1h-8l-1-5.4H319.6z        M363.2,197.6h-18.6l5,17.4h43.3l-7.3-17.4L361,180.5h17.5l-5.8-14h-36.8l4,14L363.2,197.6z M75.9,225.8l-49.7,92.4h24.6       l12.7-26.3H104l25.1-66H75.9z M94.5,260.9H78.3L83,251h15.8L94.5,260.9z M157,225.8h-19.3l-32.8,92.4h67.9l6.9-34.9h-39.8       L157,225.8z M194,258.2l4.9,8.2l-7.8,8.7l-7.4,43h67.9l0.4-34.9h-36.3l13.7-16.8L219.1,251h33.4l0.3-25.2h-53.3L194,258.2z        M261.3,225.8l1.2,92.4h24.6l-0.9-13.2h18.2l1.5,13.2h24.6l-15.8-92.4H261.3z M283.8,271.4l-1.4-20.4h15.8l2.3,20.4H283.8z        M359.4,251h25.9l-8.9-25.2h-53.3L328,251l34.6,32.3h-28.3l6.9,34.9h67.9l-12.4-34.9L359.4,251z M469.2,283.3h-36.3l4.4-16.8       L418.4,251h33.4l-13.6-25.2h-32.6l9.9-10.8l-8.5-17.4h-14.8l12.4,28.2H385l12.3,32.4l9.4,8.2l-3,8.7l16.4,43H488L469.2,283.3z"/>
				</g>
				<g>
					<path fill="#3B483B" d="M119.9,201h26.5l12.5-35.5h-36.8L98.5,214h15.7L119.9,201z M129.3,179.5H140l-2.1,5.4H127L129.3,179.5z        M164.4,214l1.8-6.4H178l-1.6,6.4h15.7l9.7-48.5h-36.8L148.8,214H164.4z M174.2,179.5h10.7l-2.7,10.9h-11.1L174.2,179.5z        M214.7,214l1.7-13h26.5l1.6-35.5h-36.8L199,214H214.7z M219.2,179.5h10.7l-0.5,5.4h-10.9L219.2,179.5z M290.6,196.6h-23.9       l7.7-8.8l-8.2-8.3h22.6l-1.5-14h-36.8l-0.4,17.9l4.1,4.4l-4.3,4.6l-0.5,21.6h43.3L290.6,196.6z M315.1,214l-2.3-13h8.4l3.8,3.5       l2,9.5h15.7l-4.4-16.6l-5.5-4.7l3-4.6l-5.9-22.6h-36.8l6.3,48.5H315.1z M319.6,179.5l0.5,2.3l-2.3,3.1h-8l-1-5.4H319.6z        M363.2,196.6h-18.6l5,17.4h43.3l-7.3-17.4L361,179.5h17.5l-5.8-14h-36.8l4,14L363.2,196.6z M75.9,224.8l-49.7,92.4h24.6       l12.7-26.3H104l25.1-66H75.9z M94.5,259.9H78.3L83,250h15.8L94.5,259.9z M157,224.8h-19.3l-32.8,92.4h67.9l6.9-34.9h-39.8       L157,224.8z M194,257.2l4.9,8.2l-7.8,8.7l-7.4,43h67.9l0.4-34.9h-36.3l13.7-16.8L219.1,250h33.4l0.3-25.2h-53.3L194,257.2z        M261.3,224.8l1.2,92.4h24.6l-0.9-13.2h18.2l1.5,13.2h24.6l-15.8-92.4H261.3z M283.8,270.4l-1.4-20.4h15.8l2.3,20.4H283.8z        M359.4,250h25.9l-8.9-25.2h-53.3L328,250l34.6,32.3h-28.3l6.9,34.9h67.9l-12.4-34.9L359.4,250z M469.2,282.3h-36.3l4.4-16.8       L418.4,250h33.4l-13.6-25.2h-32.6l9.9-10.8l-8.5-17.4h-14.8l12.4,28.2H385l12.3,32.4l9.4,8.2l-3,8.7l16.4,43H488L469.2,282.3z"/>
				</g>
				<g>
					<path fill="#3B483B" d="M119.9,200h26.5l12.5-35.5h-36.8L98.5,213h15.7L119.9,200z M129.3,178.5H140l-2.1,5.4H127L129.3,178.5z        M164.4,213l1.8-6.4H178l-1.6,6.4h15.7l9.7-48.5h-36.8L148.8,213H164.4z M174.2,178.5h10.7l-2.7,10.9h-11.1L174.2,178.5z        M214.7,213l1.7-13h26.5l1.6-35.5h-36.8L199,213H214.7z M219.2,178.5h10.7l-0.5,5.4h-10.9L219.2,178.5z M290.6,195.6h-23.9       l7.7-8.8l-8.2-8.3h22.6l-1.5-14h-36.8l-0.4,17.9l4.1,4.4l-4.3,4.6l-0.5,21.6h43.3L290.6,195.6z M315.1,213l-2.3-13h8.4l3.8,3.5       l2,9.5h15.7l-4.4-16.6l-5.5-4.7l3-4.6l-5.9-22.6h-36.8l6.3,48.5H315.1z M319.6,178.5l0.5,2.3l-2.3,3.1h-8l-1-5.4H319.6z        M363.2,195.6h-18.6l5,17.4h43.3l-7.3-17.4L361,178.5h17.5l-5.8-14h-36.8l4,14L363.2,195.6z M75.9,223.8l-49.7,92.4h24.6       l12.7-26.3H104l25.1-66H75.9z M94.5,258.9H78.3L83,249h15.8L94.5,258.9z M157,223.8h-19.3l-32.8,92.4h67.9l6.9-34.9h-39.8       L157,223.8z M194,256.2l4.9,8.2l-7.8,8.7l-7.4,43h67.9l0.4-34.9h-36.3l13.7-16.8L219.1,249h33.4l0.3-25.2h-53.3L194,256.2z        M261.3,223.8l1.2,92.4h24.6l-0.9-13.2h18.2l1.5,13.2h24.6l-15.8-92.4H261.3z M283.8,269.4l-1.4-20.4h15.8l2.3,20.4H283.8z        M359.4,249h25.9l-8.9-25.2h-53.3L328,249l34.6,32.3h-28.3l6.9,34.9h67.9l-12.4-34.9L359.4,249z M469.2,281.3h-36.3l4.4-16.8       L418.4,249h33.4l-13.6-25.2h-32.6l9.9-10.8l-8.5-17.4h-14.8l12.4,28.2H385l12.3,32.4l9.4,8.2l-3,8.7l16.4,43H488L469.2,281.3z"/>
				</g>
				<g>
					<path fill="#3B483B" d="M119.9,199h26.5l12.5-35.5h-36.8L98.5,212h15.7L119.9,199z M129.3,177.5H140l-2.1,5.4H127L129.3,177.5z        M164.4,212l1.8-6.4H178l-1.6,6.4h15.7l9.7-48.5h-36.8L148.8,212H164.4z M174.2,177.5h10.7l-2.7,10.9h-11.1L174.2,177.5z        M214.7,212l1.7-13h26.5l1.6-35.5h-36.8L199,212H214.7z M219.2,177.5h10.7l-0.5,5.4h-10.9L219.2,177.5z M290.6,194.6h-23.9       l7.7-8.8l-8.2-8.3h22.6l-1.5-14h-36.8l-0.4,17.9l4.1,4.4l-4.3,4.6l-0.5,21.6h43.3L290.6,194.6z M315.1,212l-2.3-13h8.4l3.8,3.5       l2,9.5h15.7l-4.4-16.6l-5.5-4.7l3-4.6l-5.9-22.6h-36.8l6.3,48.5H315.1z M319.6,177.5l0.5,2.3l-2.3,3.1h-8l-1-5.4H319.6z        M363.2,194.6h-18.6l5,17.4h43.3l-7.3-17.4L361,177.5h17.5l-5.8-14h-36.8l4,14L363.2,194.6z M75.9,222.8l-49.7,92.4h24.6       l12.7-26.3H104l25.1-66H75.9z M94.5,257.9H78.3L83,248h15.8L94.5,257.9z M157,222.8h-19.3l-32.8,92.4h67.9l6.9-34.9h-39.8       L157,222.8z M194,255.2l4.9,8.2l-7.8,8.7l-7.4,43h67.9l0.4-34.9h-36.3l13.7-16.8L219.1,248h33.4l0.3-25.2h-53.3L194,255.2z        M261.3,222.8l1.2,92.4h24.6l-0.9-13.2h18.2l1.5,13.2h24.6l-15.8-92.4H261.3z M283.8,268.4l-1.4-20.4h15.8l2.3,20.4H283.8z        M359.4,248h25.9l-8.9-25.2h-53.3L328,248l34.6,32.3h-28.3l6.9,34.9h67.9l-12.4-34.9L359.4,248z M469.2,280.3h-36.3l4.4-16.8       L418.4,248h33.4l-13.6-25.2h-32.6l9.9-10.8l-8.5-17.4h-14.8l12.4,28.2H385l12.3,32.4l9.4,8.2l-3,8.7l16.4,43H488L469.2,280.3z"/>
				</g>
				<g>
					<path fill="#3B483B" d="M119.9,198h26.5l12.5-35.5h-36.8L98.5,211h15.7L119.9,198z M129.3,176.5H140l-2.1,5.4H127L129.3,176.5z        M164.4,211l1.8-6.4H178l-1.6,6.4h15.7l9.7-48.5h-36.8L148.8,211H164.4z M174.2,176.5h10.7l-2.7,10.9h-11.1L174.2,176.5z        M214.7,211l1.7-13h26.5l1.6-35.5h-36.8L199,211H214.7z M219.2,176.5h10.7l-0.5,5.4h-10.9L219.2,176.5z M290.6,193.6h-23.9       l7.7-8.8l-8.2-8.3h22.6l-1.5-14h-36.8l-0.4,17.9l4.1,4.4l-4.3,4.6l-0.5,21.6h43.3L290.6,193.6z M315.1,211l-2.3-13h8.4l3.8,3.5       l2,9.5h15.7l-4.4-16.6l-5.5-4.7l3-4.6l-5.9-22.6h-36.8l6.3,48.5H315.1z M319.6,176.5l0.5,2.3l-2.3,3.1h-8l-1-5.4H319.6z        M363.2,193.6h-18.6l5,17.4h43.3l-7.3-17.4L361,176.5h17.5l-5.8-14h-36.8l4,14L363.2,193.6z M75.9,221.8l-49.7,92.4h24.6       l12.7-26.3H104l25.1-66H75.9z M94.5,256.9H78.3L83,247h15.8L94.5,256.9z M157,221.8h-19.3l-32.8,92.4h67.9l6.9-34.9h-39.8       L157,221.8z M194,254.2l4.9,8.2l-7.8,8.7l-7.4,43h67.9l0.4-34.9h-36.3l13.7-16.8L219.1,247h33.4l0.3-25.2h-53.3L194,254.2z        M261.3,221.8l1.2,92.4h24.6l-0.9-13.2h18.2l1.5,13.2h24.6l-15.8-92.4H261.3z M283.8,267.4l-1.4-20.4h15.8l2.3,20.4H283.8z        M359.4,247h25.9l-8.9-25.2h-53.3L328,247l34.6,32.3h-28.3l6.9,34.9h67.9l-12.4-34.9L359.4,247z M469.2,279.3h-36.3l4.4-16.8       L418.4,247h33.4l-13.6-25.2h-32.6l9.9-10.8l-8.5-17.4h-14.8l12.4,28.2H385l12.3,32.4l9.4,8.2l-3,8.7l16.4,43H488L469.2,279.3z"/>
				</g>
				<g>
					<path fill="#3B483B" d="M119.9,197h26.5l12.5-35.5h-36.8L98.5,210h15.7L119.9,197z M129.3,175.5H140l-2.1,5.4H127L129.3,175.5z        M164.4,210l1.8-6.4H178l-1.6,6.4h15.7l9.7-48.5h-36.8L148.8,210H164.4z M174.2,175.5h10.7l-2.7,10.9h-11.1L174.2,175.5z        M214.7,210l1.7-13h26.5l1.6-35.5h-36.8L199,210H214.7z M219.2,175.5h10.7l-0.5,5.4h-10.9L219.2,175.5z M290.6,192.6h-23.9       l7.7-8.8l-8.2-8.3h22.6l-1.5-14h-36.8l-0.4,17.9l4.1,4.4l-4.3,4.6l-0.5,21.6h43.3L290.6,192.6z M315.1,210l-2.3-13h8.4l3.8,3.5       l2,9.5h15.7l-4.4-16.6l-5.5-4.7l3-4.6l-5.9-22.6h-36.8l6.3,48.5H315.1z M319.6,175.5l0.5,2.3l-2.3,3.1h-8l-1-5.4H319.6z        M363.2,192.6h-18.6l5,17.4h43.3l-7.3-17.4L361,175.5h17.5l-5.8-14h-36.8l4,14L363.2,192.6z M75.9,220.8l-49.7,92.4h24.6       l12.7-26.3H104l25.1-66H75.9z M94.5,255.9H78.3L83,246h15.8L94.5,255.9z M157,220.8h-19.3l-32.8,92.4h67.9l6.9-34.9h-39.8       L157,220.8z M194,253.2l4.9,8.2l-7.8,8.7l-7.4,43h67.9l0.4-34.9h-36.3l13.7-16.8L219.1,246h33.4l0.3-25.2h-53.3L194,253.2z        M261.3,220.8l1.2,92.4h24.6l-0.9-13.2h18.2l1.5,13.2h24.6l-15.8-92.4H261.3z M283.8,266.4l-1.4-20.4h15.8l2.3,20.4H283.8z        M359.4,246h25.9l-8.9-25.2h-53.3L328,246l34.6,32.3h-28.3l6.9,34.9h67.9l-12.4-34.9L359.4,246z M469.2,278.3h-36.3l4.4-16.8       L418.4,246h33.4l-13.6-25.2h-32.6l9.9-10.8l-8.5-17.4h-14.8l12.4,28.2H385l12.3,32.4l9.4,8.2l-3,8.7l16.4,43H488L469.2,278.3z"/>
				</g>
				<g>
					<path fill="#3B483B" d="M119.9,196h26.5l12.5-35.5h-36.8L98.5,209h15.7L119.9,196z M129.3,174.5H140l-2.1,5.4H127L129.3,174.5z        M164.4,209l1.8-6.4H178l-1.6,6.4h15.7l9.7-48.5h-36.8L148.8,209H164.4z M174.2,174.5h10.7l-2.7,10.9h-11.1L174.2,174.5z        M214.7,209l1.7-13h26.5l1.6-35.5h-36.8L199,209H214.7z M219.2,174.5h10.7l-0.5,5.4h-10.9L219.2,174.5z M290.6,191.6h-23.9       l7.7-8.8l-8.2-8.3h22.6l-1.5-14h-36.8l-0.4,17.9l4.1,4.4l-4.3,4.6l-0.5,21.6h43.3L290.6,191.6z M315.1,209l-2.3-13h8.4l3.8,3.5       l2,9.5h15.7l-4.4-16.6l-5.5-4.7l3-4.6l-5.9-22.6h-36.8l6.3,48.5H315.1z M319.6,174.5l0.5,2.3l-2.3,3.1h-8l-1-5.4H319.6z        M363.2,191.6h-18.6l5,17.4h43.3l-7.3-17.4L361,174.5h17.5l-5.8-14h-36.8l4,14L363.2,191.6z M75.9,219.8l-49.7,92.4h24.6       l12.7-26.3H104l25.1-66H75.9z M94.5,254.9H78.3L83,245h15.8L94.5,254.9z M157,219.8h-19.3l-32.8,92.4h67.9l6.9-34.9h-39.8       L157,219.8z M194,252.2l4.9,8.2l-7.8,8.7l-7.4,43h67.9l0.4-34.9h-36.3l13.7-16.8L219.1,245h33.4l0.3-25.2h-53.3L194,252.2z        M261.3,219.8l1.2,92.4h24.6l-0.9-13.2h18.2l1.5,13.2h24.6l-15.8-92.4H261.3z M283.8,265.4l-1.4-20.4h15.8l2.3,20.4H283.8z        M359.4,245h25.9l-8.9-25.2h-53.3L328,245l34.6,32.3h-28.3l6.9,34.9h67.9l-12.4-34.9L359.4,245z M469.2,277.3h-36.3l4.4-16.8       L418.4,245h33.4l-13.6-25.2h-32.6l9.9-10.8l-8.5-17.4h-14.8l12.4,28.2H385l12.3,32.4l9.4,8.2l-3,8.7l16.4,43H488L469.2,277.3z"/>
				</g>
				<g>
					<path fill="#3B483B" d="M119.9,195h26.5l12.5-35.5h-36.8L98.5,208h15.7L119.9,195z M129.3,173.5H140l-2.1,5.4H127L129.3,173.5z        M164.4,208l1.8-6.4H178l-1.6,6.4h15.7l9.7-48.5h-36.8L148.8,208H164.4z M174.2,173.5h10.7l-2.7,10.9h-11.1L174.2,173.5z        M214.7,208l1.7-13h26.5l1.6-35.5h-36.8L199,208H214.7z M219.2,173.5h10.7l-0.5,5.4h-10.9L219.2,173.5z M290.6,190.6h-23.9       l7.7-8.8l-8.2-8.3h22.6l-1.5-14h-36.8l-0.4,17.9l4.1,4.4l-4.3,4.6l-0.5,21.6h43.3L290.6,190.6z M315.1,208l-2.3-13h8.4l3.8,3.5       l2,9.5h15.7l-4.4-16.6l-5.5-4.7l3-4.6l-5.9-22.6h-36.8l6.3,48.5H315.1z M319.6,173.5l0.5,2.3l-2.3,3.1h-8l-1-5.4H319.6z        M363.2,190.6h-18.6l5,17.4h43.3l-7.3-17.4L361,173.5h17.5l-5.8-14h-36.8l4,14L363.2,190.6z M75.9,218.8l-49.7,92.4h24.6       l12.7-26.3H104l25.1-66H75.9z M94.5,253.9H78.3L83,244h15.8L94.5,253.9z M157,218.8h-19.3l-32.8,92.4h67.9l6.9-34.9h-39.8       L157,218.8z M194,251.2l4.9,8.2l-7.8,8.7l-7.4,43h67.9l0.4-34.9h-36.3l13.7-16.8L219.1,244h33.4l0.3-25.2h-53.3L194,251.2z        M261.3,218.8l1.2,92.4h24.6l-0.9-13.2h18.2l1.5,13.2h24.6l-15.8-92.4H261.3z M283.8,264.4l-1.4-20.4h15.8l2.3,20.4H283.8z        M359.4,244h25.9l-8.9-25.2h-53.3L328,244l34.6,32.3h-28.3l6.9,34.9h67.9l-12.4-34.9L359.4,244z M469.2,276.3h-36.3l4.4-16.8       L418.4,244h33.4l-13.6-25.2h-32.6l9.9-10.8l-8.5-17.4h-14.8l12.4,28.2H385l12.3,32.4l9.4,8.2l-3,8.7l16.4,43H488L469.2,276.3z"/>
				</g>
				<g>
					<path fill="#3B483B" d="M119.9,194h26.5l12.5-35.5h-36.8L98.5,207h15.7L119.9,194z M129.3,172.5H140l-2.1,5.4H127L129.3,172.5z        M164.4,207l1.8-6.4H178l-1.6,6.4h15.7l9.7-48.5h-36.8L148.8,207H164.4z M174.2,172.5h10.7l-2.7,10.9h-11.1L174.2,172.5z        M214.7,207l1.7-13h26.5l1.6-35.5h-36.8L199,207H214.7z M219.2,172.5h10.7l-0.5,5.4h-10.9L219.2,172.5z M290.6,189.6h-23.9       l7.7-8.8l-8.2-8.3h22.6l-1.5-14h-36.8l-0.4,17.9l4.1,4.4l-4.3,4.6l-0.5,21.6h43.3L290.6,189.6z M315.1,207l-2.3-13h8.4l3.8,3.5       l2,9.5h15.7l-4.4-16.6l-5.5-4.7l3-4.6l-5.9-22.6h-36.8l6.3,48.5H315.1z M319.6,172.5l0.5,2.3l-2.3,3.1h-8l-1-5.4H319.6z        M363.2,189.6h-18.6l5,17.4h43.3l-7.3-17.4L361,172.5h17.5l-5.8-14h-36.8l4,14L363.2,189.6z M75.9,217.8l-49.7,92.4h24.6       l12.7-26.3H104l25.1-66H75.9z M94.5,252.9H78.3L83,243h15.8L94.5,252.9z M157,217.8h-19.3l-32.8,92.4h67.9l6.9-34.9h-39.8       L157,217.8z M194,250.2l4.9,8.2l-7.8,8.7l-7.4,43h67.9l0.4-34.9h-36.3l13.7-16.8L219.1,243h33.4l0.3-25.2h-53.3L194,250.2z        M261.3,217.8l1.2,92.4h24.6l-0.9-13.2h18.2l1.5,13.2h24.6l-15.8-92.4H261.3z M283.8,263.4l-1.4-20.4h15.8l2.3,20.4H283.8z        M359.4,243h25.9l-8.9-25.2h-53.3L328,243l34.6,32.3h-28.3l6.9,34.9h67.9l-12.4-34.9L359.4,243z M469.2,275.3h-36.3l4.4-16.8       L418.4,243h33.4l-13.6-25.2h-32.6l9.9-10.8l-8.5-17.4h-14.8l12.4,28.2H385l12.3,32.4l9.4,8.2l-3,8.7l16.4,43H488L469.2,275.3z"/>
				</g>
				<g>
					<path fill="#3B483B" d="M119.9,193h26.5l12.5-35.5h-36.8L98.5,206h15.7L119.9,193z M129.3,171.5H140l-2.1,5.4H127L129.3,171.5z        M164.4,206l1.8-6.4H178l-1.6,6.4h15.7l9.7-48.5h-36.8L148.8,206H164.4z M174.2,171.5h10.7l-2.7,10.9h-11.1L174.2,171.5z        M214.7,206l1.7-13h26.5l1.6-35.5h-36.8L199,206H214.7z M219.2,171.5h10.7l-0.5,5.4h-10.9L219.2,171.5z M290.6,188.6h-23.9       l7.7-8.8l-8.2-8.3h22.6l-1.5-14h-36.8l-0.4,17.9l4.1,4.4l-4.3,4.6l-0.5,21.6h43.3L290.6,188.6z M315.1,206l-2.3-13h8.4l3.8,3.5       l2,9.5h15.7l-4.4-16.6l-5.5-4.7l3-4.6l-5.9-22.6h-36.8l6.3,48.5H315.1z M319.6,171.5l0.5,2.3l-2.3,3.1h-8l-1-5.4H319.6z        M363.2,188.6h-18.6l5,17.4h43.3l-7.3-17.4L361,171.5h17.5l-5.8-14h-36.8l4,14L363.2,188.6z M75.9,216.8l-49.7,92.4h24.6       l12.7-26.3H104l25.1-66H75.9z M94.5,251.9H78.3L83,242h15.8L94.5,251.9z M157,216.8h-19.3l-32.8,92.4h67.9l6.9-34.9h-39.8       L157,216.8z M194,249.2l4.9,8.2l-7.8,8.7l-7.4,43h67.9l0.4-34.9h-36.3l13.7-16.8L219.1,242h33.4l0.3-25.2h-53.3L194,249.2z        M261.3,216.8l1.2,92.4h24.6l-0.9-13.2h18.2l1.5,13.2h24.6l-15.8-92.4H261.3z M283.8,262.4l-1.4-20.4h15.8l2.3,20.4H283.8z        M359.4,242h25.9l-8.9-25.2h-53.3L328,242l34.6,32.3h-28.3l6.9,34.9h67.9l-12.4-34.9L359.4,242z M469.2,274.3h-36.3l4.4-16.8       L418.4,242h33.4l-13.6-25.2h-32.6l9.9-10.8l-8.5-17.4h-14.8l12.4,28.2H385l12.3,32.4l9.4,8.2l-3,8.7l16.4,43H488L469.2,274.3z"/>
				</g>
				<g>
					<path fill="#3B483B" d="M119.9,192h26.5l12.5-35.5h-36.8L98.5,205h15.7L119.9,192z M129.3,170.5H140l-2.1,5.4H127L129.3,170.5z        M164.4,205l1.8-6.4H178l-1.6,6.4h15.7l9.7-48.5h-36.8L148.8,205H164.4z M174.2,170.5h10.7l-2.7,10.9h-11.1L174.2,170.5z        M214.7,205l1.7-13h26.5l1.6-35.5h-36.8L199,205H214.7z M219.2,170.5h10.7l-0.5,5.4h-10.9L219.2,170.5z M290.6,187.6h-23.9       l7.7-8.8l-8.2-8.3h22.6l-1.5-14h-36.8l-0.4,17.9l4.1,4.4l-4.3,4.6l-0.5,21.6h43.3L290.6,187.6z M315.1,205l-2.3-13h8.4l3.8,3.5       l2,9.5h15.7l-4.4-16.6l-5.5-4.7l3-4.6l-5.9-22.6h-36.8l6.3,48.5H315.1z M319.6,170.5l0.5,2.3l-2.3,3.1h-8l-1-5.4H319.6z        M363.2,187.6h-18.6l5,17.4h43.3l-7.3-17.4L361,170.5h17.5l-5.8-14h-36.8l4,14L363.2,187.6z M75.9,215.8l-49.7,92.4h24.6       l12.7-26.3H104l25.1-66H75.9z M94.5,250.9H78.3L83,241h15.8L94.5,250.9z M157,215.8h-19.3l-32.8,92.4h67.9l6.9-34.9h-39.8       L157,215.8z M194,248.2l4.9,8.2l-7.8,8.7l-7.4,43h67.9l0.4-34.9h-36.3l13.7-16.8L219.1,241h33.4l0.3-25.2h-53.3L194,248.2z        M261.3,215.8l1.2,92.4h24.6l-0.9-13.2h18.2l1.5,13.2h24.6l-15.8-92.4H261.3z M283.8,261.4l-1.4-20.4h15.8l2.3,20.4H283.8z        M359.4,241h25.9l-8.9-25.2h-53.3L328,241l34.6,32.3h-28.3l6.9,34.9h67.9l-12.4-34.9L359.4,241z M469.2,273.3h-36.3l4.4-16.8       L418.4,241h33.4l-13.6-25.2h-32.6l9.9-10.8l-8.5-17.4h-14.8l12.4,28.2H385l12.3,32.4l9.4,8.2l-3,8.7l16.4,43H488L469.2,273.3z"/>
				</g>
				<g>
					<path fill="#3B483B" d="M119.9,191h26.5l12.5-35.5h-36.8L98.5,204h15.7L119.9,191z M129.3,169.5H140l-2.1,5.4H127L129.3,169.5z        M164.4,204l1.8-6.4H178l-1.6,6.4h15.7l9.7-48.5h-36.8L148.8,204H164.4z M174.2,169.5h10.7l-2.7,10.9h-11.1L174.2,169.5z        M214.7,204l1.7-13h26.5l1.6-35.5h-36.8L199,204H214.7z M219.2,169.5h10.7l-0.5,5.4h-10.9L219.2,169.5z M290.6,186.6h-23.9       l7.7-8.8l-8.2-8.3h22.6l-1.5-14h-36.8l-0.4,17.9l4.1,4.4l-4.3,4.6l-0.5,21.6h43.3L290.6,186.6z M315.1,204l-2.3-13h8.4l3.8,3.5       l2,9.5h15.7l-4.4-16.6l-5.5-4.7l3-4.6l-5.9-22.6h-36.8l6.3,48.5H315.1z M319.6,169.5l0.5,2.3l-2.3,3.1h-8l-1-5.4H319.6z        M363.2,186.6h-18.6l5,17.4h43.3l-7.3-17.4L361,169.5h17.5l-5.8-14h-36.8l4,14L363.2,186.6z M75.9,214.8l-49.7,92.4h24.6       l12.7-26.3H104l25.1-66H75.9z M94.5,249.9H78.3L83,240h15.8L94.5,249.9z M157,214.8h-19.3l-32.8,92.4h67.9l6.9-34.9h-39.8       L157,214.8z M194,247.2l4.9,8.2l-7.8,8.7l-7.4,43h67.9l0.4-34.9h-36.3l13.7-16.8L219.1,240h33.4l0.3-25.2h-53.3L194,247.2z        M261.3,214.8l1.2,92.4h24.6l-0.9-13.2h18.2l1.5,13.2h24.6l-15.8-92.4H261.3z M283.8,260.4l-1.4-20.4h15.8l2.3,20.4H283.8z        M359.4,240h25.9l-8.9-25.2h-53.3L328,240l34.6,32.3h-28.3l6.9,34.9h67.9l-12.4-34.9L359.4,240z M469.2,272.3h-36.3l4.4-16.8       L418.4,240h33.4l-13.6-25.2h-32.6l9.9-10.8l-8.5-17.4h-14.8l12.4,28.2H385l12.3,32.4l9.4,8.2l-3,8.7l16.4,43H488L469.2,272.3z"/>
				</g>
				<g>
					<path fill="#3B483B" d="M119.9,190h26.5l12.5-35.5h-36.8L98.5,203h15.7L119.9,190z M129.3,168.5H140l-2.1,5.4H127L129.3,168.5z        M164.4,203l1.8-6.4H178l-1.6,6.4h15.7l9.7-48.5h-36.8L148.8,203H164.4z M174.2,168.5h10.7l-2.7,10.9h-11.1L174.2,168.5z        M214.7,203l1.7-13h26.5l1.6-35.5h-36.8L199,203H214.7z M219.2,168.5h10.7l-0.5,5.4h-10.9L219.2,168.5z M290.6,185.6h-23.9       l7.7-8.8l-8.2-8.3h22.6l-1.5-14h-36.8l-0.4,17.9l4.1,4.4l-4.3,4.6l-0.5,21.6h43.3L290.6,185.6z M315.1,203l-2.3-13h8.4l3.8,3.5       l2,9.5h15.7l-4.4-16.6l-5.5-4.7l3-4.6l-5.9-22.6h-36.8l6.3,48.5H315.1z M319.6,168.5l0.5,2.3l-2.3,3.1h-8l-1-5.4H319.6z        M363.2,185.6h-18.6l5,17.4h43.3l-7.3-17.4L361,168.5h17.5l-5.8-14h-36.8l4,14L363.2,185.6z M75.9,213.8l-49.7,92.4h24.6       l12.7-26.3H104l25.1-66H75.9z M94.5,248.9H78.3L83,239h15.8L94.5,248.9z M157,213.8h-19.3l-32.8,92.4h67.9l6.9-34.9h-39.8       L157,213.8z M194,246.2l4.9,8.2l-7.8,8.7l-7.4,43h67.9l0.4-34.9h-36.3l13.7-16.8L219.1,239h33.4l0.3-25.2h-53.3L194,246.2z        M261.3,213.8l1.2,92.4h24.6l-0.9-13.2h18.2l1.5,13.2h24.6l-15.8-92.4H261.3z M283.8,259.4l-1.4-20.4h15.8l2.3,20.4H283.8z        M359.4,239h25.9l-8.9-25.2h-53.3L328,239l34.6,32.3h-28.3l6.9,34.9h67.9l-12.4-34.9L359.4,239z M469.2,271.3h-36.3l4.4-16.8       L418.4,239h33.4l-13.6-25.2h-32.6l9.9-10.8l-8.5-17.4h-14.8l12.4,28.2H385l12.3,32.4l9.4,8.2l-3,8.7l16.4,43H488L469.2,271.3z"/>
				</g>
				<g>
					<path fill="#3B483B" d="M119.9,189h26.5l12.5-35.5h-36.8L98.5,202h15.7L119.9,189z M129.3,167.5H140l-2.1,5.4H127L129.3,167.5z        M164.4,202l1.8-6.4H178l-1.6,6.4h15.7l9.7-48.5h-36.8L148.8,202H164.4z M174.2,167.5h10.7l-2.7,10.9h-11.1L174.2,167.5z        M214.7,202l1.7-13h26.5l1.6-35.5h-36.8L199,202H214.7z M219.2,167.5h10.7l-0.5,5.4h-10.9L219.2,167.5z M290.6,184.6h-23.9       l7.7-8.8l-8.2-8.3h22.6l-1.5-14h-36.8l-0.4,17.9l4.1,4.4l-4.3,4.6l-0.5,21.6h43.3L290.6,184.6z M315.1,202l-2.3-13h8.4l3.8,3.5       l2,9.5h15.7l-4.4-16.6l-5.5-4.7l3-4.6l-5.9-22.6h-36.8l6.3,48.5H315.1z M319.6,167.5l0.5,2.3l-2.3,3.1h-8l-1-5.4H319.6z        M363.2,184.6h-18.6l5,17.4h43.3l-7.3-17.4L361,167.5h17.5l-5.8-14h-36.8l4,14L363.2,184.6z M75.9,212.8l-49.7,92.4h24.6       l12.7-26.3H104l25.1-66H75.9z M94.5,247.9H78.3L83,238h15.8L94.5,247.9z M157,212.8h-19.3l-32.8,92.4h67.9l6.9-34.9h-39.8       L157,212.8z M194,245.2l4.9,8.2l-7.8,8.7l-7.4,43h67.9l0.4-34.9h-36.3l13.7-16.8L219.1,238h33.4l0.3-25.2h-53.3L194,245.2z        M261.3,212.8l1.2,92.4h24.6l-0.9-13.2h18.2l1.5,13.2h24.6l-15.8-92.4H261.3z M283.8,258.4l-1.4-20.4h15.8l2.3,20.4H283.8z        M359.4,238h25.9l-8.9-25.2h-53.3L328,238l34.6,32.3h-28.3l6.9,34.9h67.9l-12.4-34.9L359.4,238z M469.2,270.3h-36.3l4.4-16.8       L418.4,238h33.4l-13.6-25.2h-32.6l9.9-10.8l-8.5-17.4h-14.8l12.4,28.2H385l12.3,32.4l9.4,8.2l-3,8.7l16.4,43H488L469.2,270.3z"/>
				</g>
				<g>
					<path fill="#3B483B" d="M119.9,188h26.5l12.5-35.5h-36.8L98.5,201h15.7L119.9,188z M129.3,166.5H140l-2.1,5.4H127L129.3,166.5z        M164.4,201l1.8-6.4H178l-1.6,6.4h15.7l9.7-48.5h-36.8L148.8,201H164.4z M174.2,166.5h10.7l-2.7,10.9h-11.1L174.2,166.5z        M214.7,201l1.7-13h26.5l1.6-35.5h-36.8L199,201H214.7z M219.2,166.5h10.7l-0.5,5.4h-10.9L219.2,166.5z M290.6,183.6h-23.9       l7.7-8.8l-8.2-8.3h22.6l-1.5-14h-36.8l-0.4,17.9l4.1,4.4l-4.3,4.6l-0.5,21.6h43.3L290.6,183.6z M315.1,201l-2.3-13h8.4l3.8,3.5       l2,9.5h15.7l-4.4-16.6l-5.5-4.7l3-4.6l-5.9-22.6h-36.8l6.3,48.5H315.1z M319.6,166.5l0.5,2.3l-2.3,3.1h-8l-1-5.4H319.6z        M363.2,183.6h-18.6l5,17.4h43.3l-7.3-17.4L361,166.5h17.5l-5.8-14h-36.8l4,14L363.2,183.6z M75.9,211.8l-49.7,92.4h24.6       l12.7-26.3H104l25.1-66H75.9z M94.5,246.9H78.3L83,237h15.8L94.5,246.9z M157,211.8h-19.3l-32.8,92.4h67.9l6.9-34.9h-39.8       L157,211.8z M194,244.2l4.9,8.2l-7.8,8.7l-7.4,43h67.9l0.4-34.9h-36.3l13.7-16.8L219.1,237h33.4l0.3-25.2h-53.3L194,244.2z        M261.3,211.8l1.2,92.4h24.6l-0.9-13.2h18.2l1.5,13.2h24.6l-15.8-92.4H261.3z M283.8,257.4l-1.4-20.4h15.8l2.3,20.4H283.8z        M359.4,237h25.9l-8.9-25.2h-53.3L328,237l34.6,32.3h-28.3l6.9,34.9h67.9l-12.4-34.9L359.4,237z M469.2,269.3h-36.3l4.4-16.8       L418.4,237h33.4l-13.6-25.2h-32.6l9.9-10.8l-8.5-17.4h-14.8l12.4,28.2H385l12.3,32.4l9.4,8.2l-3,8.7l16.4,43H488L469.2,269.3z"/>
				</g>
				<g>
					<path fill="#3B483B" d="M119.9,187h26.5l12.5-35.5h-36.8L98.5,200h15.7L119.9,187z M129.3,165.5H140l-2.1,5.4H127L129.3,165.5z        M164.4,200l1.8-6.4H178l-1.6,6.4h15.7l9.7-48.5h-36.8L148.8,200H164.4z M174.2,165.5h10.7l-2.7,10.9h-11.1L174.2,165.5z        M214.7,200l1.7-13h26.5l1.6-35.5h-36.8L199,200H214.7z M219.2,165.5h10.7l-0.5,5.4h-10.9L219.2,165.5z M290.6,182.6h-23.9       l7.7-8.8l-8.2-8.3h22.6l-1.5-14h-36.8l-0.4,17.9l4.1,4.4l-4.3,4.6l-0.5,21.6h43.3L290.6,182.6z M315.1,200l-2.3-13h8.4l3.8,3.5       l2,9.5h15.7l-4.4-16.6l-5.5-4.7l3-4.6l-5.9-22.6h-36.8l6.3,48.5H315.1z M319.6,165.5l0.5,2.3l-2.3,3.1h-8l-1-5.4H319.6z        M363.2,182.6h-18.6l5,17.4h43.3l-7.3-17.4L361,165.5h17.5l-5.8-14h-36.8l4,14L363.2,182.6z M75.9,210.8l-49.7,92.4h24.6       l12.7-26.3H104l25.1-66H75.9z M94.5,245.9H78.3L83,236h15.8L94.5,245.9z M157,210.8h-19.3l-32.8,92.4h67.9l6.9-34.9h-39.8       L157,210.8z M194,243.2l4.9,8.2l-7.8,8.7l-7.4,43h67.9l0.4-34.9h-36.3l13.7-16.8L219.1,236h33.4l0.3-25.2h-53.3L194,243.2z        M261.3,210.8l1.2,92.4h24.6l-0.9-13.2h18.2l1.5,13.2h24.6l-15.8-92.4H261.3z M283.8,256.4l-1.4-20.4h15.8l2.3,20.4H283.8z        M359.4,236h25.9l-8.9-25.2h-53.3L328,236l34.6,32.3h-28.3l6.9,34.9h67.9l-12.4-34.9L359.4,236z M469.2,268.3h-36.3l4.4-16.8       L418.4,236h33.4l-13.6-25.2h-32.6l9.9-10.8l-8.5-17.4h-14.8l12.4,28.2H385l12.3,32.4l9.4,8.2l-3,8.7l16.4,43H488L469.2,268.3z"/>
				</g>
				<g>
					<path fill="#3B483B" d="M119.9,186h26.5l12.5-35.5h-36.8L98.5,199h15.7L119.9,186z M129.3,164.5H140l-2.1,5.4H127L129.3,164.5z        M164.4,199l1.8-6.4H178l-1.6,6.4h15.7l9.7-48.5h-36.8L148.8,199H164.4z M174.2,164.5h10.7l-2.7,10.9h-11.1L174.2,164.5z        M214.7,199l1.7-13h26.5l1.6-35.5h-36.8L199,199H214.7z M219.2,164.5h10.7l-0.5,5.4h-10.9L219.2,164.5z M290.6,181.6h-23.9       l7.7-8.8l-8.2-8.3h22.6l-1.5-14h-36.8l-0.4,17.9l4.1,4.4l-4.3,4.6l-0.5,21.6h43.3L290.6,181.6z M315.1,199l-2.3-13h8.4l3.8,3.5       l2,9.5h15.7l-4.4-16.6l-5.5-4.7l3-4.6l-5.9-22.6h-36.8l6.3,48.5H315.1z M319.6,164.5l0.5,2.3l-2.3,3.1h-8l-1-5.4H319.6z        M363.2,181.6h-18.6l5,17.4h43.3l-7.3-17.4L361,164.5h17.5l-5.8-14h-36.8l4,14L363.2,181.6z M75.9,209.8l-49.7,92.4h24.6       l12.7-26.3H104l25.1-66H75.9z M94.5,244.9H78.3L83,235h15.8L94.5,244.9z M157,209.8h-19.3l-32.8,92.4h67.9l6.9-34.9h-39.8       L157,209.8z M194,242.2l4.9,8.2l-7.8,8.7l-7.4,43h67.9l0.4-34.9h-36.3l13.7-16.8L219.1,235h33.4l0.3-25.2h-53.3L194,242.2z        M261.3,209.8l1.2,92.4h24.6l-0.9-13.2h18.2l1.5,13.2h24.6l-15.8-92.4H261.3z M283.8,255.4l-1.4-20.4h15.8l2.3,20.4H283.8z        M359.4,235h25.9l-8.9-25.2h-53.3L328,235l34.6,32.3h-28.3l6.9,34.9h67.9l-12.4-34.9L359.4,235z M469.2,267.3h-36.3l4.4-16.8       L418.4,235h33.4l-13.6-25.2h-32.6l9.9-10.8l-8.5-17.4h-14.8l12.4,28.2H385l12.3,32.4l9.4,8.2l-3,8.7l16.4,43H488L469.2,267.3z"/>
				</g>
				<g>
					<path fill="#3B483B" d="M119.9,185h26.5l12.5-35.5h-36.8L98.5,198h15.7L119.9,185z M129.3,163.5H140l-2.1,5.4H127L129.3,163.5z        M164.4,198l1.8-6.4H178l-1.6,6.4h15.7l9.7-48.5h-36.8L148.8,198H164.4z M174.2,163.5h10.7l-2.7,10.9h-11.1L174.2,163.5z        M214.7,198l1.7-13h26.5l1.6-35.5h-36.8L199,198H214.7z M219.2,163.5h10.7l-0.5,5.4h-10.9L219.2,163.5z M290.6,180.6h-23.9       l7.7-8.8l-8.2-8.3h22.6l-1.5-14h-36.8l-0.4,17.9l4.1,4.4l-4.3,4.6l-0.5,21.6h43.3L290.6,180.6z M315.1,198l-2.3-13h8.4l3.8,3.5       l2,9.5h15.7l-4.4-16.6l-5.5-4.7l3-4.6l-5.9-22.6h-36.8l6.3,48.5H315.1z M319.6,163.5l0.5,2.3l-2.3,3.1h-8l-1-5.4H319.6z        M363.2,180.6h-18.6l5,17.4h43.3l-7.3-17.4L361,163.5h17.5l-5.8-14h-36.8l4,14L363.2,180.6z M75.9,208.8l-49.7,92.4h24.6       l12.7-26.3H104l25.1-66H75.9z M94.5,243.9H78.3L83,234h15.8L94.5,243.9z M157,208.8h-19.3l-32.8,92.4h67.9l6.9-34.9h-39.8       L157,208.8z M194,241.2l4.9,8.2l-7.8,8.7l-7.4,43h67.9l0.4-34.9h-36.3l13.7-16.8L219.1,234h33.4l0.3-25.2h-53.3L194,241.2z        M261.3,208.8l1.2,92.4h24.6l-0.9-13.2h18.2l1.5,13.2h24.6l-15.8-92.4H261.3z M283.8,254.4l-1.4-20.4h15.8l2.3,20.4H283.8z        M359.4,234h25.9l-8.9-25.2h-53.3L328,234l34.6,32.3h-28.3l6.9,34.9h67.9l-12.4-34.9L359.4,234z M469.2,266.3h-36.3l4.4-16.8       L418.4,234h33.4l-13.6-25.2h-32.6l9.9-10.8l-8.5-17.4h-14.8l12.4,28.2H385l12.3,32.4l9.4,8.2l-3,8.7l16.4,43H488L469.2,266.3z"/>
				</g>
				<g>
					<path fill="#3B483B" d="M119.9,184h26.5l12.5-35.5h-36.8L98.5,197h15.7L119.9,184z M129.3,162.5H140l-2.1,5.4H127L129.3,162.5z        M164.4,197l1.8-6.4H178l-1.6,6.4h15.7l9.7-48.5h-36.8L148.8,197H164.4z M174.2,162.5h10.7l-2.7,10.9h-11.1L174.2,162.5z        M214.7,197l1.7-13h26.5l1.6-35.5h-36.8L199,197H214.7z M219.2,162.5h10.7l-0.5,5.4h-10.9L219.2,162.5z M290.6,179.6h-23.9       l7.7-8.8l-8.2-8.3h22.6l-1.5-14h-36.8l-0.4,17.9l4.1,4.4l-4.3,4.6l-0.5,21.6h43.3L290.6,179.6z M315.1,197l-2.3-13h8.4l3.8,3.5       l2,9.5h15.7l-4.4-16.6l-5.5-4.7l3-4.6l-5.9-22.6h-36.8l6.3,48.5H315.1z M319.6,162.5l0.5,2.3l-2.3,3.1h-8l-1-5.4H319.6z        M363.2,179.6h-18.6l5,17.4h43.3l-7.3-17.4L361,162.5h17.5l-5.8-14h-36.8l4,14L363.2,179.6z M75.9,207.8l-49.7,92.4h24.6       l12.7-26.3H104l25.1-66H75.9z M94.5,242.9H78.3L83,233h15.8L94.5,242.9z M157,207.8h-19.3l-32.8,92.4h67.9l6.9-34.9h-39.8       L157,207.8z M194,240.2l4.9,8.2l-7.8,8.7l-7.4,43h67.9l0.4-34.9h-36.3l13.7-16.8L219.1,233h33.4l0.3-25.2h-53.3L194,240.2z        M261.3,207.8l1.2,92.4h24.6l-0.9-13.2h18.2l1.5,13.2h24.6l-15.8-92.4H261.3z M283.8,253.4l-1.4-20.4h15.8l2.3,20.4H283.8z        M359.4,233h25.9l-8.9-25.2h-53.3L328,233l34.6,32.3h-28.3l6.9,34.9h67.9l-12.4-34.9L359.4,233z M469.2,265.3h-36.3l4.4-16.8       L418.4,233h33.4l-13.6-25.2h-32.6l9.9-10.8l-8.5-17.4h-14.8l12.4,28.2H385l12.3,32.4l9.4,8.2l-3,8.7l16.4,43H488L469.2,265.3z"/>
				</g>
				<g>
					<path fill="#3B483B" d="M119.9,183h26.5l12.5-35.5h-36.8L98.5,196h15.7L119.9,183z M129.3,161.5H140l-2.1,5.4H127L129.3,161.5z        M164.4,196l1.8-6.4H178l-1.6,6.4h15.7l9.7-48.5h-36.8L148.8,196H164.4z M174.2,161.5h10.7l-2.7,10.9h-11.1L174.2,161.5z        M214.7,196l1.7-13h26.5l1.6-35.5h-36.8L199,196H214.7z M219.2,161.5h10.7l-0.5,5.4h-10.9L219.2,161.5z M290.6,178.6h-23.9       l7.7-8.8l-8.2-8.3h22.6l-1.5-14h-36.8l-0.4,17.9l4.1,4.4l-4.3,4.6l-0.5,21.6h43.3L290.6,178.6z M315.1,196l-2.3-13h8.4l3.8,3.5       l2,9.5h15.7l-4.4-16.6l-5.5-4.7l3-4.6l-5.9-22.6h-36.8l6.3,48.5H315.1z M319.6,161.5l0.5,2.3l-2.3,3.1h-8l-1-5.4H319.6z        M363.2,178.6h-18.6l5,17.4h43.3l-7.3-17.4L361,161.5h17.5l-5.8-14h-36.8l4,14L363.2,178.6z M75.9,206.8l-49.7,92.4h24.6       l12.7-26.3H104l25.1-66H75.9z M94.5,241.9H78.3L83,232h15.8L94.5,241.9z M157,206.8h-19.3l-32.8,92.4h67.9l6.9-34.9h-39.8       L157,206.8z M194,239.2l4.9,8.2l-7.8,8.7l-7.4,43h67.9l0.4-34.9h-36.3l13.7-16.8L219.1,232h33.4l0.3-25.2h-53.3L194,239.2z        M261.3,206.8l1.2,92.4h24.6l-0.9-13.2h18.2l1.5,13.2h24.6l-15.8-92.4H261.3z M283.8,252.4l-1.4-20.4h15.8l2.3,20.4H283.8z        M359.4,232h25.9l-8.9-25.2h-53.3L328,232l34.6,32.3h-28.3l6.9,34.9h67.9l-12.4-34.9L359.4,232z M469.2,264.3h-36.3l4.4-16.8       L418.4,232h33.4l-13.6-25.2h-32.6l9.9-10.8l-8.5-17.4h-14.8l12.4,28.2H385l12.3,32.4l9.4,8.2l-3,8.7l16.4,43H488L469.2,264.3z"/>
				</g>
				<g>
					<path fill="#3B483B" d="M119.9,182h26.5l12.5-35.5h-36.8L98.5,195h15.7L119.9,182z M129.3,160.5H140l-2.1,5.4H127L129.3,160.5z        M164.4,195l1.8-6.4H178l-1.6,6.4h15.7l9.7-48.5h-36.8L148.8,195H164.4z M174.2,160.5h10.7l-2.7,10.9h-11.1L174.2,160.5z        M214.7,195l1.7-13h26.5l1.6-35.5h-36.8L199,195H214.7z M219.2,160.5h10.7l-0.5,5.4h-10.9L219.2,160.5z M290.6,177.6h-23.9       l7.7-8.8l-8.2-8.3h22.6l-1.5-14h-36.8l-0.4,17.9l4.1,4.4l-4.3,4.6l-0.5,21.6h43.3L290.6,177.6z M315.1,195l-2.3-13h8.4l3.8,3.5       l2,9.5h15.7l-4.4-16.6l-5.5-4.7l3-4.6l-5.9-22.6h-36.8l6.3,48.5H315.1z M319.6,160.5l0.5,2.3l-2.3,3.1h-8l-1-5.4H319.6z        M363.2,177.6h-18.6l5,17.4h43.3l-7.3-17.4L361,160.5h17.5l-5.8-14h-36.8l4,14L363.2,177.6z M75.9,205.8l-49.7,92.4h24.6       l12.7-26.3H104l25.1-66H75.9z M94.5,240.9H78.3L83,231h15.8L94.5,240.9z M157,205.8h-19.3l-32.8,92.4h67.9l6.9-34.9h-39.8       L157,205.8z M194,238.2l4.9,8.2l-7.8,8.7l-7.4,43h67.9l0.4-34.9h-36.3l13.7-16.8L219.1,231h33.4l0.3-25.2h-53.3L194,238.2z        M261.3,205.8l1.2,92.4h24.6l-0.9-13.2h18.2l1.5,13.2h24.6l-15.8-92.4H261.3z M283.8,251.4l-1.4-20.4h15.8l2.3,20.4H283.8z        M359.4,231h25.9l-8.9-25.2h-53.3L328,231l34.6,32.3h-28.3l6.9,34.9h67.9l-12.4-34.9L359.4,231z M469.2,263.3h-36.3l4.4-16.8       L418.4,231h33.4l-13.6-25.2h-32.6l9.9-10.8l-8.5-17.4h-14.8l12.4,28.2H385l12.3,32.4l9.4,8.2l-3,8.7l16.4,43H488L469.2,263.3z"/>
				</g>
				<g>
					<path fill="#3B483B" d="M119.9,181h26.5l12.5-35.5h-36.8L98.5,194h15.7L119.9,181z M129.3,159.5H140l-2.1,5.4H127L129.3,159.5z        M164.4,194l1.8-6.4H178l-1.6,6.4h15.7l9.7-48.5h-36.8L148.8,194H164.4z M174.2,159.5h10.7l-2.7,10.9h-11.1L174.2,159.5z        M214.7,194l1.7-13h26.5l1.6-35.5h-36.8L199,194H214.7z M219.2,159.5h10.7l-0.5,5.4h-10.9L219.2,159.5z M290.6,176.6h-23.9       l7.7-8.8l-8.2-8.3h22.6l-1.5-14h-36.8l-0.4,17.9l4.1,4.4l-4.3,4.6l-0.5,21.6h43.3L290.6,176.6z M315.1,194l-2.3-13h8.4l3.8,3.5       l2,9.5h15.7l-4.4-16.6l-5.5-4.7l3-4.6l-5.9-22.6h-36.8l6.3,48.5H315.1z M319.6,159.5l0.5,2.3l-2.3,3.1h-8l-1-5.4H319.6z        M363.2,176.6h-18.6l5,17.4h43.3l-7.3-17.4L361,159.5h17.5l-5.8-14h-36.8l4,14L363.2,176.6z M75.9,204.8l-49.7,92.4h24.6       l12.7-26.3H104l25.1-66H75.9z M94.5,239.9H78.3L83,230h15.8L94.5,239.9z M157,204.8h-19.3l-32.8,92.4h67.9l6.9-34.9h-39.8       L157,204.8z M194,237.2l4.9,8.2l-7.8,8.7l-7.4,43h67.9l0.4-34.9h-36.3l13.7-16.8L219.1,230h33.4l0.3-25.2h-53.3L194,237.2z        M261.3,204.8l1.2,92.4h24.6l-0.9-13.2h18.2l1.5,13.2h24.6l-15.8-92.4H261.3z M283.8,250.4l-1.4-20.4h15.8l2.3,20.4H283.8z        M359.4,230h25.9l-8.9-25.2h-53.3L328,230l34.6,32.3h-28.3l6.9,34.9h67.9l-12.4-34.9L359.4,230z M469.2,262.3h-36.3l4.4-16.8       L418.4,230h33.4l-13.6-25.2h-32.6l9.9-10.8l-8.5-17.4h-14.8l12.4,28.2H385l12.3,32.4l9.4,8.2l-3,8.7l16.4,43H488L469.2,262.3z"/>
				</g>
				<g>
					<path fill="#3B483B" d="M119.9,180h26.5l12.5-35.5h-36.8L98.5,193h15.7L119.9,180z M129.3,158.5H140l-2.1,5.4H127L129.3,158.5z        M164.4,193l1.8-6.4H178l-1.6,6.4h15.7l9.7-48.5h-36.8L148.8,193H164.4z M174.2,158.5h10.7l-2.7,10.9h-11.1L174.2,158.5z        M214.7,193l1.7-13h26.5l1.6-35.5h-36.8L199,193H214.7z M219.2,158.5h10.7l-0.5,5.4h-10.9L219.2,158.5z M290.6,175.6h-23.9       l7.7-8.8l-8.2-8.3h22.6l-1.5-14h-36.8l-0.4,17.9l4.1,4.4l-4.3,4.6l-0.5,21.6h43.3L290.6,175.6z M315.1,193l-2.3-13h8.4l3.8,3.5       l2,9.5h15.7l-4.4-16.6l-5.5-4.7l3-4.6l-5.9-22.6h-36.8l6.3,48.5H315.1z M319.6,158.5l0.5,2.3l-2.3,3.1h-8l-1-5.4H319.6z        M363.2,175.6h-18.6l5,17.4h43.3l-7.3-17.4L361,158.5h17.5l-5.8-14h-36.8l4,14L363.2,175.6z M75.9,203.8l-49.7,92.4h24.6       l12.7-26.3H104l25.1-66H75.9z M94.5,238.9H78.3L83,229h15.8L94.5,238.9z M157,203.8h-19.3l-32.8,92.4h67.9l6.9-34.9h-39.8       L157,203.8z M194,236.2l4.9,8.2l-7.8,8.7l-7.4,43h67.9l0.4-34.9h-36.3l13.7-16.8L219.1,229h33.4l0.3-25.2h-53.3L194,236.2z        M261.3,203.8l1.2,92.4h24.6l-0.9-13.2h18.2l1.5,13.2h24.6l-15.8-92.4H261.3z M283.8,249.4l-1.4-20.4h15.8l2.3,20.4H283.8z        M359.4,229h25.9l-8.9-25.2h-53.3L328,229l34.6,32.3h-28.3l6.9,34.9h67.9l-12.4-34.9L359.4,229z M469.2,261.3h-36.3l4.4-16.8       L418.4,229h33.4l-13.6-25.2h-32.6l9.9-10.8l-8.5-17.4h-14.8l12.4,28.2H385l12.3,32.4l9.4,8.2l-3,8.7l16.4,43H488L469.2,261.3z"/>
				</g>
				<g>
					<path fill="#3B483B" d="M119.9,179h26.5l12.5-35.5h-36.8L98.5,192h15.7L119.9,179z M129.3,157.5H140l-2.1,5.4H127L129.3,157.5z        M164.4,192l1.8-6.4H178l-1.6,6.4h15.7l9.7-48.5h-36.8L148.8,192H164.4z M174.2,157.5h10.7l-2.7,10.9h-11.1L174.2,157.5z        M214.7,192l1.7-13h26.5l1.6-35.5h-36.8L199,192H214.7z M219.2,157.5h10.7l-0.5,5.4h-10.9L219.2,157.5z M290.6,174.6h-23.9       l7.7-8.8l-8.2-8.3h22.6l-1.5-14h-36.8l-0.4,17.9l4.1,4.4l-4.3,4.6l-0.5,21.6h43.3L290.6,174.6z M315.1,192l-2.3-13h8.4l3.8,3.5       l2,9.5h15.7l-4.4-16.6l-5.5-4.7l3-4.6l-5.9-22.6h-36.8l6.3,48.5H315.1z M319.6,157.5l0.5,2.3l-2.3,3.1h-8l-1-5.4H319.6z        M363.2,174.6h-18.6l5,17.4h43.3l-7.3-17.4L361,157.5h17.5l-5.8-14h-36.8l4,14L363.2,174.6z M75.9,202.8l-49.7,92.4h24.6       l12.7-26.3H104l25.1-66H75.9z M94.5,237.9H78.3L83,228h15.8L94.5,237.9z M157,202.8h-19.3l-32.8,92.4h67.9l6.9-34.9h-39.8       L157,202.8z M194,235.2l4.9,8.2l-7.8,8.7l-7.4,43h67.9l0.4-34.9h-36.3l13.7-16.8L219.1,228h33.4l0.3-25.2h-53.3L194,235.2z        M261.3,202.8l1.2,92.4h24.6l-0.9-13.2h18.2l1.5,13.2h24.6l-15.8-92.4H261.3z M283.8,248.4l-1.4-20.4h15.8l2.3,20.4H283.8z        M359.4,228h25.9l-8.9-25.2h-53.3L328,228l34.6,32.3h-28.3l6.9,34.9h67.9l-12.4-34.9L359.4,228z M469.2,260.3h-36.3l4.4-16.8       L418.4,228h33.4l-13.6-25.2h-32.6l9.9-10.8l-8.5-17.4h-14.8l12.4,28.2H385l12.3,32.4l9.4,8.2l-3,8.7l16.4,43H488L469.2,260.3z"/>
				</g>
				<g>
					<path fill="#3B483B" d="M119.9,178h26.5l12.5-35.5h-36.8L98.5,191h15.7L119.9,178z M129.3,156.5H140l-2.1,5.4H127L129.3,156.5z        M164.4,191l1.8-6.4H178l-1.6,6.4h15.7l9.7-48.5h-36.8L148.8,191H164.4z M174.2,156.5h10.7l-2.7,10.9h-11.1L174.2,156.5z        M214.7,191l1.7-13h26.5l1.6-35.5h-36.8L199,191H214.7z M219.2,156.5h10.7l-0.5,5.4h-10.9L219.2,156.5z M290.6,173.6h-23.9       l7.7-8.8l-8.2-8.3h22.6l-1.5-14h-36.8l-0.4,17.9l4.1,4.4l-4.3,4.6l-0.5,21.6h43.3L290.6,173.6z M315.1,191l-2.3-13h8.4l3.8,3.5       l2,9.5h15.7l-4.4-16.6l-5.5-4.7l3-4.6l-5.9-22.6h-36.8l6.3,48.5H315.1z M319.6,156.5l0.5,2.3l-2.3,3.1h-8l-1-5.4H319.6z        M363.2,173.6h-18.6l5,17.4h43.3l-7.3-17.4L361,156.5h17.5l-5.8-14h-36.8l4,14L363.2,173.6z M75.9,201.8l-49.7,92.4h24.6       l12.7-26.3H104l25.1-66H75.9z M94.5,236.9H78.3L83,227h15.8L94.5,236.9z M157,201.8h-19.3l-32.8,92.4h67.9l6.9-34.9h-39.8       L157,201.8z M194,234.2l4.9,8.2l-7.8,8.7l-7.4,43h67.9l0.4-34.9h-36.3l13.7-16.8L219.1,227h33.4l0.3-25.2h-53.3L194,234.2z        M261.3,201.8l1.2,92.4h24.6l-0.9-13.2h18.2l1.5,13.2h24.6l-15.8-92.4H261.3z M283.8,247.4l-1.4-20.4h15.8l2.3,20.4H283.8z        M359.4,227h25.9l-8.9-25.2h-53.3L328,227l34.6,32.3h-28.3l6.9,34.9h67.9l-12.4-34.9L359.4,227z M469.2,259.3h-36.3l4.4-16.8       L418.4,227h33.4l-13.6-25.2h-32.6l9.9-10.8l-8.5-17.4h-14.8l12.4,28.2H385l12.3,32.4l9.4,8.2l-3,8.7l16.4,43H488L469.2,259.3z"/>
				</g>
				<g>
					<path fill="#3B483B" d="M119.9,177h26.5l12.5-35.5h-36.8L98.5,190h15.7L119.9,177z M129.3,155.5H140l-2.1,5.4H127L129.3,155.5z        M164.4,190l1.8-6.4H178l-1.6,6.4h15.7l9.7-48.5h-36.8L148.8,190H164.4z M174.2,155.5h10.7l-2.7,10.9h-11.1L174.2,155.5z        M214.7,190l1.7-13h26.5l1.6-35.5h-36.8L199,190H214.7z M219.2,155.5h10.7l-0.5,5.4h-10.9L219.2,155.5z M290.6,172.6h-23.9       l7.7-8.8l-8.2-8.3h22.6l-1.5-14h-36.8l-0.4,17.9l4.1,4.4l-4.3,4.6l-0.5,21.6h43.3L290.6,172.6z M315.1,190l-2.3-13h8.4l3.8,3.5       l2,9.5h15.7l-4.4-16.6l-5.5-4.7l3-4.6l-5.9-22.6h-36.8l6.3,48.5H315.1z M319.6,155.5l0.5,2.3l-2.3,3.1h-8l-1-5.4H319.6z        M363.2,172.6h-18.6l5,17.4h43.3l-7.3-17.4L361,155.5h17.5l-5.8-14h-36.8l4,14L363.2,172.6z M75.9,200.8l-49.7,92.4h24.6       l12.7-26.3H104l25.1-66H75.9z M94.5,235.9H78.3L83,226h15.8L94.5,235.9z M157,200.8h-19.3l-32.8,92.4h67.9l6.9-34.9h-39.8       L157,200.8z M194,233.2l4.9,8.2l-7.8,8.7l-7.4,43h67.9l0.4-34.9h-36.3l13.7-16.8L219.1,226h33.4l0.3-25.2h-53.3L194,233.2z        M261.3,200.8l1.2,92.4h24.6l-0.9-13.2h18.2l1.5,13.2h24.6l-15.8-92.4H261.3z M283.8,246.4l-1.4-20.4h15.8l2.3,20.4H283.8z        M359.4,226h25.9l-8.9-25.2h-53.3L328,226l34.6,32.3h-28.3l6.9,34.9h67.9l-12.4-34.9L359.4,226z M469.2,258.3h-36.3l4.4-16.8       L418.4,226h33.4l-13.6-25.2h-32.6l9.9-10.8l-8.5-17.4h-14.8l12.4,28.2H385l12.3,32.4l9.4,8.2l-3,8.7l16.4,43H488L469.2,258.3z"/>
				</g>
				<g>
					<path fill="#3B483B" d="M119.9,176h26.5l12.5-35.5h-36.8L98.5,189h15.7L119.9,176z M129.3,154.5H140l-2.1,5.4H127L129.3,154.5z        M164.4,189l1.8-6.4H178l-1.6,6.4h15.7l9.7-48.5h-36.8L148.8,189H164.4z M174.2,154.5h10.7l-2.7,10.9h-11.1L174.2,154.5z        M214.7,189l1.7-13h26.5l1.6-35.5h-36.8L199,189H214.7z M219.2,154.5h10.7l-0.5,5.4h-10.9L219.2,154.5z M290.6,171.6h-23.9       l7.7-8.8l-8.2-8.3h22.6l-1.5-14h-36.8l-0.4,17.9l4.1,4.4l-4.3,4.6l-0.5,21.6h43.3L290.6,171.6z M315.1,189l-2.3-13h8.4l3.8,3.5       l2,9.5h15.7l-4.4-16.6l-5.5-4.7l3-4.6l-5.9-22.6h-36.8l6.3,48.5H315.1z M319.6,154.5l0.5,2.3l-2.3,3.1h-8l-1-5.4H319.6z        M363.2,171.6h-18.6l5,17.4h43.3l-7.3-17.4L361,154.5h17.5l-5.8-14h-36.8l4,14L363.2,171.6z M75.9,199.8l-49.7,92.4h24.6       l12.7-26.3H104l25.1-66H75.9z M94.5,234.9H78.3L83,225h15.8L94.5,234.9z M157,199.8h-19.3l-32.8,92.4h67.9l6.9-34.9h-39.8       L157,199.8z M194,232.2l4.9,8.2l-7.8,8.7l-7.4,43h67.9l0.4-34.9h-36.3l13.7-16.8L219.1,225h33.4l0.3-25.2h-53.3L194,232.2z        M261.3,199.8l1.2,92.4h24.6l-0.9-13.2h18.2l1.5,13.2h24.6l-15.8-92.4H261.3z M283.8,245.4l-1.4-20.4h15.8l2.3,20.4H283.8z        M359.4,225h25.9l-8.9-25.2h-53.3L328,225l34.6,32.3h-28.3l6.9,34.9h67.9l-12.4-34.9L359.4,225z M469.2,257.3h-36.3l4.4-16.8       L418.4,225h33.4l-13.6-25.2h-32.6l9.9-10.8l-8.5-17.4h-14.8l12.4,28.2H385l12.3,32.4l9.4,8.2l-3,8.7l16.4,43H488L469.2,257.3z"/>
				</g>
				<g>
					<path fill="#3B483B" d="M119.9,175h26.5l12.5-35.5h-36.8L98.5,188h15.7L119.9,175z M129.3,153.5H140l-2.1,5.4H127L129.3,153.5z        M164.4,188l1.8-6.4H178l-1.6,6.4h15.7l9.7-48.5h-36.8L148.8,188H164.4z M174.2,153.5h10.7l-2.7,10.9h-11.1L174.2,153.5z        M214.7,188l1.7-13h26.5l1.6-35.5h-36.8L199,188H214.7z M219.2,153.5h10.7l-0.5,5.4h-10.9L219.2,153.5z M290.6,170.6h-23.9       l7.7-8.8l-8.2-8.3h22.6l-1.5-14h-36.8l-0.4,17.9l4.1,4.4l-4.3,4.6l-0.5,21.6h43.3L290.6,170.6z M315.1,188l-2.3-13h8.4l3.8,3.5       l2,9.5h15.7l-4.4-16.6l-5.5-4.7l3-4.6l-5.9-22.6h-36.8l6.3,48.5H315.1z M319.6,153.5l0.5,2.3l-2.3,3.1h-8l-1-5.4H319.6z        M363.2,170.6h-18.6l5,17.4h43.3l-7.3-17.4L361,153.5h17.5l-5.8-14h-36.8l4,14L363.2,170.6z M75.9,198.8l-49.7,92.4h24.6       l12.7-26.3H104l25.1-66H75.9z M94.5,233.9H78.3L83,224h15.8L94.5,233.9z M157,198.8h-19.3l-32.8,92.4h67.9l6.9-34.9h-39.8       L157,198.8z M194,231.2l4.9,8.2l-7.8,8.7l-7.4,43h67.9l0.4-34.9h-36.3l13.7-16.8L219.1,224h33.4l0.3-25.2h-53.3L194,231.2z        M261.3,198.8l1.2,92.4h24.6l-0.9-13.2h18.2l1.5,13.2h24.6l-15.8-92.4H261.3z M283.8,244.4l-1.4-20.4h15.8l2.3,20.4H283.8z        M359.4,224h25.9l-8.9-25.2h-53.3L328,224l34.6,32.3h-28.3l6.9,34.9h67.9l-12.4-34.9L359.4,224z M469.2,256.3h-36.3l4.4-16.8       L418.4,224h33.4l-13.6-25.2h-32.6l9.9-10.8l-8.5-17.4h-14.8l12.4,28.2H385l12.3,32.4l9.4,8.2l-3,8.7l16.4,43H488L469.2,256.3z"/>
				</g>
				<g>
					<path fill="#3B483B" d="M119.9,174h26.5l12.5-35.5h-36.8L98.5,187h15.7L119.9,174z M129.3,152.5H140l-2.1,5.4H127L129.3,152.5z        M164.4,187l1.8-6.4H178l-1.6,6.4h15.7l9.7-48.5h-36.8L148.8,187H164.4z M174.2,152.5h10.7l-2.7,10.9h-11.1L174.2,152.5z        M214.7,187l1.7-13h26.5l1.6-35.5h-36.8L199,187H214.7z M219.2,152.5h10.7l-0.5,5.4h-10.9L219.2,152.5z M290.6,169.6h-23.9       l7.7-8.8l-8.2-8.3h22.6l-1.5-14h-36.8l-0.4,17.9l4.1,4.4l-4.3,4.6l-0.5,21.6h43.3L290.6,169.6z M315.1,187l-2.3-13h8.4l3.8,3.5       l2,9.5h15.7l-4.4-16.6l-5.5-4.7l3-4.6l-5.9-22.6h-36.8l6.3,48.5H315.1z M319.6,152.5l0.5,2.3l-2.3,3.1h-8l-1-5.4H319.6z        M363.2,169.6h-18.6l5,17.4h43.3l-7.3-17.4L361,152.5h17.5l-5.8-14h-36.8l4,14L363.2,169.6z M75.9,197.8l-49.7,92.4h24.6       l12.7-26.3H104l25.1-66H75.9z M94.5,232.9H78.3L83,223h15.8L94.5,232.9z M157,197.8h-19.3l-32.8,92.4h67.9l6.9-34.9h-39.8       L157,197.8z M194,230.2l4.9,8.2l-7.8,8.7l-7.4,43h67.9l0.4-34.9h-36.3l13.7-16.8L219.1,223h33.4l0.3-25.2h-53.3L194,230.2z        M261.3,197.8l1.2,92.4h24.6l-0.9-13.2h18.2l1.5,13.2h24.6l-15.8-92.4H261.3z M283.8,243.4l-1.4-20.4h15.8l2.3,20.4H283.8z        M359.4,223h25.9l-8.9-25.2h-53.3L328,223l34.6,32.3h-28.3l6.9,34.9h67.9l-12.4-34.9L359.4,223z M469.2,255.3h-36.3l4.4-16.8       L418.4,223h33.4l-13.6-25.2h-32.6l9.9-10.8l-8.5-17.4h-14.8l12.4,28.2H385l12.3,32.4l9.4,8.2l-3,8.7l16.4,43H488L469.2,255.3z"/>
				</g>
				<g>
					<path fill="#3B483B" d="M119.9,173h26.5l12.5-35.5h-36.8L98.5,186h15.7L119.9,173z M129.3,151.5H140l-2.1,5.4H127L129.3,151.5z        M164.4,186l1.8-6.4H178l-1.6,6.4h15.7l9.7-48.5h-36.8L148.8,186H164.4z M174.2,151.5h10.7l-2.7,10.9h-11.1L174.2,151.5z        M214.7,186l1.7-13h26.5l1.6-35.5h-36.8L199,186H214.7z M219.2,151.5h10.7l-0.5,5.4h-10.9L219.2,151.5z M290.6,168.6h-23.9       l7.7-8.8l-8.2-8.3h22.6l-1.5-14h-36.8l-0.4,17.9l4.1,4.4l-4.3,4.6l-0.5,21.6h43.3L290.6,168.6z M315.1,186l-2.3-13h8.4l3.8,3.5       l2,9.5h15.7l-4.4-16.6l-5.5-4.7l3-4.6l-5.9-22.6h-36.8l6.3,48.5H315.1z M319.6,151.5l0.5,2.3l-2.3,3.1h-8l-1-5.4H319.6z        M363.2,168.6h-18.6l5,17.4h43.3l-7.3-17.4L361,151.5h17.5l-5.8-14h-36.8l4,14L363.2,168.6z M75.9,196.8l-49.7,92.4h24.6       l12.7-26.3H104l25.1-66H75.9z M94.5,231.9H78.3L83,222h15.8L94.5,231.9z M157,196.8h-19.3l-32.8,92.4h67.9l6.9-34.9h-39.8       L157,196.8z M194,229.2l4.9,8.2l-7.8,8.7l-7.4,43h67.9l0.4-34.9h-36.3l13.7-16.8L219.1,222h33.4l0.3-25.2h-53.3L194,229.2z        M261.3,196.8l1.2,92.4h24.6l-0.9-13.2h18.2l1.5,13.2h24.6l-15.8-92.4H261.3z M283.8,242.4l-1.4-20.4h15.8l2.3,20.4H283.8z        M359.4,222h25.9l-8.9-25.2h-53.3L328,222l34.6,32.3h-28.3l6.9,34.9h67.9l-12.4-34.9L359.4,222z M469.2,254.3h-36.3l4.4-16.8       L418.4,222h33.4l-13.6-25.2h-32.6l9.9-10.8l-8.5-17.4h-14.8l12.4,28.2H385l12.3,32.4l9.4,8.2l-3,8.7l16.4,43H488L469.2,254.3z"/>
				</g>
				<g>
					<path fill="#3B483B" d="M119.9,172h26.5l12.5-35.5h-36.8L98.5,185h15.7L119.9,172z M129.3,150.5H140l-2.1,5.4H127L129.3,150.5z        M164.4,185l1.8-6.4H178l-1.6,6.4h15.7l9.7-48.5h-36.8L148.8,185H164.4z M174.2,150.5h10.7l-2.7,10.9h-11.1L174.2,150.5z        M214.7,185l1.7-13h26.5l1.6-35.5h-36.8L199,185H214.7z M219.2,150.5h10.7l-0.5,5.4h-10.9L219.2,150.5z M290.6,167.6h-23.9       l7.7-8.8l-8.2-8.3h22.6l-1.5-14h-36.8l-0.4,17.9l4.1,4.4l-4.3,4.6l-0.5,21.6h43.3L290.6,167.6z M315.1,185l-2.3-13h8.4l3.8,3.5       l2,9.5h15.7l-4.4-16.6l-5.5-4.7l3-4.6l-5.9-22.6h-36.8l6.3,48.5H315.1z M319.6,150.5l0.5,2.3l-2.3,3.1h-8l-1-5.4H319.6z        M363.2,167.6h-18.6l5,17.4h43.3l-7.3-17.4L361,150.5h17.5l-5.8-14h-36.8l4,14L363.2,167.6z M75.9,195.8l-49.7,92.4h24.6       l12.7-26.3H104l25.1-66H75.9z M94.5,230.9H78.3L83,221h15.8L94.5,230.9z M157,195.8h-19.3l-32.8,92.4h67.9l6.9-34.9h-39.8       L157,195.8z M194,228.2l4.9,8.2l-7.8,8.7l-7.4,43h67.9l0.4-34.9h-36.3l13.7-16.8L219.1,221h33.4l0.3-25.2h-53.3L194,228.2z        M261.3,195.8l1.2,92.4h24.6l-0.9-13.2h18.2l1.5,13.2h24.6l-15.8-92.4H261.3z M283.8,241.4l-1.4-20.4h15.8l2.3,20.4H283.8z        M359.4,221h25.9l-8.9-25.2h-53.3L328,221l34.6,32.3h-28.3l6.9,34.9h67.9l-12.4-34.9L359.4,221z M469.2,253.3h-36.3l4.4-16.8       L418.4,221h33.4l-13.6-25.2h-32.6l9.9-10.8l-8.5-17.4h-14.8l12.4,28.2H385l12.3,32.4l9.4,8.2l-3,8.7l16.4,43H488L469.2,253.3z"/>
				</g>
				<g>
					<path fill="#3B483B" d="M119.9,171h26.5l12.5-35.5h-36.8L98.5,184h15.7L119.9,171z M129.3,149.5H140l-2.1,5.4H127L129.3,149.5z        M164.4,184l1.8-6.4H178l-1.6,6.4h15.7l9.7-48.5h-36.8L148.8,184H164.4z M174.2,149.5h10.7l-2.7,10.9h-11.1L174.2,149.5z        M214.7,184l1.7-13h26.5l1.6-35.5h-36.8L199,184H214.7z M219.2,149.5h10.7l-0.5,5.4h-10.9L219.2,149.5z M290.6,166.6h-23.9       l7.7-8.8l-8.2-8.3h22.6l-1.5-14h-36.8l-0.4,17.9l4.1,4.4l-4.3,4.6l-0.5,21.6h43.3L290.6,166.6z M315.1,184l-2.3-13h8.4l3.8,3.5       l2,9.5h15.7l-4.4-16.6l-5.5-4.7l3-4.6l-5.9-22.6h-36.8l6.3,48.5H315.1z M319.6,149.5l0.5,2.3l-2.3,3.1h-8l-1-5.4H319.6z        M363.2,166.6h-18.6l5,17.4h43.3l-7.3-17.4L361,149.5h17.5l-5.8-14h-36.8l4,14L363.2,166.6z M75.9,194.8l-49.7,92.4h24.6       l12.7-26.3H104l25.1-66H75.9z M94.5,229.9H78.3L83,220h15.8L94.5,229.9z M157,194.8h-19.3l-32.8,92.4h67.9l6.9-34.9h-39.8       L157,194.8z M194,227.2l4.9,8.2l-7.8,8.7l-7.4,43h67.9l0.4-34.9h-36.3l13.7-16.8L219.1,220h33.4l0.3-25.2h-53.3L194,227.2z        M261.3,194.8l1.2,92.4h24.6l-0.9-13.2h18.2l1.5,13.2h24.6l-15.8-92.4H261.3z M283.8,240.4l-1.4-20.4h15.8l2.3,20.4H283.8z        M359.4,220h25.9l-8.9-25.2h-53.3L328,220l34.6,32.3h-28.3l6.9,34.9h67.9l-12.4-34.9L359.4,220z M469.2,252.3h-36.3l4.4-16.8       L418.4,220h33.4l-13.6-25.2h-32.6l9.9-10.8l-8.5-17.4h-14.8l12.4,28.2H385l12.3,32.4l9.4,8.2l-3,8.7l16.4,43H488L469.2,252.3z"/>
				</g>
				<g>
					<path fill="#3B483B" d="M119.9,170h26.5l12.5-35.5h-36.8L98.5,183h15.7L119.9,170z M129.3,148.5H140l-2.1,5.4H127L129.3,148.5z        M164.4,183l1.8-6.4H178l-1.6,6.4h15.7l9.7-48.5h-36.8L148.8,183H164.4z M174.2,148.5h10.7l-2.7,10.9h-11.1L174.2,148.5z        M214.7,183l1.7-13h26.5l1.6-35.5h-36.8L199,183H214.7z M219.2,148.5h10.7l-0.5,5.4h-10.9L219.2,148.5z M290.6,165.6h-23.9       l7.7-8.8l-8.2-8.3h22.6l-1.5-14h-36.8l-0.4,17.9l4.1,4.4l-4.3,4.6l-0.5,21.6h43.3L290.6,165.6z M315.1,183l-2.3-13h8.4l3.8,3.5       l2,9.5h15.7l-4.4-16.6l-5.5-4.7l3-4.6l-5.9-22.6h-36.8l6.3,48.5H315.1z M319.6,148.5l0.5,2.3l-2.3,3.1h-8l-1-5.4H319.6z        M363.2,165.6h-18.6l5,17.4h43.3l-7.3-17.4L361,148.5h17.5l-5.8-14h-36.8l4,14L363.2,165.6z M75.9,193.8l-49.7,92.4h24.6       l12.7-26.3H104l25.1-66H75.9z M94.5,228.9H78.3L83,219h15.8L94.5,228.9z M157,193.8h-19.3l-32.8,92.4h67.9l6.9-34.9h-39.8       L157,193.8z M194,226.2l4.9,8.2l-7.8,8.7l-7.4,43h67.9l0.4-34.9h-36.3l13.7-16.8L219.1,219h33.4l0.3-25.2h-53.3L194,226.2z        M261.3,193.8l1.2,92.4h24.6l-0.9-13.2h18.2l1.5,13.2h24.6l-15.8-92.4H261.3z M283.8,239.4l-1.4-20.4h15.8l2.3,20.4H283.8z        M359.4,219h25.9l-8.9-25.2h-53.3L328,219l34.6,32.3h-28.3l6.9,34.9h67.9l-12.4-34.9L359.4,219z M469.2,251.3h-36.3l4.4-16.8       L418.4,219h33.4l-13.6-25.2h-32.6l9.9-10.8l-8.5-17.4h-14.8l12.4,28.2H385l12.3,32.4l9.4,8.2l-3,8.7l16.4,43H488L469.2,251.3z"/>
				</g>
				<g>
					<path fill="#3B483B" d="M119.9,169h26.5l12.5-35.5h-36.8L98.5,182h15.7L119.9,169z M129.3,147.5H140l-2.1,5.4H127L129.3,147.5z        M164.4,182l1.8-6.4H178l-1.6,6.4h15.7l9.7-48.5h-36.8L148.8,182H164.4z M174.2,147.5h10.7l-2.7,10.9h-11.1L174.2,147.5z        M214.7,182l1.7-13h26.5l1.6-35.5h-36.8L199,182H214.7z M219.2,147.5h10.7l-0.5,5.4h-10.9L219.2,147.5z M290.6,164.6h-23.9       l7.7-8.8l-8.2-8.3h22.6l-1.5-14h-36.8l-0.4,17.9l4.1,4.4l-4.3,4.6l-0.5,21.6h43.3L290.6,164.6z M315.1,182l-2.3-13h8.4l3.8,3.5       l2,9.5h15.7l-4.4-16.6l-5.5-4.7l3-4.6l-5.9-22.6h-36.8l6.3,48.5H315.1z M319.6,147.5l0.5,2.3l-2.3,3.1h-8l-1-5.4H319.6z        M363.2,164.6h-18.6l5,17.4h43.3l-7.3-17.4L361,147.5h17.5l-5.8-14h-36.8l4,14L363.2,164.6z M75.9,192.8l-49.7,92.4h24.6       l12.7-26.3H104l25.1-66H75.9z M94.5,227.9H78.3L83,218h15.8L94.5,227.9z M157,192.8h-19.3l-32.8,92.4h67.9l6.9-34.9h-39.8       L157,192.8z M194,225.2l4.9,8.2l-7.8,8.7l-7.4,43h67.9l0.4-34.9h-36.3l13.7-16.8L219.1,218h33.4l0.3-25.2h-53.3L194,225.2z        M261.3,192.8l1.2,92.4h24.6l-0.9-13.2h18.2l1.5,13.2h24.6l-15.8-92.4H261.3z M283.8,238.4l-1.4-20.4h15.8l2.3,20.4H283.8z        M359.4,218h25.9l-8.9-25.2h-53.3L328,218l34.6,32.3h-28.3l6.9,34.9h67.9l-12.4-34.9L359.4,218z M469.2,250.3h-36.3l4.4-16.8       L418.4,218h33.4l-13.6-25.2h-32.6l9.9-10.8l-8.5-17.4h-14.8l12.4,28.2H385l12.3,32.4l9.4,8.2l-3,8.7l16.4,43H488L469.2,250.3z"/>
				</g>
				<g>
					<path fill="#3B483B" d="M119.9,168h26.5l12.5-35.5h-36.8L98.5,181h15.7L119.9,168z M129.3,146.5H140l-2.1,5.4H127L129.3,146.5z        M164.4,181l1.8-6.4H178l-1.6,6.4h15.7l9.7-48.5h-36.8L148.8,181H164.4z M174.2,146.5h10.7l-2.7,10.9h-11.1L174.2,146.5z        M214.7,181l1.7-13h26.5l1.6-35.5h-36.8L199,181H214.7z M219.2,146.5h10.7l-0.5,5.4h-10.9L219.2,146.5z M290.6,163.6h-23.9       l7.7-8.8l-8.2-8.3h22.6l-1.5-14h-36.8l-0.4,17.9l4.1,4.4l-4.3,4.6l-0.5,21.6h43.3L290.6,163.6z M315.1,181l-2.3-13h8.4l3.8,3.5       l2,9.5h15.7l-4.4-16.6l-5.5-4.7l3-4.6l-5.9-22.6h-36.8l6.3,48.5H315.1z M319.6,146.5l0.5,2.3l-2.3,3.1h-8l-1-5.4H319.6z        M363.2,163.6h-18.6l5,17.4h43.3l-7.3-17.4L361,146.5h17.5l-5.8-14h-36.8l4,14L363.2,163.6z M75.9,191.8l-49.7,92.4h24.6       l12.7-26.3H104l25.1-66H75.9z M94.5,226.9H78.3L83,217h15.8L94.5,226.9z M157,191.8h-19.3l-32.8,92.4h67.9l6.9-34.9h-39.8       L157,191.8z M194,224.2l4.9,8.2l-7.8,8.7l-7.4,43h67.9l0.4-34.9h-36.3l13.7-16.8L219.1,217h33.4l0.3-25.2h-53.3L194,224.2z        M261.3,191.8l1.2,92.4h24.6l-0.9-13.2h18.2l1.5,13.2h24.6l-15.8-92.4H261.3z M283.8,237.4l-1.4-20.4h15.8l2.3,20.4H283.8z        M359.4,217h25.9l-8.9-25.2h-53.3L328,217l34.6,32.3h-28.3l6.9,34.9h67.9l-12.4-34.9L359.4,217z M469.2,249.3h-36.3l4.4-16.8       L418.4,217h33.4l-13.6-25.2h-32.6l9.9-10.8l-8.5-17.4h-14.8l12.4,28.2H385l12.3,32.4l9.4,8.2l-3,8.7l16.4,43H488L469.2,249.3z"/>
				</g>
				<g>
					<path fill="#3B483B" d="M119.9,167h26.5l12.5-35.5h-36.8L98.5,180h15.7L119.9,167z M129.3,145.5H140l-2.1,5.4H127L129.3,145.5z        M164.4,180l1.8-6.4H178l-1.6,6.4h15.7l9.7-48.5h-36.8L148.8,180H164.4z M174.2,145.5h10.7l-2.7,10.9h-11.1L174.2,145.5z        M214.7,180l1.7-13h26.5l1.6-35.5h-36.8L199,180H214.7z M219.2,145.5h10.7l-0.5,5.4h-10.9L219.2,145.5z M290.6,162.6h-23.9       l7.7-8.8l-8.2-8.3h22.6l-1.5-14h-36.8l-0.4,17.9l4.1,4.4l-4.3,4.6l-0.5,21.6h43.3L290.6,162.6z M315.1,180l-2.3-13h8.4l3.8,3.5       l2,9.5h15.7l-4.4-16.6l-5.5-4.7l3-4.6l-5.9-22.6h-36.8l6.3,48.5H315.1z M319.6,145.5l0.5,2.3l-2.3,3.1h-8l-1-5.4H319.6z        M363.2,162.6h-18.6l5,17.4h43.3l-7.3-17.4L361,145.5h17.5l-5.8-14h-36.8l4,14L363.2,162.6z M75.9,190.8l-49.7,92.4h24.6       l12.7-26.3H104l25.1-66H75.9z M94.5,225.9H78.3L83,216h15.8L94.5,225.9z M157,190.8h-19.3l-32.8,92.4h67.9l6.9-34.9h-39.8       L157,190.8z M194,223.2l4.9,8.2l-7.8,8.7l-7.4,43h67.9l0.4-34.9h-36.3l13.7-16.8L219.1,216h33.4l0.3-25.2h-53.3L194,223.2z        M261.3,190.8l1.2,92.4h24.6l-0.9-13.2h18.2l1.5,13.2h24.6l-15.8-92.4H261.3z M283.8,236.4l-1.4-20.4h15.8l2.3,20.4H283.8z        M359.4,216h25.9l-8.9-25.2h-53.3L328,216l34.6,32.3h-28.3l6.9,34.9h67.9l-12.4-34.9L359.4,216z M469.2,248.3h-36.3l4.4-16.8       L418.4,216h33.4l-13.6-25.2h-32.6l9.9-10.8l-8.5-17.4h-14.8l12.4,28.2H385l12.3,32.4l9.4,8.2l-3,8.7l16.4,43H488L469.2,248.3z"/>
				</g>
				<g>
					<path fill="#3B483B" d="M119.9,166h26.5l12.5-35.5h-36.8L98.5,179h15.7L119.9,166z M129.3,144.5H140l-2.1,5.4H127L129.3,144.5z        M164.4,179l1.8-6.4H178l-1.6,6.4h15.7l9.7-48.5h-36.8L148.8,179H164.4z M174.2,144.5h10.7l-2.7,10.9h-11.1L174.2,144.5z        M214.7,179l1.7-13h26.5l1.6-35.5h-36.8L199,179H214.7z M219.2,144.5h10.7l-0.5,5.4h-10.9L219.2,144.5z M290.6,161.6h-23.9       l7.7-8.8l-8.2-8.3h22.6l-1.5-14h-36.8l-0.4,17.9l4.1,4.4l-4.3,4.6l-0.5,21.6h43.3L290.6,161.6z M315.1,179l-2.3-13h8.4l3.8,3.5       l2,9.5h15.7l-4.4-16.6l-5.5-4.7l3-4.6l-5.9-22.6h-36.8l6.3,48.5H315.1z M319.6,144.5l0.5,2.3l-2.3,3.1h-8l-1-5.4H319.6z        M363.2,161.6h-18.6l5,17.4h43.3l-7.3-17.4L361,144.5h17.5l-5.8-14h-36.8l4,14L363.2,161.6z M75.9,189.8l-49.7,92.4h24.6       l12.7-26.3H104l25.1-66H75.9z M94.5,224.9H78.3L83,215h15.8L94.5,224.9z M157,189.8h-19.3l-32.8,92.4h67.9l6.9-34.9h-39.8       L157,189.8z M194,222.2l4.9,8.2l-7.8,8.7l-7.4,43h67.9l0.4-34.9h-36.3l13.7-16.8L219.1,215h33.4l0.3-25.2h-53.3L194,222.2z        M261.3,189.8l1.2,92.4h24.6l-0.9-13.2h18.2l1.5,13.2h24.6l-15.8-92.4H261.3z M283.8,235.4l-1.4-20.4h15.8l2.3,20.4H283.8z        M359.4,215h25.9l-8.9-25.2h-53.3L328,215l34.6,32.3h-28.3l6.9,34.9h67.9l-12.4-34.9L359.4,215z M469.2,247.3h-36.3l4.4-16.8       L418.4,215h33.4l-13.6-25.2h-32.6l9.9-10.8l-8.5-17.4h-14.8l12.4,28.2H385l12.3,32.4l9.4,8.2l-3,8.7l16.4,43H488L469.2,247.3z"/>
				</g>
				<g>
					<path fill="#3B483B" d="M119.9,165h26.5l12.5-35.5h-36.8L98.5,178h15.7L119.9,165z M129.3,143.5H140l-2.1,5.4H127L129.3,143.5z        M164.4,178l1.8-6.4H178l-1.6,6.4h15.7l9.7-48.5h-36.8L148.8,178H164.4z M174.2,143.5h10.7l-2.7,10.9h-11.1L174.2,143.5z        M214.7,178l1.7-13h26.5l1.6-35.5h-36.8L199,178H214.7z M219.2,143.5h10.7l-0.5,5.4h-10.9L219.2,143.5z M290.6,160.6h-23.9       l7.7-8.8l-8.2-8.3h22.6l-1.5-14h-36.8l-0.4,17.9l4.1,4.4l-4.3,4.6l-0.5,21.6h43.3L290.6,160.6z M315.1,178l-2.3-13h8.4l3.8,3.5       l2,9.5h15.7l-4.4-16.6l-5.5-4.7l3-4.6l-5.9-22.6h-36.8l6.3,48.5H315.1z M319.6,143.5l0.5,2.3l-2.3,3.1h-8l-1-5.4H319.6z        M363.2,160.6h-18.6l5,17.4h43.3l-7.3-17.4L361,143.5h17.5l-5.8-14h-36.8l4,14L363.2,160.6z M75.9,188.8l-49.7,92.4h24.6       l12.7-26.3H104l25.1-66H75.9z M94.5,223.9H78.3L83,214h15.8L94.5,223.9z M157,188.8h-19.3l-32.8,92.4h67.9l6.9-34.9h-39.8       L157,188.8z M194,221.2l4.9,8.2l-7.8,8.7l-7.4,43h67.9l0.4-34.9h-36.3l13.7-16.8L219.1,214h33.4l0.3-25.2h-53.3L194,221.2z        M261.3,188.8l1.2,92.4h24.6l-0.9-13.2h18.2l1.5,13.2h24.6l-15.8-92.4H261.3z M283.8,234.4l-1.4-20.4h15.8l2.3,20.4H283.8z        M359.4,214h25.9l-8.9-25.2h-53.3L328,214l34.6,32.3h-28.3l6.9,34.9h67.9l-12.4-34.9L359.4,214z M469.2,246.3h-36.3l4.4-16.8       L418.4,214h33.4l-13.6-25.2h-32.6l9.9-10.8l-8.5-17.4h-14.8l12.4,28.2H385l12.3,32.4l9.4,8.2l-3,8.7l16.4,43H488L469.2,246.3z"/>
				</g>
				<g>
					<path fill="#3B483B" d="M119.9,164h26.5l12.5-35.5h-36.8L98.5,177h15.7L119.9,164z M129.3,142.5H140l-2.1,5.4H127L129.3,142.5z        M164.4,177l1.8-6.4H178l-1.6,6.4h15.7l9.7-48.5h-36.8L148.8,177H164.4z M174.2,142.5h10.7l-2.7,10.9h-11.1L174.2,142.5z        M214.7,177l1.7-13h26.5l1.6-35.5h-36.8L199,177H214.7z M219.2,142.5h10.7l-0.5,5.4h-10.9L219.2,142.5z M290.6,159.6h-23.9       l7.7-8.8l-8.2-8.3h22.6l-1.5-14h-36.8l-0.4,17.9l4.1,4.4l-4.3,4.6l-0.5,21.6h43.3L290.6,159.6z M315.1,177l-2.3-13h8.4l3.8,3.5       l2,9.5h15.7l-4.4-16.6l-5.5-4.7l3-4.6l-5.9-22.6h-36.8l6.3,48.5H315.1z M319.6,142.5l0.5,2.3l-2.3,3.1h-8l-1-5.4H319.6z        M363.2,159.6h-18.6l5,17.4h43.3l-7.3-17.4L361,142.5h17.5l-5.8-14h-36.8l4,14L363.2,159.6z M75.9,187.8l-49.7,92.4h24.6       l12.7-26.3H104l25.1-66H75.9z M94.5,222.9H78.3L83,213h15.8L94.5,222.9z M157,187.8h-19.3l-32.8,92.4h67.9l6.9-34.9h-39.8       L157,187.8z M194,220.2l4.9,8.2l-7.8,8.7l-7.4,43h67.9l0.4-34.9h-36.3l13.7-16.8L219.1,213h33.4l0.3-25.2h-53.3L194,220.2z        M261.3,187.8l1.2,92.4h24.6l-0.9-13.2h18.2l1.5,13.2h24.6l-15.8-92.4H261.3z M283.8,233.4l-1.4-20.4h15.8l2.3,20.4H283.8z        M359.4,213h25.9l-8.9-25.2h-53.3L328,213l34.6,32.3h-28.3l6.9,34.9h67.9l-12.4-34.9L359.4,213z M469.2,245.3h-36.3l4.4-16.8       L418.4,213h33.4l-13.6-25.2h-32.6l9.9-10.8l-8.5-17.4h-14.8l12.4,28.2H385l12.3,32.4l9.4,8.2l-3,8.7l16.4,43H488L469.2,245.3z"/>
				</g>
				<g>
					<path fill="#3B483B" d="M119.9,163h26.5l12.5-35.5h-36.8L98.5,176h15.7L119.9,163z M129.3,141.5H140l-2.1,5.4H127L129.3,141.5z        M164.4,176l1.8-6.4H178l-1.6,6.4h15.7l9.7-48.5h-36.8L148.8,176H164.4z M174.2,141.5h10.7l-2.7,10.9h-11.1L174.2,141.5z        M214.7,176l1.7-13h26.5l1.6-35.5h-36.8L199,176H214.7z M219.2,141.5h10.7l-0.5,5.4h-10.9L219.2,141.5z M290.6,158.6h-23.9       l7.7-8.8l-8.2-8.3h22.6l-1.5-14h-36.8l-0.4,17.9l4.1,4.4l-4.3,4.6l-0.5,21.6h43.3L290.6,158.6z M315.1,176l-2.3-13h8.4l3.8,3.5       l2,9.5h15.7l-4.4-16.6l-5.5-4.7l3-4.6l-5.9-22.6h-36.8l6.3,48.5H315.1z M319.6,141.5l0.5,2.3l-2.3,3.1h-8l-1-5.4H319.6z        M363.2,158.6h-18.6l5,17.4h43.3l-7.3-17.4L361,141.5h17.5l-5.8-14h-36.8l4,14L363.2,158.6z M75.9,186.8l-49.7,92.4h24.6       l12.7-26.3H104l25.1-66H75.9z M94.5,221.9H78.3L83,212h15.8L94.5,221.9z M157,186.8h-19.3l-32.8,92.4h67.9l6.9-34.9h-39.8       L157,186.8z M194,219.2l4.9,8.2l-7.8,8.7l-7.4,43h67.9l0.4-34.9h-36.3l13.7-16.8L219.1,212h33.4l0.3-25.2h-53.3L194,219.2z        M261.3,186.8l1.2,92.4h24.6l-0.9-13.2h18.2l1.5,13.2h24.6l-15.8-92.4H261.3z M283.8,232.4l-1.4-20.4h15.8l2.3,20.4H283.8z        M359.4,212h25.9l-8.9-25.2h-53.3L328,212l34.6,32.3h-28.3l6.9,34.9h67.9l-12.4-34.9L359.4,212z M469.2,244.3h-36.3l4.4-16.8       L418.4,212h33.4l-13.6-25.2h-32.6l9.9-10.8l-8.5-17.4h-14.8l12.4,28.2H385l12.3,32.4l9.4,8.2l-3,8.7l16.4,43H488L469.2,244.3z"/>
				</g>
				<g>
					<path fill="#3B483B" d="M119.9,162h26.5l12.5-35.5h-36.8L98.5,175h15.7L119.9,162z M129.3,140.5H140l-2.1,5.4H127L129.3,140.5z        M164.4,175l1.8-6.4H178l-1.6,6.4h15.7l9.7-48.5h-36.8L148.8,175H164.4z M174.2,140.5h10.7l-2.7,10.9h-11.1L174.2,140.5z        M214.7,175l1.7-13h26.5l1.6-35.5h-36.8L199,175H214.7z M219.2,140.5h10.7l-0.5,5.4h-10.9L219.2,140.5z M290.6,157.6h-23.9       l7.7-8.8l-8.2-8.3h22.6l-1.5-14h-36.8l-0.4,17.9l4.1,4.4l-4.3,4.6l-0.5,21.6h43.3L290.6,157.6z M315.1,175l-2.3-13h8.4l3.8,3.5       l2,9.5h15.7l-4.4-16.6l-5.5-4.7l3-4.6l-5.9-22.6h-36.8l6.3,48.5H315.1z M319.6,140.5l0.5,2.3l-2.3,3.1h-8l-1-5.4H319.6z        M363.2,157.6h-18.6l5,17.4h43.3l-7.3-17.4L361,140.5h17.5l-5.8-14h-36.8l4,14L363.2,157.6z M75.9,185.8l-49.7,92.4h24.6       l12.7-26.3H104l25.1-66H75.9z M94.5,220.9H78.3L83,211h15.8L94.5,220.9z M157,185.8h-19.3l-32.8,92.4h67.9l6.9-34.9h-39.8       L157,185.8z M194,218.2l4.9,8.2l-7.8,8.7l-7.4,43h67.9l0.4-34.9h-36.3l13.7-16.8L219.1,211h33.4l0.3-25.2h-53.3L194,218.2z        M261.3,185.8l1.2,92.4h24.6l-0.9-13.2h18.2l1.5,13.2h24.6l-15.8-92.4H261.3z M283.8,231.4l-1.4-20.4h15.8l2.3,20.4H283.8z        M359.4,211h25.9l-8.9-25.2h-53.3L328,211l34.6,32.3h-28.3l6.9,34.9h67.9l-12.4-34.9L359.4,211z M469.2,243.3h-36.3l4.4-16.8       L418.4,211h33.4l-13.6-25.2h-32.6l9.9-10.8l-8.5-17.4h-14.8l12.4,28.2H385l12.3,32.4l9.4,8.2l-3,8.7l16.4,43H488L469.2,243.3z"/>
				</g>
				<g>
					<path fill="#3B483B" d="M119.9,161h26.5l12.5-35.5h-36.8L98.5,174h15.7L119.9,161z M129.3,139.5H140l-2.1,5.4H127L129.3,139.5z        M164.4,174l1.8-6.4H178l-1.6,6.4h15.7l9.7-48.5h-36.8L148.8,174H164.4z M174.2,139.5h10.7l-2.7,10.9h-11.1L174.2,139.5z        M214.7,174l1.7-13h26.5l1.6-35.5h-36.8L199,174H214.7z M219.2,139.5h10.7l-0.5,5.4h-10.9L219.2,139.5z M290.6,156.6h-23.9       l7.7-8.8l-8.2-8.3h22.6l-1.5-14h-36.8l-0.4,17.9l4.1,4.4l-4.3,4.6l-0.5,21.6h43.3L290.6,156.6z M315.1,174l-2.3-13h8.4l3.8,3.5       l2,9.5h15.7l-4.4-16.6l-5.5-4.7l3-4.6l-5.9-22.6h-36.8l6.3,48.5H315.1z M319.6,139.5l0.5,2.3l-2.3,3.1h-8l-1-5.4H319.6z        M363.2,156.6h-18.6l5,17.4h43.3l-7.3-17.4L361,139.5h17.5l-5.8-14h-36.8l4,14L363.2,156.6z M75.9,184.8l-49.7,92.4h24.6       l12.7-26.3H104l25.1-66H75.9z M94.5,219.9H78.3L83,210h15.8L94.5,219.9z M157,184.8h-19.3l-32.8,92.4h67.9l6.9-34.9h-39.8       L157,184.8z M194,217.2l4.9,8.2l-7.8,8.7l-7.4,43h67.9l0.4-34.9h-36.3l13.7-16.8L219.1,210h33.4l0.3-25.2h-53.3L194,217.2z        M261.3,184.8l1.2,92.4h24.6l-0.9-13.2h18.2l1.5,13.2h24.6l-15.8-92.4H261.3z M283.8,230.4l-1.4-20.4h15.8l2.3,20.4H283.8z        M359.4,210h25.9l-8.9-25.2h-53.3L328,210l34.6,32.3h-28.3l6.9,34.9h67.9l-12.4-34.9L359.4,210z M469.2,242.3h-36.3l4.4-16.8       L418.4,210h33.4l-13.6-25.2h-32.6l9.9-10.8l-8.5-17.4h-14.8l12.4,28.2H385l12.3,32.4l9.4,8.2l-3,8.7l16.4,43H488L469.2,242.3z"/>
				</g>
				<g>
					<path fill="#3B483B" d="M119.9,160h26.5l12.5-35.5h-36.8L98.5,173h15.7L119.9,160z M129.3,138.5H140l-2.1,5.4H127L129.3,138.5z        M164.4,173l1.8-6.4H178l-1.6,6.4h15.7l9.7-48.5h-36.8L148.8,173H164.4z M174.2,138.5h10.7l-2.7,10.9h-11.1L174.2,138.5z        M214.7,173l1.7-13h26.5l1.6-35.5h-36.8L199,173H214.7z M219.2,138.5h10.7l-0.5,5.4h-10.9L219.2,138.5z M290.6,155.6h-23.9       l7.7-8.8l-8.2-8.3h22.6l-1.5-14h-36.8l-0.4,17.9l4.1,4.4l-4.3,4.6l-0.5,21.6h43.3L290.6,155.6z M315.1,173l-2.3-13h8.4l3.8,3.5       l2,9.5h15.7l-4.4-16.6l-5.5-4.7l3-4.6l-5.9-22.6h-36.8l6.3,48.5H315.1z M319.6,138.5l0.5,2.3l-2.3,3.1h-8l-1-5.4H319.6z        M363.2,155.6h-18.6l5,17.4h43.3l-7.3-17.4L361,138.5h17.5l-5.8-14h-36.8l4,14L363.2,155.6z M75.9,183.8l-49.7,92.4h24.6       l12.7-26.3H104l25.1-66H75.9z M94.5,218.9H78.3L83,209h15.8L94.5,218.9z M157,183.8h-19.3l-32.8,92.4h67.9l6.9-34.9h-39.8       L157,183.8z M194,216.2l4.9,8.2l-7.8,8.7l-7.4,43h67.9l0.4-34.9h-36.3l13.7-16.8L219.1,209h33.4l0.3-25.2h-53.3L194,216.2z        M261.3,183.8l1.2,92.4h24.6l-0.9-13.2h18.2l1.5,13.2h24.6l-15.8-92.4H261.3z M283.8,229.4l-1.4-20.4h15.8l2.3,20.4H283.8z        M359.4,209h25.9l-8.9-25.2h-53.3L328,209l34.6,32.3h-28.3l6.9,34.9h67.9l-12.4-34.9L359.4,209z M469.2,241.3h-36.3l4.4-16.8       L418.4,209h33.4l-13.6-25.2h-32.6l9.9-10.8l-8.5-17.4h-14.8l12.4,28.2H385l12.3,32.4l9.4,8.2l-3,8.7l16.4,43H488L469.2,241.3z"/>
				</g>
				<g>
					<path fill="#3B483B" d="M119.9,159h26.5l12.5-35.5h-36.8L98.5,172h15.7L119.9,159z M129.3,137.5H140l-2.1,5.4H127L129.3,137.5z        M164.4,172l1.8-6.4H178l-1.6,6.4h15.7l9.7-48.5h-36.8L148.8,172H164.4z M174.2,137.5h10.7l-2.7,10.9h-11.1L174.2,137.5z        M214.7,172l1.7-13h26.5l1.6-35.5h-36.8L199,172H214.7z M219.2,137.5h10.7l-0.5,5.4h-10.9L219.2,137.5z M290.6,154.6h-23.9       l7.7-8.8l-8.2-8.3h22.6l-1.5-14h-36.8l-0.4,17.9l4.1,4.4l-4.3,4.6l-0.5,21.6h43.3L290.6,154.6z M315.1,172l-2.3-13h8.4l3.8,3.5       l2,9.5h15.7l-4.4-16.6l-5.5-4.7l3-4.6l-5.9-22.6h-36.8l6.3,48.5H315.1z M319.6,137.5l0.5,2.3l-2.3,3.1h-8l-1-5.4H319.6z        M363.2,154.6h-18.6l5,17.4h43.3l-7.3-17.4L361,137.5h17.5l-5.8-14h-36.8l4,14L363.2,154.6z M75.9,182.8l-49.7,92.4h24.6       l12.7-26.3H104l25.1-66H75.9z M94.5,217.9H78.3L83,208h15.8L94.5,217.9z M157,182.8h-19.3l-32.8,92.4h67.9l6.9-34.9h-39.8       L157,182.8z M194,215.2l4.9,8.2l-7.8,8.7l-7.4,43h67.9l0.4-34.9h-36.3l13.7-16.8L219.1,208h33.4l0.3-25.2h-53.3L194,215.2z        M261.3,182.8l1.2,92.4h24.6l-0.9-13.2h18.2l1.5,13.2h24.6l-15.8-92.4H261.3z M283.8,228.4l-1.4-20.4h15.8l2.3,20.4H283.8z        M359.4,208h25.9l-8.9-25.2h-53.3L328,208l34.6,32.3h-28.3l6.9,34.9h67.9l-12.4-34.9L359.4,208z M469.2,240.3h-36.3l4.4-16.8       L418.4,208h33.4l-13.6-25.2h-32.6l9.9-10.8l-8.5-17.4h-14.8l12.4,28.2H385l12.3,32.4l9.4,8.2l-3,8.7l16.4,43H488L469.2,240.3z"/>
				</g>
				<g>
					<path fill="#3B483B" d="M119.9,158h26.5l12.5-35.5h-36.8L98.5,171h15.7L119.9,158z M129.3,136.5H140l-2.1,5.4H127L129.3,136.5z        M164.4,171l1.8-6.4H178l-1.6,6.4h15.7l9.7-48.5h-36.8L148.8,171H164.4z M174.2,136.5h10.7l-2.7,10.9h-11.1L174.2,136.5z        M214.7,171l1.7-13h26.5l1.6-35.5h-36.8L199,171H214.7z M219.2,136.5h10.7l-0.5,5.4h-10.9L219.2,136.5z M290.6,153.6h-23.9       l7.7-8.8l-8.2-8.3h22.6l-1.5-14h-36.8l-0.4,17.9l4.1,4.4l-4.3,4.6l-0.5,21.6h43.3L290.6,153.6z M315.1,171l-2.3-13h8.4l3.8,3.5       l2,9.5h15.7l-4.4-16.6l-5.5-4.7l3-4.6l-5.9-22.6h-36.8l6.3,48.5H315.1z M319.6,136.5l0.5,2.3l-2.3,3.1h-8l-1-5.4H319.6z        M363.2,153.6h-18.6l5,17.4h43.3l-7.3-17.4L361,136.5h17.5l-5.8-14h-36.8l4,14L363.2,153.6z M75.9,181.8l-49.7,92.4h24.6       l12.7-26.3H104l25.1-66H75.9z M94.5,216.9H78.3L83,207h15.8L94.5,216.9z M157,181.8h-19.3l-32.8,92.4h67.9l6.9-34.9h-39.8       L157,181.8z M194,214.2l4.9,8.2l-7.8,8.7l-7.4,43h67.9l0.4-34.9h-36.3l13.7-16.8L219.1,207h33.4l0.3-25.2h-53.3L194,214.2z        M261.3,181.8l1.2,92.4h24.6l-0.9-13.2h18.2l1.5,13.2h24.6l-15.8-92.4H261.3z M283.8,227.4l-1.4-20.4h15.8l2.3,20.4H283.8z        M359.4,207h25.9l-8.9-25.2h-53.3L328,207l34.6,32.3h-28.3l6.9,34.9h67.9l-12.4-34.9L359.4,207z M469.2,239.3h-36.3l4.4-16.8       L418.4,207h33.4l-13.6-25.2h-32.6l9.9-10.8l-8.5-17.4h-14.8l12.4,28.2H385l12.3,32.4l9.4,8.2l-3,8.7l16.4,43H488L469.2,239.3z"/>
				</g>
				<g>
					<path fill="#3B483B" d="M119.9,157h26.5l12.5-35.5h-36.8L98.5,170h15.7L119.9,157z M129.3,135.5H140l-2.1,5.4H127L129.3,135.5z        M164.4,170l1.8-6.4H178l-1.6,6.4h15.7l9.7-48.5h-36.8L148.8,170H164.4z M174.2,135.5h10.7l-2.7,10.9h-11.1L174.2,135.5z        M214.7,170l1.7-13h26.5l1.6-35.5h-36.8L199,170H214.7z M219.2,135.5h10.7l-0.5,5.4h-10.9L219.2,135.5z M290.6,152.6h-23.9       l7.7-8.8l-8.2-8.3h22.6l-1.5-14h-36.8l-0.4,17.9l4.1,4.4l-4.3,4.6l-0.5,21.6h43.3L290.6,152.6z M315.1,170l-2.3-13h8.4l3.8,3.5       l2,9.5h15.7l-4.4-16.6l-5.5-4.7l3-4.6l-5.9-22.6h-36.8l6.3,48.5H315.1z M319.6,135.5l0.5,2.3l-2.3,3.1h-8l-1-5.4H319.6z        M363.2,152.6h-18.6l5,17.4h43.3l-7.3-17.4L361,135.5h17.5l-5.8-14h-36.8l4,14L363.2,152.6z M75.9,180.8l-49.7,92.4h24.6       l12.7-26.3H104l25.1-66H75.9z M94.5,215.9H78.3L83,206h15.8L94.5,215.9z M157,180.8h-19.3l-32.8,92.4h67.9l6.9-34.9h-39.8       L157,180.8z M194,213.2l4.9,8.2l-7.8,8.7l-7.4,43h67.9l0.4-34.9h-36.3l13.7-16.8L219.1,206h33.4l0.3-25.2h-53.3L194,213.2z        M261.3,180.8l1.2,92.4h24.6l-0.9-13.2h18.2l1.5,13.2h24.6l-15.8-92.4H261.3z M283.8,226.4l-1.4-20.4h15.8l2.3,20.4H283.8z        M359.4,206h25.9l-8.9-25.2h-53.3L328,206l34.6,32.3h-28.3l6.9,34.9h67.9l-12.4-34.9L359.4,206z M469.2,238.3h-36.3l4.4-16.8       L418.4,206h33.4l-13.6-25.2h-32.6l9.9-10.8l-8.5-17.4h-14.8l12.4,28.2H385l12.3,32.4l9.4,8.2l-3,8.7l16.4,43H488L469.2,238.3z"/>
				</g>
				<g>
					<path fill="#3B483B" d="M119.9,156h26.5l12.5-35.5h-36.8L98.5,169h15.7L119.9,156z M129.3,134.5H140l-2.1,5.4H127L129.3,134.5z        M164.4,169l1.8-6.4H178l-1.6,6.4h15.7l9.7-48.5h-36.8L148.8,169H164.4z M174.2,134.5h10.7l-2.7,10.9h-11.1L174.2,134.5z        M214.7,169l1.7-13h26.5l1.6-35.5h-36.8L199,169H214.7z M219.2,134.5h10.7l-0.5,5.4h-10.9L219.2,134.5z M290.6,151.6h-23.9       l7.7-8.8l-8.2-8.3h22.6l-1.5-14h-36.8l-0.4,17.9l4.1,4.4l-4.3,4.6l-0.5,21.6h43.3L290.6,151.6z M315.1,169l-2.3-13h8.4l3.8,3.5       l2,9.5h15.7l-4.4-16.6l-5.5-4.7l3-4.6l-5.9-22.6h-36.8l6.3,48.5H315.1z M319.6,134.5l0.5,2.3l-2.3,3.1h-8l-1-5.4H319.6z        M363.2,151.6h-18.6l5,17.4h43.3l-7.3-17.4L361,134.5h17.5l-5.8-14h-36.8l4,14L363.2,151.6z M75.9,179.8l-49.7,92.4h24.6       l12.7-26.3H104l25.1-66H75.9z M94.5,214.9H78.3L83,205h15.8L94.5,214.9z M157,179.8h-19.3l-32.8,92.4h67.9l6.9-34.9h-39.8       L157,179.8z M194,212.2l4.9,8.2l-7.8,8.7l-7.4,43h67.9l0.4-34.9h-36.3l13.7-16.8L219.1,205h33.4l0.3-25.2h-53.3L194,212.2z        M261.3,179.8l1.2,92.4h24.6l-0.9-13.2h18.2l1.5,13.2h24.6l-15.8-92.4H261.3z M283.8,225.4l-1.4-20.4h15.8l2.3,20.4H283.8z        M359.4,205h25.9l-8.9-25.2h-53.3L328,205l34.6,32.3h-28.3l6.9,34.9h67.9l-12.4-34.9L359.4,205z M469.2,237.3h-36.3l4.4-16.8       L418.4,205h33.4l-13.6-25.2h-32.6l9.9-10.8l-8.5-17.4h-14.8l12.4,28.2H385l12.3,32.4l9.4,8.2l-3,8.7l16.4,43H488L469.2,237.3z"/>
				</g>
				<g>
					<path fill="#3B483B" d="M119.9,155h26.5l12.5-35.5h-36.8L98.5,168h15.7L119.9,155z M129.3,133.5H140l-2.1,5.4H127L129.3,133.5z        M164.4,168l1.8-6.4H178l-1.6,6.4h15.7l9.7-48.5h-36.8L148.8,168H164.4z M174.2,133.5h10.7l-2.7,10.9h-11.1L174.2,133.5z        M214.7,168l1.7-13h26.5l1.6-35.5h-36.8L199,168H214.7z M219.2,133.5h10.7l-0.5,5.4h-10.9L219.2,133.5z M290.6,150.6h-23.9       l7.7-8.8l-8.2-8.3h22.6l-1.5-14h-36.8l-0.4,17.9l4.1,4.4l-4.3,4.6l-0.5,21.6h43.3L290.6,150.6z M315.1,168l-2.3-13h8.4l3.8,3.5       l2,9.5h15.7l-4.4-16.6l-5.5-4.7l3-4.6l-5.9-22.6h-36.8l6.3,48.5H315.1z M319.6,133.5l0.5,2.3l-2.3,3.1h-8l-1-5.4H319.6z        M363.2,150.6h-18.6l5,17.4h43.3l-7.3-17.4L361,133.5h17.5l-5.8-14h-36.8l4,14L363.2,150.6z M75.9,178.8l-49.7,92.4h24.6       l12.7-26.3H104l25.1-66H75.9z M94.5,213.9H78.3L83,204h15.8L94.5,213.9z M157,178.8h-19.3l-32.8,92.4h67.9l6.9-34.9h-39.8       L157,178.8z M194,211.2l4.9,8.2l-7.8,8.7l-7.4,43h67.9l0.4-34.9h-36.3l13.7-16.8L219.1,204h33.4l0.3-25.2h-53.3L194,211.2z        M261.3,178.8l1.2,92.4h24.6l-0.9-13.2h18.2l1.5,13.2h24.6l-15.8-92.4H261.3z M283.8,224.4l-1.4-20.4h15.8l2.3,20.4H283.8z        M359.4,204h25.9l-8.9-25.2h-53.3L328,204l34.6,32.3h-28.3l6.9,34.9h67.9l-12.4-34.9L359.4,204z M469.2,236.3h-36.3l4.4-16.8       L418.4,204h33.4l-13.6-25.2h-32.6l9.9-10.8l-8.5-17.4h-14.8l12.4,28.2H385l12.3,32.4l9.4,8.2l-3,8.7l16.4,43H488L469.2,236.3z"/>
				</g>
				<g>
					<path fill="#3B483B" d="M119.9,154h26.5l12.5-35.5h-36.8L98.5,167h15.7L119.9,154z M129.3,132.5H140l-2.1,5.4H127L129.3,132.5z        M164.4,167l1.8-6.4H178l-1.6,6.4h15.7l9.7-48.5h-36.8L148.8,167H164.4z M174.2,132.5h10.7l-2.7,10.9h-11.1L174.2,132.5z        M214.7,167l1.7-13h26.5l1.6-35.5h-36.8L199,167H214.7z M219.2,132.5h10.7l-0.5,5.4h-10.9L219.2,132.5z M290.6,149.6h-23.9       l7.7-8.8l-8.2-8.3h22.6l-1.5-14h-36.8l-0.4,17.9l4.1,4.4l-4.3,4.6l-0.5,21.6h43.3L290.6,149.6z M315.1,167l-2.3-13h8.4l3.8,3.5       l2,9.5h15.7l-4.4-16.6l-5.5-4.7l3-4.6l-5.9-22.6h-36.8l6.3,48.5H315.1z M319.6,132.5l0.5,2.3l-2.3,3.1h-8l-1-5.4H319.6z        M363.2,149.6h-18.6l5,17.4h43.3l-7.3-17.4L361,132.5h17.5l-5.8-14h-36.8l4,14L363.2,149.6z M75.9,177.8l-49.7,92.4h24.6       l12.7-26.3H104l25.1-66H75.9z M94.5,212.9H78.3L83,203h15.8L94.5,212.9z M157,177.8h-19.3l-32.8,92.4h67.9l6.9-34.9h-39.8       L157,177.8z M194,210.2l4.9,8.2l-7.8,8.7l-7.4,43h67.9l0.4-34.9h-36.3l13.7-16.8L219.1,203h33.4l0.3-25.2h-53.3L194,210.2z        M261.3,177.8l1.2,92.4h24.6l-0.9-13.2h18.2l1.5,13.2h24.6l-15.8-92.4H261.3z M283.8,223.4l-1.4-20.4h15.8l2.3,20.4H283.8z        M359.4,203h25.9l-8.9-25.2h-53.3L328,203l34.6,32.3h-28.3l6.9,34.9h67.9l-12.4-34.9L359.4,203z M469.2,235.3h-36.3l4.4-16.8       L418.4,203h33.4l-13.6-25.2h-32.6l9.9-10.8l-8.5-17.4h-14.8l12.4,28.2H385l12.3,32.4l9.4,8.2l-3,8.7l16.4,43H488L469.2,235.3z"/>
				</g>
				<g>
					<path fill="#3B483B" d="M119.9,153h26.5l12.5-35.5h-36.8L98.5,166h15.7L119.9,153z M129.3,131.5H140l-2.1,5.4H127L129.3,131.5z        M164.4,166l1.8-6.4H178l-1.6,6.4h15.7l9.7-48.5h-36.8L148.8,166H164.4z M174.2,131.5h10.7l-2.7,10.9h-11.1L174.2,131.5z        M214.7,166l1.7-13h26.5l1.6-35.5h-36.8L199,166H214.7z M219.2,131.5h10.7l-0.5,5.4h-10.9L219.2,131.5z M290.6,148.6h-23.9       l7.7-8.8l-8.2-8.3h22.6l-1.5-14h-36.8l-0.4,17.9l4.1,4.4l-4.3,4.6l-0.5,21.6h43.3L290.6,148.6z M315.1,166l-2.3-13h8.4l3.8,3.5       l2,9.5h15.7l-4.4-16.6l-5.5-4.7l3-4.6l-5.9-22.6h-36.8l6.3,48.5H315.1z M319.6,131.5l0.5,2.3l-2.3,3.1h-8l-1-5.4H319.6z        M363.2,148.6h-18.6l5,17.4h43.3l-7.3-17.4L361,131.5h17.5l-5.8-14h-36.8l4,14L363.2,148.6z M75.9,176.8l-49.7,92.4h24.6       l12.7-26.3H104l25.1-66H75.9z M94.5,211.9H78.3L83,202h15.8L94.5,211.9z M157,176.8h-19.3l-32.8,92.4h67.9l6.9-34.9h-39.8       L157,176.8z M194,209.2l4.9,8.2l-7.8,8.7l-7.4,43h67.9l0.4-34.9h-36.3l13.7-16.8L219.1,202h33.4l0.3-25.2h-53.3L194,209.2z        M261.3,176.8l1.2,92.4h24.6l-0.9-13.2h18.2l1.5,13.2h24.6l-15.8-92.4H261.3z M283.8,222.4l-1.4-20.4h15.8l2.3,20.4H283.8z        M359.4,202h25.9l-8.9-25.2h-53.3L328,202l34.6,32.3h-28.3l6.9,34.9h67.9l-12.4-34.9L359.4,202z M469.2,234.3h-36.3l4.4-16.8       L418.4,202h33.4l-13.6-25.2h-32.6l9.9-10.8l-8.5-17.4h-14.8l12.4,28.2H385l12.3,32.4l9.4,8.2l-3,8.7l16.4,43H488L469.2,234.3z"/>
				</g>
				<g>
					<path fill="#3B483B" d="M119.9,152h26.5l12.5-35.5h-36.8L98.5,165h15.7L119.9,152z M129.3,130.5H140l-2.1,5.4H127L129.3,130.5z        M164.4,165l1.8-6.4H178l-1.6,6.4h15.7l9.7-48.5h-36.8L148.8,165H164.4z M174.2,130.5h10.7l-2.7,10.9h-11.1L174.2,130.5z        M214.7,165l1.7-13h26.5l1.6-35.5h-36.8L199,165H214.7z M219.2,130.5h10.7l-0.5,5.4h-10.9L219.2,130.5z M290.6,147.6h-23.9       l7.7-8.8l-8.2-8.3h22.6l-1.5-14h-36.8l-0.4,17.9l4.1,4.4l-4.3,4.6l-0.5,21.6h43.3L290.6,147.6z M315.1,165l-2.3-13h8.4l3.8,3.5       l2,9.5h15.7l-4.4-16.6l-5.5-4.7l3-4.6l-5.9-22.6h-36.8l6.3,48.5H315.1z M319.6,130.5l0.5,2.3l-2.3,3.1h-8l-1-5.4H319.6z        M363.2,147.6h-18.6l5,17.4h43.3l-7.3-17.4L361,130.5h17.5l-5.8-14h-36.8l4,14L363.2,147.6z M75.9,175.8l-49.7,92.4h24.6       l12.7-26.3H104l25.1-66H75.9z M94.5,210.9H78.3L83,201h15.8L94.5,210.9z M157,175.8h-19.3l-32.8,92.4h67.9l6.9-34.9h-39.8       L157,175.8z M194,208.2l4.9,8.2l-7.8,8.7l-7.4,43h67.9l0.4-34.9h-36.3l13.7-16.8L219.1,201h33.4l0.3-25.2h-53.3L194,208.2z        M261.3,175.8l1.2,92.4h24.6l-0.9-13.2h18.2l1.5,13.2h24.6l-15.8-92.4H261.3z M283.8,221.4l-1.4-20.4h15.8l2.3,20.4H283.8z        M359.4,201h25.9l-8.9-25.2h-53.3L328,201l34.6,32.3h-28.3l6.9,34.9h67.9l-12.4-34.9L359.4,201z M469.2,233.3h-36.3l4.4-16.8       L418.4,201h33.4l-13.6-25.2h-32.6l9.9-10.8l-8.5-17.4h-14.8l12.4,28.2H385l12.3,32.4l9.4,8.2l-3,8.7l16.4,43H488L469.2,233.3z"/>
				</g>
				<g>
					<path fill="#3B483B" d="M119.9,151h26.5l12.5-35.5h-36.8L98.5,164h15.7L119.9,151z M129.3,129.5H140l-2.1,5.4H127L129.3,129.5z        M164.4,164l1.8-6.4H178l-1.6,6.4h15.7l9.7-48.5h-36.8L148.8,164H164.4z M174.2,129.5h10.7l-2.7,10.9h-11.1L174.2,129.5z        M214.7,164l1.7-13h26.5l1.6-35.5h-36.8L199,164H214.7z M219.2,129.5h10.7l-0.5,5.4h-10.9L219.2,129.5z M290.6,146.6h-23.9       l7.7-8.8l-8.2-8.3h22.6l-1.5-14h-36.8l-0.4,17.9l4.1,4.4l-4.3,4.6l-0.5,21.6h43.3L290.6,146.6z M315.1,164l-2.3-13h8.4l3.8,3.5       l2,9.5h15.7l-4.4-16.6l-5.5-4.7l3-4.6l-5.9-22.6h-36.8l6.3,48.5H315.1z M319.6,129.5l0.5,2.3l-2.3,3.1h-8l-1-5.4H319.6z        M363.2,146.6h-18.6l5,17.4h43.3l-7.3-17.4L361,129.5h17.5l-5.8-14h-36.8l4,14L363.2,146.6z M75.9,174.8l-49.7,92.4h24.6       l12.7-26.3H104l25.1-66H75.9z M94.5,209.9H78.3L83,200h15.8L94.5,209.9z M157,174.8h-19.3l-32.8,92.4h67.9l6.9-34.9h-39.8       L157,174.8z M194,207.2l4.9,8.2l-7.8,8.7l-7.4,43h67.9l0.4-34.9h-36.3l13.7-16.8L219.1,200h33.4l0.3-25.2h-53.3L194,207.2z        M261.3,174.8l1.2,92.4h24.6l-0.9-13.2h18.2l1.5,13.2h24.6l-15.8-92.4H261.3z M283.8,220.4l-1.4-20.4h15.8l2.3,20.4H283.8z        M359.4,200h25.9l-8.9-25.2h-53.3L328,200l34.6,32.3h-28.3l6.9,34.9h67.9l-12.4-34.9L359.4,200z M469.2,232.3h-36.3l4.4-16.8       L418.4,200h33.4l-13.6-25.2h-32.6l9.9-10.8l-8.5-17.4h-14.8l12.4,28.2H385l12.3,32.4l9.4,8.2l-3,8.7l16.4,43H488L469.2,232.3z"/>
				</g>
				<g>
					<path fill="#3B483B" d="M119.9,150h26.5l12.5-35.5h-36.8L98.5,163h15.7L119.9,150z M129.3,128.5H140l-2.1,5.4H127L129.3,128.5z        M164.4,163l1.8-6.4H178l-1.6,6.4h15.7l9.7-48.5h-36.8L148.8,163H164.4z M174.2,128.5h10.7l-2.7,10.9h-11.1L174.2,128.5z        M214.7,163l1.7-13h26.5l1.6-35.5h-36.8L199,163H214.7z M219.2,128.5h10.7l-0.5,5.4h-10.9L219.2,128.5z M290.6,145.6h-23.9       l7.7-8.8l-8.2-8.3h22.6l-1.5-14h-36.8l-0.4,17.9l4.1,4.4l-4.3,4.6l-0.5,21.6h43.3L290.6,145.6z M315.1,163l-2.3-13h8.4l3.8,3.5       l2,9.5h15.7l-4.4-16.6l-5.5-4.7l3-4.6l-5.9-22.6h-36.8l6.3,48.5H315.1z M319.6,128.5l0.5,2.3l-2.3,3.1h-8l-1-5.4H319.6z        M363.2,145.6h-18.6l5,17.4h43.3l-7.3-17.4L361,128.5h17.5l-5.8-14h-36.8l4,14L363.2,145.6z M75.9,173.8l-49.7,92.4h24.6       l12.7-26.3H104l25.1-66H75.9z M94.5,208.9H78.3L83,199h15.8L94.5,208.9z M157,173.8h-19.3l-32.8,92.4h67.9l6.9-34.9h-39.8       L157,173.8z M194,206.2l4.9,8.2l-7.8,8.7l-7.4,43h67.9l0.4-34.9h-36.3l13.7-16.8L219.1,199h33.4l0.3-25.2h-53.3L194,206.2z        M261.3,173.8l1.2,92.4h24.6l-0.9-13.2h18.2l1.5,13.2h24.6l-15.8-92.4H261.3z M283.8,219.4l-1.4-20.4h15.8l2.3,20.4H283.8z        M359.4,199h25.9l-8.9-25.2h-53.3L328,199l34.6,32.3h-28.3l6.9,34.9h67.9l-12.4-34.9L359.4,199z M469.2,231.3h-36.3l4.4-16.8       L418.4,199h33.4l-13.6-25.2h-32.6l9.9-10.8l-8.5-17.4h-14.8l12.4,28.2H385l12.3,32.4l9.4,8.2l-3,8.7l16.4,43H488L469.2,231.3z"/>
				</g>
				<g>
					<path fill="#3B483B" d="M119.9,149h26.5l12.5-35.5h-36.8L98.5,162h15.7L119.9,149z M129.3,127.5H140l-2.1,5.4H127L129.3,127.5z        M164.4,162l1.8-6.4H178l-1.6,6.4h15.7l9.7-48.5h-36.8L148.8,162H164.4z M174.2,127.5h10.7l-2.7,10.9h-11.1L174.2,127.5z        M214.7,162l1.7-13h26.5l1.6-35.5h-36.8L199,162H214.7z M219.2,127.5h10.7l-0.5,5.4h-10.9L219.2,127.5z M290.6,144.6h-23.9       l7.7-8.8l-8.2-8.3h22.6l-1.5-14h-36.8l-0.4,17.9l4.1,4.4l-4.3,4.6l-0.5,21.6h43.3L290.6,144.6z M315.1,162l-2.3-13h8.4l3.8,3.5       l2,9.5h15.7l-4.4-16.6l-5.5-4.7l3-4.6l-5.9-22.6h-36.8l6.3,48.5H315.1z M319.6,127.5l0.5,2.3l-2.3,3.1h-8l-1-5.4H319.6z        M363.2,144.6h-18.6l5,17.4h43.3l-7.3-17.4L361,127.5h17.5l-5.8-14h-36.8l4,14L363.2,144.6z M75.9,172.8l-49.7,92.4h24.6       l12.7-26.3H104l25.1-66H75.9z M94.5,207.9H78.3L83,198h15.8L94.5,207.9z M157,172.8h-19.3l-32.8,92.4h67.9l6.9-34.9h-39.8       L157,172.8z M194,205.2l4.9,8.2l-7.8,8.7l-7.4,43h67.9l0.4-34.9h-36.3l13.7-16.8L219.1,198h33.4l0.3-25.2h-53.3L194,205.2z        M261.3,172.8l1.2,92.4h24.6l-0.9-13.2h18.2l1.5,13.2h24.6l-15.8-92.4H261.3z M283.8,218.4l-1.4-20.4h15.8l2.3,20.4H283.8z        M359.4,198h25.9l-8.9-25.2h-53.3L328,198l34.6,32.3h-28.3l6.9,34.9h67.9l-12.4-34.9L359.4,198z M469.2,230.3h-36.3l4.4-16.8       L418.4,198h33.4l-13.6-25.2h-32.6l9.9-10.8l-8.5-17.4h-14.8l12.4,28.2H385l12.3,32.4l9.4,8.2l-3,8.7l16.4,43H488L469.2,230.3z"/>
				</g>
			</g>
			<g>
				<path fill="#FFFFFF" d="M119.9,149h26.5l12.5-35.5h-36.8L98.5,162h15.7L119.9,149z M129.3,127.5H140l-2.1,5.4H127L129.3,127.5z       M164.4,162l1.8-6.4H178l-1.6,6.4h15.7l9.7-48.5h-36.8L148.8,162H164.4z M174.2,127.5h10.7l-2.7,10.9h-11.1L174.2,127.5z       M214.7,162l1.7-13h26.5l1.6-35.5h-36.8L199,162H214.7z M219.2,127.5h10.7l-0.5,5.4h-10.9L219.2,127.5z M290.6,144.6h-23.9      l7.7-8.8l-8.2-8.3h22.6l-1.5-14h-36.8l-0.4,17.9l4.1,4.4l-4.3,4.6l-0.5,21.6h43.3L290.6,144.6z M315.1,162l-2.3-13h8.4l3.8,3.5      l2,9.5h15.7l-4.4-16.6l-5.5-4.7l3-4.6l-5.9-22.6h-36.8l6.3,48.5H315.1z M319.6,127.5l0.5,2.3l-2.3,3.1h-8l-1-5.4H319.6z       M363.2,144.6h-18.6l5,17.4h43.3l-7.3-17.4L361,127.5h17.5l-5.8-14h-36.8l4,14L363.2,144.6z M75.9,172.8l-49.7,92.4h24.6      l12.7-26.3H104l25.1-66H75.9z M94.5,207.9H78.3L83,198h15.8L94.5,207.9z M157,172.8h-19.3l-32.8,92.4h67.9l6.9-34.9h-39.8      L157,172.8z M194,205.2l4.9,8.2l-7.8,8.7l-7.4,43h67.9l0.4-34.9h-36.3l13.7-16.8L219.1,198h33.4l0.3-25.2h-53.3L194,205.2z       M261.3,172.8l1.2,92.4h24.6l-0.9-13.2h18.2l1.5,13.2h24.6l-15.8-92.4H261.3z M283.8,218.4l-1.4-20.4h15.8l2.3,20.4H283.8z       M359.4,198h25.9l-8.9-25.2h-53.3L328,198l34.6,32.3h-28.3l6.9,34.9h67.9l-12.4-34.9L359.4,198z M469.2,230.3h-36.3l4.4-16.8      L418.4,198h33.4l-13.6-25.2h-32.6l9.9-10.8l-8.5-17.4h-14.8l12.4,28.2H385l12.3,32.4l9.4,8.2l-3,8.7l16.4,43H488L469.2,230.3z"/>
			</g>
		</g>
	</g>
	<polygon fill="#3B483B" points="173.7,17.7 122.8,17.7 122.8,33.2 189.2,33.2  "/>
	<polygon fill="#3B483B" points="323.5,33.2 389.2,33.2 389.2,17.7 339,17.7  "/>
	<path fill="#3B483B" d="M294.4,62.1l-12.3,12.3V75l2.7,2.7h104.4V62.1H294.4z M297.9,68.7h-1.3v3.9h-1.1v-3.9h-1.3v-0.9h3.7V68.7z    M302.5,72.5l-0.1-1.8c0-0.6,0-1.3,0-2h0c-0.2,0.6-0.4,1.3-0.5,1.8l-0.6,1.9h-0.8l-0.5-1.8c-0.2-0.6-0.3-1.2-0.4-1.9h0   c0,0.6,0,1.4-0.1,2l-0.1,1.8h-1l0.3-4.8h1.4l0.5,1.6c0.2,0.6,0.3,1.1,0.4,1.7h0c0.1-0.6,0.3-1.2,0.5-1.7l0.5-1.6h1.4l0.3,4.8H302.5   z"/>
</g>
</svg>