<?xml version="1.0" encoding="UTF-8" standalone="no"?>
<svg
   xmlns:dc="http://purl.org/dc/elements/1.1/"
   xmlns:cc="http://creativecommons.org/ns#"
   xmlns:rdf="http://www.w3.org/1999/02/22-rdf-syntax-ns#"
   xmlns:svg="http://www.w3.org/2000/svg"
   xmlns="http://www.w3.org/2000/svg"
   xmlns:sodipodi="http://sodipodi.sourceforge.net/DTD/sodipodi-0.dtd"
   xmlns:inkscape="http://www.inkscape.org/namespaces/inkscape"
   height="383.13262pt"
   viewBox="0 0 383.13262 383.13262"
   width="383.13262pt"
   version="1.1"
   id="svg8"
   sodipodi:docname="pendrive.svg"
   inkscape:version="1.0.1 (3bc2e813f5, 2020-09-07)">
  <metadata
     id="metadata14">
    <rdf:RDF>
      <cc:Work
         rdf:about="">
        <dc:format>image/svg+xml</dc:format>
        <dc:type
           rdf:resource="http://purl.org/dc/dcmitype/StillImage" />
      </cc:Work>
    </rdf:RDF>
  </metadata>
  <defs
     id="defs12" />
  <sodipodi:namedview
     pagecolor="#ffffff"
     bordercolor="#666666"
     borderopacity="1"
     objecttolerance="10"
     gridtolerance="10"
     guidetolerance="10"
     inkscape:pageopacity="0"
     inkscape:pageshadow="2"
     inkscape:window-width="1920"
     inkscape:window-height="1058"
     id="namedview10"
     showgrid="false"
     inkscape:zoom="0.84566015"
     inkscape:cx="-66.87982"
     inkscape:cy="459.31562"
     inkscape:window-x="0"
     inkscape:window-y="22"
     inkscape:window-maximized="1"
     inkscape:current-layer="svg8"
     inkscape:document-rotation="0" />
  <g
     id="g840"
     style="fill:#ffffff">
    <g
       id="g871"
       style="fill:#ffffff">
      <g
         id="g900"
         style="fill:#ffffff">
        <path
           d="m 282.84766,339.41406 56.5664,-56.5664 c 3.12891,-3.125 3.12891,-8.19141 0.008,-11.31641 -3.125,-3.125 -8.1914,-3.12891 -11.3164,-0.004 l -56.57031,56.57032 c -3.125,3.12109 -3.125,8.1875 -0.004,11.3125 3.125,3.1289 8.19141,3.1289 11.31641,0.004 z m 0,0"
           id="path2"
           style="fill:#ffffff" />
        <path
           d="m 226.27344,362.03906 c 28.11718,28.125 73.71093,28.125 101.83203,0 l 33.93359,-33.93359 c 28.125,-28.1211 28.125,-73.71485 0,-101.83203 L 181.02344,45.296875 c -9.3711,-9.375 -24.57032,-9.375 -33.94532,0 L 45.257812,147.07812 c -9.375,9.375 -9.375,24.57422 0,33.94532 z m 33.94922,-45.2539 56.57031,-56.57032 c 6.04687,-6.14453 14.92187,-8.57421 23.25781,-6.36328 8.33203,2.21094 14.83984,8.71875 17.04688,17.05078 2.20703,8.33594 -0.22266,17.21094 -6.3711,23.25782 l -56.5664,56.5664 c -6.04688,6.14453 -14.92579,8.57422 -23.25782,6.36719 -8.33203,-2.21094 -14.83984,-8.71875 -17.04687,-17.05469 -2.21094,-8.33203 0.22266,-17.21093 6.36719,-23.2539 z m 0,0"
           id="path4"
           style="fill:#ffffff" />
      </g>
      <path
         d="M 56.574219,0 0,56.566406 56.574219,113.14453 113.14453,56.566406 Z m -22.628907,67.878906 -11.3125,-11.3125 11.3125,-11.269531 11.3125,11.3125 z M 45.257812,33.945312 56.574219,22.625 l 11.3125,11.3125 -11.3125,11.359375 z m 0,0"
         id="path6"
         style="fill:#ffffff" />
    </g>
  </g>
  <g
     id="g866"
     transform="matrix(2.841651,0,0,2.7050188,-831.72283,48.627015)"
     style="fill:#ffffff">
    <g
       id="g843"
       style="fill:#ffffff">
      <g
         id="g848"
         transform="matrix(0.85199139,0,0,0.85199139,47.838071,10.716313)"
         style="fill:#ffffff">
        <g
           id="g841"
           style="fill:#ffffff">
          <g
             id="g844"
             style="fill:#ffffff">
            <g
               id="g847"
               style="fill:#ffffff" />
          </g>
        </g>
        <g
           id="g852"
           style="fill:#ffffff">
          <path
             d="m 406.46432,-26.518027 v 20.7272999 h -11.0113 L 416.82793,18.391124 438.20285,-5.7907271 H 427.19154 V -26.518027 Z"
             style="display:inline;overflow:visible;visibility:visible;fill:#ffffff;fill-opacity:1;fill-rule:nonzero;stroke:none;stroke-width:3.46071;marker:none;enable-background:accumulate"
             id="path31" />
          <g
             id="g859"
             style="fill:#ffffff">
            <g
               id="g855"
               style="fill:#ffffff">
              <g
                 id="g862"
                 style="fill:#ffffff">
                <g
                   id="g865"
                   style="fill:#ffffff">
                  <g
                     id="g868"
                     style="fill:#ffffff">
                    <g
                       id="g872"
                       style="fill:#ffffff" />
                  </g>
                </g>
              </g>
            </g>
          </g>
        </g>
      </g>
    </g>
  </g>
  <path
     style="display:inline;overflow:visible;visibility:visible;fill:#ffffff;fill-opacity:1;fill-rule:nonzero;stroke:none;stroke-width:5.76029;marker:none;enable-background:accumulate"
     d="m 63.460998,263.13262 c -0.993873,0 -1.617121,1.69572 -1.617121,3.7734 v 13.1172 c -4.002435,0.91164 -7.771503,2.54365 -11.140674,4.67191 l -9.343767,-9.34369 c -1.46936,-1.46934 -3.070577,-2.14053 -3.773533,-1.4377 l -8.804723,8.80464 c -0.702549,0.70256 -0.02795,2.30432 1.437572,3.7734 l 9.343756,9.34381 c -2.128275,3.36928 -3.760444,7.13835 -4.671803,11.14063 H 21.773394 C 19.695875,306.97622 18,307.59929 18,308.59346 v 12.57816 c 0,0.99391 1.695875,1.61727 3.773394,1.61727 h 13.117311 c 0.911627,4.00226 2.543528,7.77148 4.671803,11.14076 l -9.343756,9.34368 c -1.468933,1.46934 -2.1404,3.0704 -1.437572,3.77336 l 8.804723,8.8048 c 0.702539,0.70254 2.304322,0.0279 3.773533,-1.43756 l 9.343767,-9.34383 c 3.369171,2.1284 7.138388,3.76057 11.140674,4.67191 v 13.11721 c 0,2.07767 0.623109,3.7734 1.61727,3.7734 h 12.578128 c 0.993882,0 1.617379,-1.69559 1.617379,-3.7734 v -13.11721 c 4.002296,-0.91163 7.771394,-2.54365 11.140555,-4.67191 l 9.343761,9.34383 c 1.46921,1.46935 3.07058,2.14038 3.77355,1.43743 l 8.80471,-8.80453 c 0.70253,-0.70253 0.0279,-2.30444 -1.43759,-3.7735 l -9.34416,-9.34368 c 2.12827,-3.36928 3.76058,-7.1385 4.67194,-11.14076 h 13.11718 c 2.07766,0 3.77339,-0.6231 3.77339,-1.61727 v -12.57816 c 0,-0.99389 -1.69558,-1.61724 -3.77339,-1.61724 h -13.11718 c -0.91164,-4.00228 -2.54367,-7.77135 -4.67194,-11.14063 l 9.34374,-9.34368 c 1.46923,-1.46934 2.14054,-3.07055 1.43772,-3.77353 l -8.8047,-8.80464 c -0.70254,-0.70253 -2.3042,-0.028 -3.77342,1.4377 l -9.34376,9.34369 c -3.36943,-2.12826 -7.138518,-3.76056 -11.140824,-4.67191 v -13.1172 c 0,-2.07768 -0.623079,-3.7734 -1.61724,-3.7734 z m 6.289064,35.75779 c 8.789525,0 15.992176,7.20274 15.992176,15.9922 0,8.78961 -7.20279,15.99222 -15.992176,15.99222 -8.789655,0 -15.992315,-7.20261 -15.992315,-15.99222 0,-8.78946 7.20266,-15.9922 15.992315,-15.9922 z"
     id="path33" />
</svg>
