<?xml version="1.0" encoding="UTF-8" standalone="no"?>
<svg
   xmlns:dc="http://purl.org/dc/elements/1.1/"
   xmlns:cc="http://creativecommons.org/ns#"
   xmlns:rdf="http://www.w3.org/1999/02/22-rdf-syntax-ns#"
   xmlns:svg="http://www.w3.org/2000/svg"
   xmlns="http://www.w3.org/2000/svg"
   xmlns:sodipodi="http://sodipodi.sourceforge.net/DTD/sodipodi-0.dtd"
   xmlns:inkscape="http://www.inkscape.org/namespaces/inkscape"
   height="383.13262pt"
   viewBox="0 0 383.13262 383.13262"
   width="383.13262pt"
   version="1.1"
   id="svg8"
   sodipodi:docname="usb.svg"
   inkscape:version="1.0.1 (3bc2e813f5, 2020-09-07)">
  <metadata
     id="metadata14">
    <rdf:RDF>
      <cc:Work
         rdf:about="">
        <dc:format>image/svg+xml</dc:format>
        <dc:type
           rdf:resource="http://purl.org/dc/dcmitype/StillImage" />
      </cc:Work>
    </rdf:RDF>
  </metadata>
  <defs
     id="defs12" />
  <sodipodi:namedview
     pagecolor="#ffffff"
     bordercolor="#666666"
     borderopacity="1"
     objecttolerance="10"
     gridtolerance="10"
     guidetolerance="10"
     inkscape:pageopacity="0"
     inkscape:pageshadow="2"
     inkscape:window-width="1920"
     inkscape:window-height="1058"
     id="namedview10"
     showgrid="false"
     inkscape:zoom="1"
     inkscape:cx="336.39888"
     inkscape:cy="308.63577"
     inkscape:window-x="0"
     inkscape:window-y="22"
     inkscape:window-maximized="1"
     inkscape:current-layer="svg8"
     inkscape:document-rotation="0" />
  <g
     id="g840"
     style="fill:#ffffff"
     transform="rotate(-45,191.56624,191.56646)">
    <g
       id="g871"
       style="fill:#ffffff"
       transform="rotate(45,191.5664,191.5664)">
      <g
         id="g900"
         style="fill:#ffffff">
        <path
           d="m 282.84766,339.41406 56.5664,-56.5664 c 3.12891,-3.125 3.12891,-8.19141 0.008,-11.31641 -3.125,-3.125 -8.1914,-3.12891 -11.3164,-0.004 l -56.57031,56.57032 c -3.125,3.12109 -3.125,8.1875 -0.004,11.3125 3.125,3.1289 8.19141,3.1289 11.31641,0.004 z m 0,0"
           id="path2"
           style="fill:#ffffff" />
        <path
           d="m 226.27344,362.03906 c 28.11718,28.125 73.71093,28.125 101.83203,0 l 33.93359,-33.93359 c 28.125,-28.1211 28.125,-73.71485 0,-101.83203 L 181.02344,45.296875 c -9.3711,-9.375 -24.57032,-9.375 -33.94532,0 L 45.257812,147.07812 c -9.375,9.375 -9.375,24.57422 0,33.94532 z m 33.94922,-45.2539 56.57031,-56.57032 c 6.04687,-6.14453 14.92187,-8.57421 23.25781,-6.36328 8.33203,2.21094 14.83984,8.71875 17.04688,17.05078 2.20703,8.33594 -0.22266,17.21094 -6.3711,23.25782 l -56.5664,56.5664 c -6.04688,6.14453 -14.92579,8.57422 -23.25782,6.36719 -8.33203,-2.21094 -14.83984,-8.71875 -17.04687,-17.05469 -2.21094,-8.33203 0.22266,-17.21093 6.36719,-23.2539 z m 0,0"
           id="path4"
           style="fill:#ffffff" />
      </g>
      <path
         d="M 56.574219,0 0,56.566406 56.574219,113.14453 113.14453,56.566406 Z m -22.628907,67.878906 -11.3125,-11.3125 11.3125,-11.269531 11.3125,11.3125 z M 45.257812,33.945312 56.574219,22.625 l 11.3125,11.3125 -11.3125,11.359375 z m 0,0"
         id="path6"
         style="fill:#ffffff" />
    </g>
  </g>
  <g
     id="g883"
     transform="matrix(0,-1.213664,1.213664,0,-42.648292,424.06337)"
     style="fill:#000000">
    <g
       id="g866"
       transform="matrix(2.841651,0,0,2.7050188,-953.53905,238.21773)"
       style="fill:#000000">
      <g
         id="g843"
         style="fill:#000000">
        <g
           id="g848"
           transform="matrix(0.85199139,0,0,0.85199139,47.838071,10.716313)"
           style="fill:#000000">
          <g
             id="g841"
             style="fill:#000000">
            <g
               id="g844"
               style="fill:#000000">
              <g
                 id="g847"
                 style="fill:#000000" />
            </g>
          </g>
          <g
             id="g852"
             style="fill:#000000">
            <g
               id="g859"
               style="fill:#000000">
              <g
                 id="g855"
                 style="fill:#000000">
                <g
                   id="g862"
                   style="fill:#000000">
                  <g
                     id="g865"
                     style="fill:#000000">
                    <g
                       id="g868"
                       style="fill:#000000">
                      <g
                         id="g872"
                         style="fill:#000000" />
                    </g>
                  </g>
                </g>
              </g>
            </g>
          </g>
        </g>
      </g>
    </g>
    <path
       style="display:inline;overflow:visible;visibility:visible;fill:#000000;fill-opacity:1;fill-rule:nonzero;stroke:none;stroke-width:6.86708;marker:none;enable-background:accumulate"
       d="m 184.06887,131.28807 c -1.18483,0 -1.92784,2.02153 -1.92784,4.49843 v 15.63757 c -4.77147,1.0868 -9.26473,3.03239 -13.28127,5.56958 l -11.13909,-11.13901 c -1.75168,-1.75166 -3.66056,-2.55182 -4.49859,-1.71394 l -10.49648,10.49638 c -0.83754,0.83755 -0.0334,2.74708 1.71379,4.49843 l 11.13909,11.13915 c -2.53721,4.01666 -4.48298,8.50992 -5.56945,13.28121 h -15.6377 c -2.4767,0 -4.49843,0.74279 -4.49843,1.92798 v 14.99495 c 0,1.18488 2.02173,1.92802 4.49843,1.92802 h 15.6377 c 1.08678,4.77126 3.03224,9.26471 5.56945,13.28137 l -11.13909,11.13899 c -1.75117,1.75166 -2.55166,3.66035 -1.71379,4.49838 l 10.49648,10.49657 c 0.83753,0.83753 2.74709,0.0333 4.49859,-1.71377 l 11.13909,-11.13918 c 4.01654,2.53736 8.50998,4.48314 13.28127,5.56958 v 15.63758 c 0,2.47688 0.74284,4.49843 1.92802,4.49843 h 14.99492 c 1.18484,0 1.92814,-2.02138 1.92814,-4.49843 v -15.63758 c 4.7713,-1.08679 9.2646,-3.03239 13.28112,-5.56958 l 11.13909,11.13918 c 1.75151,1.75167 3.66057,2.55163 4.49861,1.71362 l 10.49646,-10.49625 c 0.83752,-0.83752 0.0333,-2.74722 -1.71381,-4.49855 l -11.13957,-11.13899 c 2.5372,-4.01666 4.48315,-8.51011 5.56962,-13.28137 h 15.63754 c 2.47687,0 4.49842,-0.74283 4.49842,-1.92802 v -14.99495 c 0,-1.18486 -2.02137,-1.92798 -4.49842,-1.92798 h -15.63754 c -1.0868,-4.77129 -3.03242,-9.26455 -5.56962,-13.28121 l 11.13907,-11.139 c 1.75153,-1.75166 2.55183,-3.66053 1.71397,-4.49858 L 229.91059,144.1407 c -0.83752,-0.83752 -2.74693,-0.0334 -4.49845,1.71394 l -11.13909,11.13901 c -4.01684,-2.53719 -8.51013,-4.48312 -13.28144,-5.56958 V 135.7865 c 0,-2.4769 -0.7428,-4.49843 -1.92798,-4.49843 z m 7.49745,42.62837 c 10.47837,0 19.06495,8.58669 19.06495,19.06497 0,10.47846 -8.58675,19.065 -19.06495,19.065 -10.47851,0 -19.0651,-8.58654 -19.0651,-19.065 0,-10.47828 8.58659,-19.06497 19.0651,-19.06497 z"
       id="path33" />
  </g>
</svg>
