<?xml version="1.0" encoding="UTF-8" standalone="no"?>
<svg
   xmlns:dc="http://purl.org/dc/elements/1.1/"
   xmlns:cc="http://creativecommons.org/ns#"
   xmlns:rdf="http://www.w3.org/1999/02/22-rdf-syntax-ns#"
   xmlns:svg="http://www.w3.org/2000/svg"
   xmlns="http://www.w3.org/2000/svg"
   xmlns:sodipodi="http://sodipodi.sourceforge.net/DTD/sodipodi-0.dtd"
   xmlns:inkscape="http://www.inkscape.org/namespaces/inkscape"
   width="16"
   height="16"
   version="1.1"
   id="svg8"
   sodipodi:docname="view-group.svg"
   inkscape:version="1.0.1 (3bc2e813f5, 2020-09-07)">
  <metadata
     id="metadata14">
    <rdf:RDF>
      <cc:Work
         rdf:about="">
        <dc:format>image/svg+xml</dc:format>
        <dc:type
           rdf:resource="http://purl.org/dc/dcmitype/StillImage" />
      </cc:Work>
    </rdf:RDF>
  </metadata>
  <defs
     id="defs12" />
  <sodipodi:namedview
     pagecolor="#ffffff"
     bordercolor="#666666"
     borderopacity="1"
     objecttolerance="10"
     gridtolerance="10"
     guidetolerance="10"
     inkscape:pageopacity="0"
     inkscape:pageshadow="2"
     inkscape:window-width="1920"
     inkscape:window-height="1056"
     id="namedview10"
     showgrid="false"
     inkscape:zoom="38.22796"
     inkscape:cx="7.0821608"
     inkscape:cy="6.3532472"
     inkscape:window-x="0"
     inkscape:window-y="24"
     inkscape:window-maximized="1"
     inkscape:current-layer="svg8"
     inkscape:document-rotation="0" />
  <g
     fill="#474747"
     id="g846" />
  <g
     id="g879"
     transform="matrix(0.74485545,0,0,0.58998378,1.5644208,1.3120328)"
     style="fill:#ffffff">
    <g
       fill="#474747"
       id="g6"
       style="fill:#ffffff">
      <path
         d="M 6.7111311,3.6544644 H 15.341203 V 5.5850745 H 6.7111311 Z"
         style="fill:#ffffff;stroke-width:0.947139;marker:none"
         color="#bebebe"
         overflow="visible"
         id="path2"
         sodipodi:nodetypes="ccccc" />
      <path
         d="M 2.1962638,0.91237621 H 4.3619686 C 4.5036858,0.91050621 4.6196692,1.0246867 4.6200299,1.1664159 V 3.3388235 C 4.6200422,3.4808149 4.503948,3.5954015 4.3619686,3.5935334 H 2.196934 C 2.0552168,3.5953988 1.9392334,3.4812231 1.9388727,3.3394937 V 1.1670861 C 1.9388648,1.02536 2.0545455,0.91088441 2.1962638,0.91237621 Z"
         style="fill:#ffffff;stroke-width:0.670291;marker:none"
         color="#000000"
         overflow="visible"
         id="path4"
         sodipodi:nodetypes="ccccccccc" />
    </g>
    <g
       fill="#474747"
       id="g862"
       style="fill:#ffffff"
       transform="translate(0,8)">
      <path
         d="M 6.7111311,3.6544644 H 15.341203 V 5.5850745 H 6.7111311 Z"
         style="fill:#ffffff;stroke-width:0.947139;marker:none"
         color="#bebebe"
         overflow="visible"
         id="path858"
         sodipodi:nodetypes="ccccc" />
      <path
         d="M 2.1962638,0.91237621 H 4.3619686 C 4.5036858,0.91050621 4.6196692,1.0246867 4.6200299,1.1664159 V 3.3388235 C 4.6200422,3.4808149 4.503948,3.5954015 4.3619686,3.5935334 H 2.196934 C 2.0552168,3.5953988 1.9392334,3.4812231 1.9388727,3.3394937 V 1.1670861 C 1.9388648,1.02536 2.0545455,0.91088441 2.1962638,0.91237621 Z"
         style="fill:#ffffff;stroke-width:0.670291;marker:none"
         color="#000000"
         overflow="visible"
         id="path860"
         sodipodi:nodetypes="ccccccccc" />
    </g>
    <g
       fill="#474747"
       id="g868"
       style="fill:#ffffff"
       transform="translate(0,16)">
      <path
         d="M 6.7111311,3.6544644 H 15.341203 V 5.5850745 H 6.7111311 Z"
         style="fill:#ffffff;stroke-width:0.947139;marker:none"
         color="#bebebe"
         overflow="visible"
         id="path864"
         sodipodi:nodetypes="ccccc" />
      <path
         d="M 2.1962638,0.91237621 H 4.3619686 C 4.5036858,0.91050621 4.6196692,1.0246867 4.6200299,1.1664159 V 3.3388235 C 4.6200422,3.4808149 4.503948,3.5954015 4.3619686,3.5935334 H 2.196934 C 2.0552168,3.5953988 1.9392334,3.4812231 1.9388727,3.3394937 V 1.1670861 C 1.9388648,1.02536 2.0545455,0.91088441 2.1962638,0.91237621 Z"
         style="fill:#ffffff;stroke-width:0.670291;marker:none"
         color="#000000"
         overflow="visible"
         id="path866"
         sodipodi:nodetypes="ccccccccc" />
    </g>
  </g>
</svg>
